<mxfile host="Electron" modified="2024-07-11T10:43:33.224Z" agent="Mozilla/5.0 (Windows NT 10.0; Win64; x64) AppleWebKit/537.36 (KHTML, like Gecko) draw.io/24.2.5 Chrome/120.0.6099.109 Electron/28.1.0 Safari/537.36" etag="WrES9nu4icywEzb4G_32" version="24.2.5" type="device" pages="2">
  <diagram name="ProjectForm" id="_dcQneytICV6LhprM6BJ">
    <mxGraphModel dx="1434" dy="836" grid="1" gridSize="10" guides="1" tooltips="1" connect="1" arrows="1" fold="1" page="1" pageScale="1" pageWidth="827" pageHeight="1169" math="0" shadow="0">
      <root>
        <mxCell id="0" />
        <mxCell id="1" parent="0" />
        <mxCell id="J1X49jWVvAzO1X5O8mOP-1" value="" style="ellipse;whiteSpace=wrap;html=1;aspect=fixed;fillColor=#dae8fc;strokeColor=#6c8ebf;" parent="1" vertex="1">
          <mxGeometry x="218" y="40" width="80" height="80" as="geometry" />
        </mxCell>
        <mxCell id="J1X49jWVvAzO1X5O8mOP-2" value="" style="triangle;whiteSpace=wrap;html=1;fillColor=#d5e8d4;strokeColor=#82b366;" parent="1" vertex="1">
          <mxGeometry x="244" y="55" width="46" height="50" as="geometry" />
        </mxCell>
        <mxCell id="J1X49jWVvAzO1X5O8mOP-3" value="Desenvolvedor roda ou faz debbug no fluxo que chama o forms" style="text;html=1;align=center;verticalAlign=middle;whiteSpace=wrap;rounded=0;" parent="1" vertex="1">
          <mxGeometry x="334" y="65" width="180" height="45" as="geometry" />
        </mxCell>
        <mxCell id="r6c1n6n9SwDsCSJcZzll-2" style="edgeStyle=orthogonalEdgeStyle;rounded=0;orthogonalLoop=1;jettySize=auto;html=1;entryX=0.5;entryY=0;entryDx=0;entryDy=0;" edge="1" parent="1" source="J1X49jWVvAzO1X5O8mOP-4" target="r6c1n6n9SwDsCSJcZzll-1">
          <mxGeometry relative="1" as="geometry" />
        </mxCell>
        <mxCell id="J1X49jWVvAzO1X5O8mOP-4" value="Project Form Call.xaml" style="text;html=1;align=center;verticalAlign=middle;whiteSpace=wrap;rounded=0;" parent="1" vertex="1">
          <mxGeometry x="190" y="130" width="136" height="30" as="geometry" />
        </mxCell>
        <mxCell id="J1X49jWVvAzO1X5O8mOP-7" value="" style="shape=table;startSize=0;container=1;collapsible=0;childLayout=tableLayout;" parent="1" vertex="1">
          <mxGeometry x="520" y="260" width="300" height="120" as="geometry" />
        </mxCell>
        <mxCell id="J1X49jWVvAzO1X5O8mOP-8" value="" style="shape=tableRow;horizontal=0;startSize=0;swimlaneHead=0;swimlaneBody=0;strokeColor=inherit;top=0;left=0;bottom=0;right=0;collapsible=0;dropTarget=0;fillColor=none;points=[[0,0.5],[1,0.5]];portConstraint=eastwest;" parent="J1X49jWVvAzO1X5O8mOP-7" vertex="1">
          <mxGeometry width="300" height="40" as="geometry" />
        </mxCell>
        <mxCell id="J1X49jWVvAzO1X5O8mOP-9" value="Key" style="shape=partialRectangle;html=1;whiteSpace=wrap;connectable=0;strokeColor=#82b366;overflow=hidden;fillColor=#d5e8d4;top=0;left=0;bottom=0;right=0;pointerEvents=1;" parent="J1X49jWVvAzO1X5O8mOP-8" vertex="1">
          <mxGeometry width="150" height="40" as="geometry">
            <mxRectangle width="150" height="40" as="alternateBounds" />
          </mxGeometry>
        </mxCell>
        <mxCell id="J1X49jWVvAzO1X5O8mOP-10" value="Value" style="shape=partialRectangle;html=1;whiteSpace=wrap;connectable=0;strokeColor=#82b366;overflow=hidden;fillColor=#d5e8d4;top=0;left=0;bottom=0;right=0;pointerEvents=1;" parent="J1X49jWVvAzO1X5O8mOP-8" vertex="1">
          <mxGeometry x="150" width="150" height="40" as="geometry">
            <mxRectangle width="150" height="40" as="alternateBounds" />
          </mxGeometry>
        </mxCell>
        <mxCell id="J1X49jWVvAzO1X5O8mOP-11" value="" style="shape=tableRow;horizontal=0;startSize=0;swimlaneHead=0;swimlaneBody=0;strokeColor=inherit;top=0;left=0;bottom=0;right=0;collapsible=0;dropTarget=0;fillColor=none;points=[[0,0.5],[1,0.5]];portConstraint=eastwest;" parent="J1X49jWVvAzO1X5O8mOP-7" vertex="1">
          <mxGeometry y="40" width="300" height="40" as="geometry" />
        </mxCell>
        <mxCell id="J1X49jWVvAzO1X5O8mOP-12" value="emailDesenvolvedor" style="shape=partialRectangle;html=1;whiteSpace=wrap;connectable=0;strokeColor=inherit;overflow=hidden;fillColor=none;top=0;left=0;bottom=0;right=0;pointerEvents=1;" parent="J1X49jWVvAzO1X5O8mOP-11" vertex="1">
          <mxGeometry width="150" height="40" as="geometry">
            <mxRectangle width="150" height="40" as="alternateBounds" />
          </mxGeometry>
        </mxCell>
        <mxCell id="J1X49jWVvAzO1X5O8mOP-13" value="mateus.orlandin@gmail.com" style="shape=partialRectangle;html=1;whiteSpace=wrap;connectable=0;strokeColor=inherit;overflow=hidden;fillColor=none;top=0;left=0;bottom=0;right=0;pointerEvents=1;" parent="J1X49jWVvAzO1X5O8mOP-11" vertex="1">
          <mxGeometry x="150" width="150" height="40" as="geometry">
            <mxRectangle width="150" height="40" as="alternateBounds" />
          </mxGeometry>
        </mxCell>
        <mxCell id="J1X49jWVvAzO1X5O8mOP-14" value="" style="shape=tableRow;horizontal=0;startSize=0;swimlaneHead=0;swimlaneBody=0;strokeColor=inherit;top=0;left=0;bottom=0;right=0;collapsible=0;dropTarget=0;fillColor=none;points=[[0,0.5],[1,0.5]];portConstraint=eastwest;" parent="J1X49jWVvAzO1X5O8mOP-7" vertex="1">
          <mxGeometry y="80" width="300" height="40" as="geometry" />
        </mxCell>
        <mxCell id="J1X49jWVvAzO1X5O8mOP-15" value="urlDoRepositorioDoProjeto" style="shape=partialRectangle;html=1;whiteSpace=wrap;connectable=0;strokeColor=inherit;overflow=hidden;fillColor=none;top=0;left=0;bottom=0;right=0;pointerEvents=1;" parent="J1X49jWVvAzO1X5O8mOP-14" vertex="1">
          <mxGeometry width="150" height="40" as="geometry">
            <mxRectangle width="150" height="40" as="alternateBounds" />
          </mxGeometry>
        </mxCell>
        <mxCell id="J1X49jWVvAzO1X5O8mOP-16" value="https://github.com/MateusOrlandinDias/UiPathCommunityForms" style="shape=partialRectangle;html=1;whiteSpace=wrap;connectable=0;strokeColor=inherit;overflow=hidden;fillColor=none;top=0;left=0;bottom=0;right=0;pointerEvents=1;" parent="J1X49jWVvAzO1X5O8mOP-14" vertex="1">
          <mxGeometry x="150" width="150" height="40" as="geometry">
            <mxRectangle width="150" height="40" as="alternateBounds" />
          </mxGeometry>
        </mxCell>
        <mxCell id="J1X49jWVvAzO1X5O8mOP-17" value="InfoProjeto" style="text;html=1;align=center;verticalAlign=middle;whiteSpace=wrap;rounded=0;" parent="1" vertex="1">
          <mxGeometry x="640" y="220" width="60" height="30" as="geometry" />
        </mxCell>
        <mxCell id="J1X49jWVvAzO1X5O8mOP-18" value="" style="shape=table;startSize=0;container=1;collapsible=0;childLayout=tableLayout;" parent="1" vertex="1">
          <mxGeometry x="580" y="440" width="180" height="120" as="geometry" />
        </mxCell>
        <mxCell id="J1X49jWVvAzO1X5O8mOP-19" value="" style="shape=tableRow;horizontal=0;startSize=0;swimlaneHead=0;swimlaneBody=0;strokeColor=inherit;top=0;left=0;bottom=0;right=0;collapsible=0;dropTarget=0;fillColor=none;points=[[0,0.5],[1,0.5]];portConstraint=eastwest;" parent="J1X49jWVvAzO1X5O8mOP-18" vertex="1">
          <mxGeometry width="180" height="40" as="geometry" />
        </mxCell>
        <mxCell id="J1X49jWVvAzO1X5O8mOP-20" value="Nome do Asset" style="shape=partialRectangle;html=1;whiteSpace=wrap;connectable=0;strokeColor=#82b366;overflow=hidden;fillColor=#d5e8d4;top=0;left=0;bottom=0;right=0;pointerEvents=1;" parent="J1X49jWVvAzO1X5O8mOP-19" vertex="1">
          <mxGeometry width="180" height="40" as="geometry">
            <mxRectangle width="180" height="40" as="alternateBounds" />
          </mxGeometry>
        </mxCell>
        <mxCell id="J1X49jWVvAzO1X5O8mOP-21" value="" style="shape=tableRow;horizontal=0;startSize=0;swimlaneHead=0;swimlaneBody=0;strokeColor=inherit;top=0;left=0;bottom=0;right=0;collapsible=0;dropTarget=0;fillColor=none;points=[[0,0.5],[1,0.5]];portConstraint=eastwest;" parent="J1X49jWVvAzO1X5O8mOP-18" vertex="1">
          <mxGeometry y="40" width="180" height="40" as="geometry" />
        </mxCell>
        <mxCell id="J1X49jWVvAzO1X5O8mOP-22" value="EmailHTML" style="shape=partialRectangle;html=1;whiteSpace=wrap;connectable=0;strokeColor=inherit;overflow=hidden;fillColor=none;top=0;left=0;bottom=0;right=0;pointerEvents=1;" parent="J1X49jWVvAzO1X5O8mOP-21" vertex="1">
          <mxGeometry width="180" height="40" as="geometry">
            <mxRectangle width="180" height="40" as="alternateBounds" />
          </mxGeometry>
        </mxCell>
        <mxCell id="J1X49jWVvAzO1X5O8mOP-23" value="" style="shape=tableRow;horizontal=0;startSize=0;swimlaneHead=0;swimlaneBody=0;strokeColor=inherit;top=0;left=0;bottom=0;right=0;collapsible=0;dropTarget=0;fillColor=none;points=[[0,0.5],[1,0.5]];portConstraint=eastwest;" parent="J1X49jWVvAzO1X5O8mOP-18" vertex="1">
          <mxGeometry y="80" width="180" height="40" as="geometry" />
        </mxCell>
        <mxCell id="J1X49jWVvAzO1X5O8mOP-24" value="TestFlag" style="shape=partialRectangle;html=1;whiteSpace=wrap;connectable=0;strokeColor=inherit;overflow=hidden;fillColor=none;top=0;left=0;bottom=0;right=0;pointerEvents=1;" parent="J1X49jWVvAzO1X5O8mOP-23" vertex="1">
          <mxGeometry width="180" height="40" as="geometry">
            <mxRectangle width="180" height="40" as="alternateBounds" />
          </mxGeometry>
        </mxCell>
        <mxCell id="J1X49jWVvAzO1X5O8mOP-25" value="Assets" style="text;html=1;align=center;verticalAlign=middle;whiteSpace=wrap;rounded=0;" parent="1" vertex="1">
          <mxGeometry x="640" y="400" width="60" height="30" as="geometry" />
        </mxCell>
        <mxCell id="r6c1n6n9SwDsCSJcZzll-4" style="edgeStyle=orthogonalEdgeStyle;rounded=0;orthogonalLoop=1;jettySize=auto;html=1;entryX=0.5;entryY=0;entryDx=0;entryDy=0;" edge="1" parent="1" source="r6c1n6n9SwDsCSJcZzll-1" target="r6c1n6n9SwDsCSJcZzll-3">
          <mxGeometry relative="1" as="geometry" />
        </mxCell>
        <mxCell id="r6c1n6n9SwDsCSJcZzll-1" value="Lê a tabela de &quot;InfoProjeto&quot; e atribui as informações para a variável do tipo Dictionary(Of String, String) chamada dictProjectForms" style="rounded=1;whiteSpace=wrap;html=1;" vertex="1" parent="1">
          <mxGeometry x="187" y="200" width="143" height="110" as="geometry" />
        </mxCell>
        <mxCell id="r6c1n6n9SwDsCSJcZzll-8" style="edgeStyle=orthogonalEdgeStyle;rounded=0;orthogonalLoop=1;jettySize=auto;html=1;" edge="1" parent="1" source="r6c1n6n9SwDsCSJcZzll-3" target="r6c1n6n9SwDsCSJcZzll-7">
          <mxGeometry relative="1" as="geometry" />
        </mxCell>
        <mxCell id="r6c1n6n9SwDsCSJcZzll-3" value="Lê a tabela de &quot;Assets&quot; e para cada asset atribuido ao projeto usa um Get Asset pra pegar o valor do asset e montar a variável do tipo Dictionary(Of String, String) chamada dictAssets" style="rounded=1;whiteSpace=wrap;html=1;" vertex="1" parent="1">
          <mxGeometry x="187" y="340" width="143" height="120" as="geometry" />
        </mxCell>
        <mxCell id="r6c1n6n9SwDsCSJcZzll-10" style="edgeStyle=orthogonalEdgeStyle;rounded=0;orthogonalLoop=1;jettySize=auto;html=1;" edge="1" parent="1" source="r6c1n6n9SwDsCSJcZzll-5" target="r6c1n6n9SwDsCSJcZzll-9">
          <mxGeometry relative="1" as="geometry" />
        </mxCell>
        <mxCell id="r6c1n6n9SwDsCSJcZzll-5" value="" style="shape=image;verticalLabelPosition=bottom;labelBackgroundColor=default;verticalAlign=top;aspect=fixed;imageAspect=0;image=data:image/png,iVBORw0KGgoAAAANSUhEUgAAAVsAAADHCAYAAAC3HPBhAAAAAXNSR0IArs4c6QAAAARnQU1BAACxjwv8YQUAAAAJcEhZcwAADsMAAA7DAcdvqGQAAB27SURBVHhe7d0LfFTVnQfwfwJRQF4irVpCICaYrK3bav0IkgTYKqDg1vazrYBWrQluH4LbbkUFqglWUEB3t4JtV0lsBQVf/dStUDW2FUjw1WpXVwyvpYYg0i5WEBXCIzu/M/efnLmZyTwyc2aS/L6fz/Xec+5jbi7OL+eemdyTNXLkGS3iycoy/zXLflnBlTGJZ1uiSE499dPy+c//vfTu3durCWpubpaGhi3S1LTbqyHKfNnenCjj7N37Fzly5KhXatPS0iK7d7/rlYi6BoYtZbTNmzfL0aNtgYtW7ZYtW03gEnUlDFvKaP7WLVu11FUxbCnjoXV77NgxM7FVS10Vw5YyHlq3hw8flqNHj7FVS10Ww5a6hLffbgi0arewVUtdVtivfr37rdrALFtGr7vW1KtIX+mK5ate/DoYEXVnje+84y2F12HYFq78R1PvF2twMmCJqCcYOvRTUcOW3QhERA4wbImIHGDYEhE50Kk+249yR8ve8TfLsRMHmHKb4PosOS6n/X6hDPjzBlMmIuqOUt5ne3BkmRw74SSv1F5LVi957x/my4cjx3k1RETJV37tN+UH//p9r5SZOhW2x0/o7y1FhsDdO/Z78sFZX/VqiIiSa9SoUVJcXOyVMlNI2IZ8X7zluK+ivezmg8EFbBuOt//xPgPlr6O/I8f6DTFlIqJk+ulPfyZ3LV7ilZLjkosvlmnTLpfs7OR8tBXSZwvojzV9tgGFK7+MCrNs0z7bPV+qkn7FJfLg5JMkO6vthEK+XxtYXtXQLKvebpaCVZdJLw3oTsJvsuXL7vVKIrt375byipmt9ff827/Lc889561NjWef+Y23FPTyyy/LbZVVXim9/Of2xBNPygMrVnil2Oi1nDX7Btm2bZtXmxyZfO2oZzv11FNlypRLZPy4YPfn+g0bZN2638jevXtNORwn37Pt01ukbFhOMFDDTL2zs2TEgOT8ZlB2oE6++BIzvfjiS95atxBieg6ZFhZ6bgjLr33tn2TSpEneGjdqqlfIdTNneqX2MvnaUc/Up08f+caVV5ig3RAI2V899ZRZ/va3viWDBg3ytkpM0lKwLLd32zSsbTq1X/uWcWfl5+ebud1yjbfV1pOgVYqW/4i8PK8mNtgPQZjsVi1RsuFWPycnxyslBmE6b95cOfvss+XJX/5Sah78ufzqV0/JiupqGTEiT2794Xw5/fTTva3j16mwbe2zDWg8cLx1eu+d7fLXrX8y03+tf1X+e/06OeVPv/C27DwNWf+tqA3BgvWYbl/Q1mpC607rMWnLC9vodmg5Y522BLGNfYxoIr2G1uNYmAPm9vZY5y8nU7hziHS+eh0wB/92SrfTCWW0aocNG2Za1FiOVaRzCXfemNvbp/raUeb6/vf+pdP/3ldeMUNyA//P3n//A/LrXz9tWrn9+/eXurp6ufuee8zyzIpyb+v4dSps7W8jvBMIWZ2eqv6xvPbkT2TH86tke+0q+VTj7+Wyfjtk/Pmfl9LSksBviRHeXolDiwv0jeV3wQVjzDboahg9erQJAEz4eoh2P9i317t2NUlubq7Zd8L48WZeWjLWzHEsrA8H++s54DgdvYbCsfT8Advb54rX9Z97Z+C1EXwvrF/v1bSdQyznC7odtsGEPlb9nxtdOnaXBaD/HK1p1GM5nK5w7ahr6N9/gPTr188rJeZn/3m/3HpbpWx68UXTyp1z4w9kfqCli7HwNm9+WyqrqmTp3fd4W8ev090IB4+0yMMNh0O6EQYO6Gc6mMeVlUlxUbGZis4sMhPqvnjuud7enYM3lb7x/IG75tHHzHznzp1mjq4HhCgCQFvG9u01ggiBhDfn8OG5JiQ0fP1BZbP7HXHcjl5D+Y+FYAA915WrHjZzLfvhHDWk/D+3TcNMA8zuDtBziOV8QX8B6WsiyHB9NAi1Gwf726/TkXRcO+qelt59d6f7/Y8fP27+f0NXwby5c01mnHzyyWa5oKDAPFf50KFD3tbx63TYvn+oRb7z24/k288Hp+o3D8tf931g1r38yiuBJnidmerr6830xhtvmnGkkklbU/7WWDz0jY0LjCBBeCBkcRuL+lgDxAWci4YUpkj8YdZZuA7260ZqsRK59vHHH8v+/fu9UuLQkEFrdtCggbJkyVL50R0LTT1aueeee45ZTlTSPiBT3/1CH8k97dNmGcH1la9+xUyXfeUyM+XlDTfrOgOhagerfmAWrTWjrVfdFxfWbrXiGw3Tp11ubpEBc3QhxPNNh2ivkWliPd93GhvbbYdlveZ2Py+mRHS1a0fdy3nnnSc3zblRjhw5Igtu/5E0bNliGhhoMe/bt09mXX+9XHjhl7yt45f0sL322YPSsD34Bnzttddk8eIlIdMbb75p1nUWbo31lhbLaN1Ga31iPW47dV/9+pjup4FSV7/JlNE/iDLqYxXtNTJNrOeLljFayvZ2CFrdX7ssUK/wSwr1sX5A1tWuHWUO3O4PHTrUKyVmyJCTpTHwXq9acLvs2bPHqxXTYkYL96233gpsk/gfZrX7owbYYx5EkyUFK78c+gcKHq3bW3qjHBg10SwHas0+MHzdjVJ5zWSpra0NBO7rIcfAB2SDBw2Wp9eu9WooU6FlicCL5RcZUTrdfvsCGXrKKfLd62d5NW6l/I8a+u5+VbKOHvFK1N3oh2IMWsp0+z/4ICl9tqnUqZZtR26++SYpLirySqH7PPnkL9myzXC4jQfcxifjwzWi7iyWlm3KwtYW7/ZERF0JxyAjIsoQDFsiIgcYtkREDoTtsx2eN1yawjwLINa+V/bRElFPkjdiBPtsiYgyAcOWiMiBQNi260WIOPRYS5QxyYiIKDy2bImIHGDYEhE5wLAlInKAYUtE5ADDlojIAYYtEZEDDFsiIgechO2UKVOkvh6DPganaDZtqpfi4rZn4SYLjmtPs2e7fap70w2xj2VGRN1LysO2qOhMmTdvrpSUlJqpoqJCpk6d6q1NvmhBXV5eLmPHlphp2bLlXm1qHRhzney98mHpu+23Zo4yEfUsKQ/bgoJC2bVrl1cSaWjYImt72CgNA196QIY8c5t8MupCGfDqg6ZMRD1LysN23bp1kpubK7NmXe/VtEELNFr3Araxb/1tjz66prUerWVdX1NTI0uXLjHLsfC/ht3yRhnH0mPrentbdEdoOVzXxJFTCkyLNvfeMfL+xXeYMhH1LE76bMvKxklJSYkJVDvIqqurTbcCuhcWLbozbCAjOPXWf+HCRa1hhqCtq6tr7RJAaxlzwPZz5txklv1wPDsotQ7Hxv7Yd/78eSFdERjeWI8NV199lSljH2wLWp4xY4Yp23L27TBBC5ijTEQ9i5OwhRkzrjDBiv5bhJyGGQIXIYz6vLw8U6d0Gw1IBBu2Qf3w4cMT6nO1+2wR0Poa2rWBbo76+nrT/aEwJLutsrLSzHUfXa9lO6iJiMBZ2AKCbPXq1TJ+/DivRlo/OMN00003e7WhNBwxRWqxEhFlspSHLb72hW8kqNLSUnNbjuCFcF0HSrfx94OiHh+6JeOrW/oa2qWAVim6PLSVSkSUDE4+IFuxYoXU1W003QUI2uXL7zPr0K2APk79gGzJksWm3obbfmyj/az6wde0adND6jUs0QUQ7wdk2k+L42gfMRFRMmWNHJnfEph5xaDc4cNld1P7McgglvHFOAYZEfUkHIOMiChDMGyJiBxg2BIROcCwJSJygGFLROQAw5aIyAGGLRGRAyn/nu0Xz297gAu/f0tEmeQPL0cfzCAWsXzP1knY/vGV0EcjEhGl23mjS52GLbsRiIgcYNgSETnAsCUiciC7pcVbSqKWVByUiLqlYcOGeUvhRVvfVaStZauPVdSpuLjYWxM77IPHIiaybzT66EadkvHs3ERdeunU1kdG+s8rE66b/5zSea2oayksLJRHHlklEyZM8GpCoR7rsV1Xl9ZuhIqKmWaEBozeUFUVHGomHg0NDWb0BswTES1wyssrWkeIcDXseThXXXWVVFfXeKW288J1W7CgyquNXSquW6ZcK+patm/fLvfd95PA/8eV7QIXZdRjPbbr6jKizxYPE8eYYslqaXUnuCbBkS3aByNCjdeNurrHHnu8XeDaQYv1sejfv7/k5OR4pTaow7p0y8gPyNBysocPR5hgWSfcViuUNWz829nsYc+xv66vqamOa1SHaOdin7eut7fFLbaW7dtt//mpiRMvkvXr13uljmHfTLpuqbpW1P3YgXvDDbPjDlqYfPHFMm36jJDAxTLqsC7dMiJsMQ4ZxhSzW2/28OF4Yy9apEONY4ReDDXevjWH7fR2FtvrG9Q/7PnTT9vDnld0MOx5dcibX+s6Ohf/sOfoAkAZ+2Bb0LIOe45j636YcH4K29hlG36+TLlurq4VdV8I1meffU4uv/zrZh5P0MKzzzwj/fr2bQ1cDVrUYV26pTVsq6tXmA/H8EaaHrgottra581c35waOAgWjDNWWFhgykq30zc93qzBYc+LOzHseVs/JF4/lnPR81aVlcE+Vd1H12sZx9y+fYcZZNLfekNooV/WT39GXDeMxWZL13Vzda2o+0LXweTJk2Tjxjoz9/fhRnPw4EF55JGHWwNXgxZ1WJduGfEBGaZk0Tc8pq4y7DmCCOcLdssQLT1/IIEdbMmix8PE4eLJNbuPdu7cee36cGNlB24mBS1kZJ+tDUEEGkBo3aAVqK0dpdv5W4eoT96w57GdS6LQikRLNj8/3xwbt9n6mvFK93VL9bWi7iPch2F2H26igZtJQQsZH7ag/X1o9eF2F+VwUI9ba2yHST/A8Q97rgEQHPY8vg/IYj2XeOB89NxwngjdeD4YiyTd1y0V14q6F3x/NtKHYXbgxvs9W4RsJgUtZI0Ykd8SfEhX25O6gk/92hVYav+Er1gfk6jbpfqpX3gjJ/N2OlPgwyl/f2wyddfrRl3POeecI6+//rpXai/a+kTxqV9xQEsLt7rdUSqDtjtfN+p6ogVpKoI2Hbpk2KL/Dy0z3KLqJ9gUHa8bUfp0+W4EIqJEsBuBiKgbYtgSETngpBtBxbovEZELTgd8THXYEhF1d+yzJSLKEAxbIiIHUha2HIeMiKgNW7ZERA4wbImIHGDYEhE5wLAlInKAYUtE5ADDlojIAYYtEZEDTsN2yZLFZiIi6mmchW1R0ZlmaOzgMNlFXm3Xggdvd9VzJ6L0MmEbzx97JfqXYRdddJEZKLCurs4sExH1JM5atqWlpVJbWyvPP/+8WbbV19eZ7gXMAa1HtCIxYShtu0Xpb136102d2jZSLZZ1f0z2sNz2a2BSup3W6z66TU1NTeuoshiUUbfDaxERReIkbNGFAFu2bJWGhi1m2Q5MaGxslJKSYAgj0BYuXJTQ6K9XX32V2Q/7z58/z9RpGcNyK7xGeXl56zo7iNHV4d9HzwX7zJlzkwlXnDPqMa1du9asJyIKx0nYotsA3QcKywgtG1q8gBDGyK8aXsuWLTfzWFVWVpq57o/WNGgZx9egR+CiVYpQRsCq6upqM7f38duxY3vgl0NJSEgTEUXiJGynT59uprq6jaarAK1FBFW6aasUE1qr8UALHfsBuxGIKJqUh+2UKVOkqalJysrGSWlpmekqwITWa7iAQojhWwu6zt9yxH4FBYVmOdGA066MZLRK0fJevXq1nHFGvldDRNReysN2/PhxIV0ICnVYF472t+qHUraHHlrZum7ChPFebfzQjYEWNo6DST/06gi+TaEfkCHodV8cJ97uDiLqWcwYZGbBGjOsozHIwOU4ZOgvRcDpLTsRUabpFmOQVVRUmK4DIqKuLCNbtvj+KvptFVu1RJTJYh7K3CyYXAyGI8K2KdCajBSWqQ5bIqKuhEOZExFlCIYtEZEDDFsiIgcYtkREDqT8A7Ivnt/+mwT84IyIMsEfXm7/B1eJyIhvIyBs//hK+78EIyJKp/NGlzoNW3YjEBE5wLAlInKAYUtE5ECEsDXduNY8MYmOV0ZE1N2wZUtE3crXv/41eeyxNSET6tLNedhOmXKJbNy43kzXX/9dr7ZNUVGR1NVtMPNUmjXrelm8+C6vFAr1WB9OoueHfezJPn4ix0z0PIi6u8cff0Iuv3x664RyJnAetrfccrPMnPnPUlY2XqZPn9YuLLZs2SKlpePMHFIRKDheSclYufnmW7yaUKjH+nCv6z+/eFRUXGf2xYSfXcM+1mPa16Iz50FE7jkN2zPPPNM8m1YDor5+kxQWFphllyZOvMi8dkdWrXpYysuv9UrJh+BFoBNRz+A0bLdu3Wrm2jpD2Kxdu84s27QFhzlUVz/Q2grUep0UlqdOndJaj2XcqmvZvm3H69bWBkfzhdWrHw7ZD7Zv3yF5eW3P1LVhO/0Z9Ni6f6TuBz/8wgmOwxZ8PfuY4D8nzMG+FvY+/uuixwWUI50jjqX1elzQMuY4F/t4WEYdEcXOeTfCggU/khUr7jd9tnfdtdirDQ+3yYBWoN7yI2z0dvzOO0P7Vr/xjStb6+fODW6vZdy2KzyYXFvXCI7Gxl1mO0wa/lhvP8C8I9gu3OskCkGGlrd9TpiDfS1suC54fWyHbfDz2+Ed6RxxLH0df9cJfhmgHq38cePaxovDMuqI0g0ffEX78At9tpnQb+u8G6Gy8lbTXxucykJaTNFoECBY0OJCoNiBWFV1u5lrYGrrVct2kCi0YBEy4VqkCJtw+/jV1Dxo5h29TiR4fRv2xc+0fPl9Xk10+nr2Lwp/F02kc8T115atn3397C4PtPj1OEQUG6dhi77STZte9EoSaN1uNIEbL22JYYr0IVesEEw4DiBw7PBH6GkLONk0VFN1/FjgHPALS69lR2O9rVnzqPmFhClafzcRtec0bHfu3Cljx17glcQEbUdvcD8NpnCt0HiEa7GiJYlAyc/PN2Wsj+fc4qW3/X74GfG68fyMel30FwXOPVJ/uA0tX/0ZNfwjQSsXx8Rk93cTUWxaw9bFH3utW/cb07LV79nCfff9xMwjQSvK/lAI/ZHoc9RbX/tDnVjhmGhlg30bjePq7TuCCH25yaTdH5jwc0QKwxkzrgz5GTVE/dfCpv202B7boByNvj72qaq6rcNfLgh0XA9M6WyNE/n5/4ghE/6AIZzWRyyCPjoxd3iuNO1qCnnsoi2e59HiMWaZ9ohFtOIQLgi1SPAhFfqAGSxtEPIbNmxgfy11C3zEogMIULQSI7WKUc8WXCj8guIHY0SJ65EtW4oPWvnoz0XXBH8BUXfBli1lHHS34NsKDFqixDFsiYgcYNgSETngpM/WL579iYhSJS2j60IqwpbBSkTdHT8gIyLKEAxbIiIHGLZERA4wbImIHGDYEhE5wLAlInKAYUtE5ADDlojIAYYtEZEDDFsiIgechu3q1Y9IXd1GM61Zs9qrTY7i4iLZtKnezLuaSOc9depUs+7RR9eYclf9+WKVqn/Dphte8paI0scXtsHHJOh4ZJHGJWuJY8AybFtUdKZs3LhBVq5cJaWlZWaqqqoyYdIZ9huzoWGLjB1bYubdxfz582ThwkUybdp0r6b7SeW/4YEx18neKx+Wvtt+a+YoE6WLk5YtghUjya5b1zakCt5Qa9eu9UoUyY4d270litfAlx6QIc/cJp+MulAGvPqgKROlS8rDFq2W3NzckKD1wzb19XWtk93iRctn9uxZZq7LWg81NTWydOkSs2y3kiLtB/Z2YJcx130w+eG1/Odn76vn4j+Ofx9sh7mffx1+PvvcVaTjx3p+Nv+xAF0X+ro4nnZlQLjtFbbTej0PLOs5gJZ130j/hv7X8f9ckf591ZFTCkyLNvfeMfL+xXeYMlG6OGnZNjU1eUvhVVdXy6JFd0pJSalUVFTIvHlzQ96ceXl55vYSt9QzZswwdShDeXm5zJlzk1n2C7dfNHjj45i6n/9N/MIL62XChPFmGW9+DP89ceJEU8a8sbHRLOM42B/HwfHQJWD/TNhOfwaFoMI++Hnsn2/ZsuVm2Rbp+LGeny3cz4yuC71mOLbdlRHpGuH86+rqTD2maHcu2AZwrHD/htGuYbR/35x9O0zQAuYoE6WLk7BFyzYSffPoGxPdC/X19VJQUGjKgDAG3cZ+w3Uk3v10Pd7kaC3hzY03tA239VqHUHvooZVSWhp8QDrmtbW1Mf1M2M62YMECE1TRAgo6On4s52fr6GdGiKEOcxVpe9RjUMhwvxgSEcs1TPT/C6J0SHnY4k2Clu2UKVO8msynLTNM/hYXfh7AGxsh43+j6/pEaMh1RqLn19HPHE682xP1dE5atvgWwty5t4QELt78uM3VN7/2x6G+pCT6LWhn4NZaW0h2P6CeS7j+PxtaoNoS1TK6P7ScyM9UWVlp5tFeG6IdP9r52Tr6mdFqRZhiriJtj3pc13DHiXS9O5LINSTKZE7CFh+OzZw50/TF1nnfs8U3FPSNo/20+HAMt4YoxwK3lbidDfehT0dwa40AwW2w9m8q9A2i/w/rMIU7Nm7Fccust+SYIwjsW3TtY8QxcI4oR4MWIm717Q+jIuno+LGcny3cz4xzWL06+F1ozO1zCrc9aD+v1mtQdnS9O/o37OhnJOpqfGOQmf/KsNxc2e19qBVpDDGOQ0ZEFMQxyIiIMgTDlojIAYYtEZEDDFsiIgcYtkREDjBsiYgcYNgSETng/nu22TlyZOjn5NjgM+TYgGFyfGCetOT081baOvfd3KwjH0v2wT3S68A7galRev/fm6aOiCjZYvmerdOwPTLsAmkeVirHBuXjZaKI/fix6LV/p5zQVCc5uzd5NUREyZFRf9RwqPAyOfR3VwaDNg3wup989io5FJhasth7QkRuOUmdwyMnS3P+pIwIueZhY6V55CSvRETkRiD92sYTCz+0WNjKmMchOzb0LGkeHnyeaojYdo/bZwafKEtnFMvv5p0vG344Wu69+iwZddpJ3tqg5twyOTr0s16JiCj1Ut7UPPKZMdLSZ4hXSq0vjBgo628dI9eUDZPP5Q6Q4s/0l+ljTpffzT1fJp091NsqkPN9h8jhguiP+rv00qny4kubWqfZN8z21hARxSelYdtywkA5OqTYK6XWiTnZct81Z8mgvr29mjZYd+9VoeuO9/u0Ob9IELTzfzhfrv1muVwwZqyZyspKGbhElJCUhu3x/qdLS07oLXyqXPTZoe26C2xD+udIaVFbCxvndSxwfpFcfc3VsvCOhdLQ0ODViNx2a6VccUVsY5kREdlSG7Ynneotpd7JJ7Vv0fqdNay/txR0/KTTvKVQxcXF5uHbTz8dOioAghejDmA9aNcCuxmIKJqU99m68rePjnpLkW3efdBbig6hGklhYduQ2CPy8kwXA1rBbPUSUSQpDdvsj/Z6S6n3wtv75N0PDnul9j46fExe/d8PvFJQ9kfveUvtoWUbyfbtbUNir1gRHOFVW8Ha6iUisqU2bA/ukawjH3ml1EKY/uuqt+Xo8fDfKbv1ia3ylwPNXknMefUKnF842l2AD8ls2r1g9+MSEcUipWGb1XzAPJvAld9t3ieT7nrVzPd/ctQEcP3Wv8lX/+M1WVX/rrdVUFbzQXN+kTz0i4fMtxFsD/68Rh55JDgIIhFRPFLeZ3tC4+8l69D7Xin1/qfpQ5m+/E8y6gfrJf/7L5igReDasj55X/psedwrhYduAfTD6odfmFBedu8ybwsiothljRgxMnDf3fbQFzw0JvRBNOa/Ztkv1ofRNOdPlsOjLgss+baPuntsx4/XiduekhN3PuOViIg6J2MeRJPz51rJee8PXim9eu1rMK1tIiKXnIRtVstx6fvmg9J380rzqMN0wOv2fWulnPTHH0vWscjfWiAiSoVegwcPrrJv19E1MHDgQPnwQPDDo2R0IwC27fVhk+T85Q3Jbj4QCLxDgajvHeUvzDrXjZB9+G/S6/2tkrPnFemz42mzTESUbIMGD5b9+/d7pfCc9NlCPNsSEXUlGfXwcCKinoxhS0TkAMOWiMgBhi0RkQMMWyIiB7JjHEqMiIg6gS1bIiIHGLZERA4wbImIHGDYEhE5wLAlInKAYUtE5EBWXt7IFvshMfogGl0Ozs1/veXQB8qEe8BMuLpwYt2OiCjTRXsQTdiwtQWL4UMxnrBksFJnjBpVaObbtm03c6Kuht0IREQORA3bjv7CrIV/fkZEFBO2bImIHGDYEhE5wLAlIko5kf8HQt5J9DIisEwAAAAASUVORK5CYII=;" vertex="1" parent="1">
          <mxGeometry x="30" y="580" width="244.12" height="140" as="geometry" />
        </mxCell>
        <mxCell id="r6c1n6n9SwDsCSJcZzll-11" style="edgeStyle=orthogonalEdgeStyle;rounded=0;orthogonalLoop=1;jettySize=auto;html=1;entryX=0.5;entryY=0;entryDx=0;entryDy=0;" edge="1" parent="1" source="r6c1n6n9SwDsCSJcZzll-6" target="r6c1n6n9SwDsCSJcZzll-9">
          <mxGeometry relative="1" as="geometry" />
        </mxCell>
        <mxCell id="r6c1n6n9SwDsCSJcZzll-6" value="" style="shape=image;verticalLabelPosition=bottom;labelBackgroundColor=default;verticalAlign=top;aspect=fixed;imageAspect=0;image=data:image/png,iVBORw0KGgoAAAANSUhEUgAABFwAAAGeCAYAAACpYRXRAAAAAXNSR0IArs4c6QAAAARnQU1BAACxjwv8YQUAAAAJcEhZcwAADsMAAA7DAcdvqGQAAL5SSURBVHhe7N0LXFRl/j/wD1qt6SrMJOoWhmJCWpqUOoWXMgtI+5l/abuYhratm+b9UnbRLbUtQzHTNtff/lLCW5u4ZqmAmSbqNmpRaRaaqCtekmJQ0+7yP89znjNzZphhZmBQ0M97X2c79xvDOPPh+T4nrN0NN5aBiIiIiIiIiIhCpo76LxERERERERERhYjPFi57Hlmnxion9o071RgRERERERER0cWlwsCl7s/f47KSQjUnMD83ao7f6lsYuBARERERERHRRavCwOX3/92KK9//q5oTmCN3PI/vr05g4EJERERERERENV6jRg1x8uQpNeVdIOt4qjBwufzY52i+Zpya49vRWyfistJDuOKzxTjWfQJOXpPIwIWIiIiIiIjoIvRK+gw1VrHRY8ersfMnsnFjjB0zCvP/+Qb279+v5rpr2bIlhjz6CNJnzUbxt9+quf4FFLgc6j0Ll57+Fs02vqCWwjmvyZZ07L8vUwYuzVePqUTg0g6pk1MRH6EmhdLP8MaUTHyuJnuPmoFOjgw89+ZONcefuzA6vSMcC6ciw9gJEREREREREVU7Ebj4C1MCWedcueGG9njgvj96DV2MsGXZv97GZ58FFzAE9JSiXxs0xi/1rWpKZ8yr88sPiFozHn/Y+De1pDJOIH/heHmzxfDGgRZ4JH0Eequlq2eP9xO2iNBmElLbq0msxStjGbYQERERERERUcVEkCICFRGsiIDFUJWwRagwcBGd5vpy9rLfO5cf/H//i+O3DJfjYn5Vff7mVLzxaQQ6PdxOzSEiIiIiIiIiqh6eoUtVwxYhoBYu58Pnnx4AWnSAaLQiSopG99Ln661ZZsjmR7IJUi+jJCkc8YO0eaPu0tYRJUWuFjLoNcK5/ivpppYw7QfiuckD0fvhSd6XObcxHV9tk6qdk1j/Oe1cXOemLRb7kudARERERERERLWFOXSpatgi1NjAxZfeo1LR8kCGs/zolTU7kTElA/mlqixp9lq1piLCljuAdWr90QsPoOUgUxgTcQM6YaVeyvQpEN9DhSWfZ+I55zafIaLjQBn+SNo2lr1i2VQ8t+MgWrQ2ApZ2iG8B5G/wOAciIiIiIiIiqvHMTyIK9qlEngIKXOqe+Q5nL2uAsjB99R+vuAZldS9D3R9L5XS1OfGts+Nc3V1oHX0Q2wPuPBdo3zgCB96fg9VqWgQp2w9Go7XRKqX0M6xQ+xOtakrDGzuDFdGyRrZwGXQDIiIi0FzNF9t8sEaNr/kaB6Kv0QOc9h3QEgeQz75jiIiIiIiIiGoVcxmRubyosioMXH5T/bFc/s2X+MnaCqVt+uK3+hacbtEVZ+tehkt+cMjlgrFunQr6fQlG7x43AI4iNaW0b4yI0lIcUpPVyXgykt6SZj0OqPnlrcUHn0bIAKd9hxYo3eF6uhIRERERERER1XyefbZ49ulSGQG1cLF+vgyXfn8MxTcPxb4H/oXvbngIv3McQMTO5WqN0BJhx53hrpYnTp9/iv24Af2C6Ez3829L0eIOUwlR+4HoFH0Qe40WKl61Q+NwoPRbdfxe16CFPuaVaBkT0Xog4luU+tkvEREREREREdUkvjrIrWroElhJ0U8nEP3vIWi6dTauyM9Es01puPrdYc6nFIlpEcpUnurwVnVQeyfWY/QUby1FRH8t61HaIdW5rt5h7U7kH4Cp01yTNXPkE4/uVOu/MqgF9i80lRh5pR1H9M1yh9qmNSpo4aIRQVD4DWh5YKOf/RIRERERERFd+Izv7L6GmiKycWOvYYvBHLqIdYMR1u6GG8vUuJs9j6zD7/+7FVe+/1c1JzBH7nge31+dgNg37lRzLgbiSUl9gZVTkcF6IiIiIiIiIqJa46orr8LhI4fVlHeBrOOpwsCl7hkHGhzZruYE5oem1+OXhldeXIGLeBJSx1K84bVVDhERERERERFdbCoMXKri4ghcRMuWVMRHHMS6sf7KlIiIiIiIiIjoYuEzcCEiIiIiIiIiosoJqNNcIiIiIiIiIiIKHAMXIiIiIiIiIqIQY+BCRERERERERBRiDFyIiIiIiIiIiEKMgQsRERERERERUYiFtWrVmk8pIiIiIiIiIiIKIbZwISIiIiIiIiIKMQYuREREREREREQhxsCFiIiIiIiIiCjEGLgQEREREREREYUYAxciIiIiIiIiohBj4EJEREREREREFGIMXIiIiIiIiIiIQoyBCxERERERERFRiDFwISIiIiIiIiIKMQYuREREREREREQhxsCFiIiIiIiIiCjEGLgQEREREREREYUYAxciIiIiIiIiohBj4EJEREREREREFGIMXIiIiIiIiIiIQiywwGXMQmzevEkNCzHGmJ2xCRnGRDUSx3EdfxPenZmolpxn1gfx97Wmc9v4Fp5LUMuC0eJZvFXZbSvieX6bczEvVS2rBcIenIsc7bw3ZYxCfTXv4tAAfWauxPuZ4xFbZzQynD8/bdj0PtYsfx1P3mFR62r36ebRmDNnPLoFc5OufgDT5ryAgbFqukaLxcMzl2Dtho3yHmz64D3MDfB1XKl7E4iwB/D3HPHzWIjRF8mLM+6JN/H+qjTcfXH9MhIRERERVZr/wCUpDe+mAFldu6OrGKYWI+ochCye9mWp42vD/4zLVXNrgF+P4v0n9PPqM78YtimvI+hM48A03H/b/Xhuq5oOhghr3q/gmKbz69o1EY9lqPk1Xhgevf1a4HgxfmgZjyG19Ete/Kj5WPn+PzFaTQciLGEiUjv9hu2vzcAeNe/Ep29g1KjRGJW+Cvt+a4nez72F+Y/qN+Xq7jehXbub0KOC8CTsjy9i+Zq38XKSmu7cGfHaNjffok/XXGFImPYCHu1UH4VLn9fuwRik536D3xqKRfdi+vL3kPWy7wA2kHtTGWGP3o5rUYzjP7RAfC19cXq+JvwpSHsd23/rhMFP3azmEBERERFRRfwHLm0jYdn3KWapSeRMwDjnBJmVZG/B/h+saBnqliq1WJ3kl/HWW2n4c2dXi4yAhP0JnVv9gq//9Tb2aV9qO49qrhbUJmFocnVTNK53iZoORBgSU9ojsmgb/v6RmqU5+9MRfPzxJ/h45asYcf8orCu6DG3vmogO2rKDLw/Ebbc9iCmf6ut6Exb1BzRrdBnqqumy5WPR+7ZkPF4DA7j6NwzGzGWL8aIMAsJga94UdY59gtnzN2j34GOsfOlPGDVXLIpCs2aNcJlxUV4Ecm+CF4ZHO8fgl6//hbf3/YCWnUegVr46PV4T4p+DMW+swhsT78JV3jKksv9g3rYiRHZIQYAZDRERERHRRc1/4DLrU+xr1a+CMh5TyUOG+e/47qUQxvZJM98x7Uus8w5mGp/exywMrlxItL4xHcNV3iT2uxAztWNtlvtPxMx3tf+OMdbXj+kqVXKVSYVKi0lL8f7/pcmSno1v/xUigxHzjHN1Kz/yaKViXs/YVhLrmbf/f9r0okRcVe86/HnzB3j7ucCbK/g6F2v/uXj37TS8+pY2X5yTOrcxxvpinqlUye38vDibtwhZX1rR9+UsvPfGZPyxfWCtARo8ZkOrX/Yhb9lb+GDPGUS166++1IbJ19DmzW8h44212Kj97EajPrpNylAlJx/gvXn/i7e1c5MvR1WS43xdmafDkrTXhXYdGS/gqUXZ2LR5I3Lf+iv+p8/LWGHs67U/qeNqx3ji/7BKzt+ID1a9juHiWox9LEpH2or12j60e/Le63gsVpznSkyyiaApBveq82nwP1OxbK2+3uZNWXixh9y5SQd0a2FB8b4cHFJzyivAm18cBZpejduc90PcB0E/z5Xvf6DOcwb+qP1ebUqJ0ZZZYJukX3sdWSbo+t2LfXgGlmWLbbTz2rgGS2cOgGwUYtyv19Pwhlwu7tEUVVYSj1H/XIH3N6rXQvZiTBULjHvy9kJ9m4xRiH5qkXbNS/GMkUxEP4Nlm9/H/z3mej3Uj+qFiW+8izWz/x8i97+PpXli7lms+Phr/HjlbUh/4wncYZWr6ue1qR9aaaMW27PY/G4aktS5rl70hvz5ies03xvjml+f+X/IFue8KRtvTe2tytVi8fCcf+nXIubPfxOrze9NZg2G4GYRBua9hWUf7MGZqHYYoK4rLGmGfI95O0M/hviZ1+/2DN5UP3Px2vi/t7VjaPfE9frTxvWNTdN19Pend+fi2VdWaK9zse1cPNpttOnn8Fdn8FG/23i8sUo/xqYP3sG84e216zL28XfMlL8r2rLcpfJnJO6F52tC3OuMJe/jdPwoLF65FK+O6gnjdhsO5uxHsaUFuoqkj4iIiIiIKhRAHy6vILXrNOyJ1b7UaB/YPftsaZXSAZ/KcpUV2Neqh/qCIr749AOcZUD69mLbnCIHLI3bym0xpgOsDu2rTqL+ZXhMhxiUFHkvF2qVon1x0I7vPAcRtkyKxZ6pxjFWACnmL0gx2leo17T592BcjpjWvljcDswV62Y55JeMDp/q22bti8HtxhfyKmjxeB+0/XE3clVpUL1WV+O4dn63/fF5HJm0FItuLcX/ynP1XX4kgpB/XrVWXVNfzC++EWNEkCJCjte7w/G/+vZdRQnSv6fh/gG5OPzjF9p+b8cfn/uP2ovJJX/AHS+re6eCFXGMis7lkj/cgMvWaMvuGArZAKLedegtz6kv/r7navx5RV95XV37vI7dv++ChyuqoTr9Of713J/Qu/dovPnfaAzSvjyumDcOXV3fs71ogIc7tsQvX+dhGcqQ9eFety+1uitQp+BJ9Oo6CLOTpuCJpKtwYvN03N9nIF4v/j0aq7UCctVVOPvqnzBi1QHUuaoHJjx6Gd4a8BBmfXIKETckY4j25bLBn1/BXxPrIm9UL3RNHInck7G4b6KpZUOzJjj9z4fR/7kt+K7Rdej16K3IGdcXU+3aCxyFWK7d59TZPfDcn29F46Jl6CvuffcUPLVB39wpLA7W35/FyW8qbpJx6Puf1Jg7eZ59muPM5lcw6AFxng1x1axB6J5VqC11wK793DxL8sKSXsaMRzui/pf/h0F9+mLc0kI06PQonnvKdcPDr7ocH00eiMeX7cXZq7oj5REx9zt8nbMQj/XTriVpMrb90By3pgyW60tXhKHgibvRNXU2Di7ZhaKzV6Hdw/o+b/xzB0Sd+gJr5p0RaQGGz1mKlW8+hrbfrMDIXn3w8FML8Lm2SDj46nA8v2o/wmLuxnMrVUhyVntf6q6952jLHfZp6Po/EyB/zTXh4SexKOU27TrXqTlm4biq3keYPGA4lu09i6tu7QdxKdFjnsbg+N9h75Jx6NN3Mj74LVxb07sGD3dESxkGAmVZm7D3TBTaub84cUWdAjzRS/zMkzD1iSREndiMl+7viwGvF6NBMC/O8Chc8Z8RGDBrB042ao+H/9oB+8TP4b3/4tKruiHlT9o6DR7F7L8mom7eGCR3TcaI3BOIu+8JOBuFhV+Jeh9NxoDH38Je7WcgfkZnfbwmSt4XLaiS0e/l/yAsYQKWv5eBFwe2lsuk/OM4dfb3sF6rpomIiIiIyKfAOs1FLsb9j/hyLkIN99BlX9YgVW70Cj7dZ4HMUrQvv9Z9K5DqLD3Stv+gEK06jFYtZjrIFiVjOliw54M90DdKRJS1EJ/6KFcy9+Ei99s2ErC/psIU4RUssbvCG/El9wO3L5baF4u56kvZ7mI4HHYsUcfa/a34Ulxe7Ig3sE6FPJvffRl3qPluTIGGCDEW/PF5GF2x/PjVatUvixUJf7gMuzJVgKEpWTIDW79rhVvcwgqxXiPUu/5RFS6txLD2FliatYY1uQuaf78FbwZbAmLuw0X2E+P/XH496nGcH79A5mNvaiMl2Hr0pOu6Sv4DbTIwp4tw8Og3KPnhEvy+SRTirlDzvWnwZ9zc+jI0uOFxeR/yRsfj93Wuxg3qy7quCB9P/xxnEIbb7rgGlp/3Yd2ktThcchir/2rHf9VaATmcj+nbDuOzGZ/isPYrUfzZQrx1+DBWrN6rvWouQ/2mYfhTl1jUqxeDe/6ejc25c3F3i0tRp2FjqOhQ28d2PLfmMIrWb8SBE8DvI0TrAQ9l27Dn6BlcFpeCf86bjIe8lVmFNUODBidQsldN+9DhigbA2d/wq5rWhaF/51ao981HePm5Vfi66HNMz8zCl2qpd+L+xcL6awHeGbMYX5eUwP6Pl7H9SB1cfW0/tQ5wYu8qzBf36O9f4BvtHjVqKpo4fIuTLe/AtDfWIuedyUjQfiXr1DGVTx36BNOdqckc5O39BVHtBqI54tGvTVMc/3QpssSyyDi0vsqCS844UHzsvyhSm7icQd7Lf0LvfuORuf0ErugxAf80hUGeHHvWYEWJmijnBPau+l9s0+7N33cd1064EZp2CMM9N7TApd98hn/M346Skm2Yv1L87L1pgCE3t8ZlDdpjuPgdzRuF+N9r9+oGcV0uhz5+WQZGYbf1RGvLz/h63V+x5nAJilY/B3swL84Te5H9lva6WpGDvdrr6tfCTXhB/Bxe/kR7jV+G3zXUjvGnBMTVq4dW98xF7uZsvHa3di11Gupvq2ofq7TrKvrsdez6RlxyU1mKVpEfv/oah0u/x6/1LbgqqqWaK+zBdyca4PfN1CQREREREfkUYOBieAWpWSo4qTQRzMSgw5hERGkf3nNnrcMeaweMSboTsSWmvmJqgD1zHsGdKuTp+j9P4H0134050DBahFTJrzj6/pPOcEkMdzz2Jhq1ugKXf7ffGebUGtoX0/ueex0r1i3H1CQLds1NRd9+Y/B/vutl0GBIB7T8dS9Wik5i5TAGS3efVl/Wy7usThjwyy84raZx+SWufinKvsfPv6jxAH3/nY/WJd9sxHDTz8XcqsLTZeKbcDmn8b9/6Y8J/9iKI1Yb/jJjKeapjm+d5PmGw2pqVFBOg//Bwzc0xc97t+ENNctw+aXalf/yI75T02U5uT7P0Y35/ilnz7rHOWaX1W+CsEEz8dc+0fhm6aP4f3fcgSzR3MSn05i3dhe+j2qH1KR+aNP0G3zxluqk5uA/MapfMu595WNcljABKz54B288dy/KVZ+VbMM/xk3Ah0XuYVDV6IFa3TDtrdB03/C7Ot7fHBv8GR1a/oo9K43XpjYs3Y3T2nW55YGGy+ogDL/gF9eLE+JHJJUdxw8/q/EAnT5VpMY8fYMNw02vTWfLPi8uuxxN1agn6x0jMTPzXaxZ9BjaluTg2Xv74OEXzcF1LK4IP43vj6lJIiIiIiLyyX/gMmahW4uWpKgAOj/NOYySVv1M2yVi5u0x2PfpK3Jq1qeFsHboj8bfrtO+DOYid48Ftw+PRYlaHpDdxYDtcVMJ0Wj0twF7cr2XJJ1fomXIz7h+oKtsx9p/PBKu2If/uCU0Yr0z+EPXh8uVGh3I/ALfXT8gBI91DvRcQqNOtwFIafMzPpyegsR+QzF97WGUa8Dg5mqM7NQCOPQ5/i46iZXDx/j79kP4JSpelve4K0PuziP4sUEs+jx3F6666hoMeKGrthfDPpSeAsKje6DXVVfB9kQHXKWWBK4M7xQU4WzTmzHmyU6woj6iek/Gq8/5K0Mrw1el4mrr4QpnelAC++IpGD50HfafrY8rYzur+UrZx/imxGhB4lLnd1fipptuxE19R2LOwhHoeHkhVk3/h8e9VOcZdRumP9cH12jX2/u5J+XPuezY9ziNy/D7qzx/f8uw8f2v4WhwPfrPegjXWK2w/eUJdLryR+z7ZJVax7swy+Xalf2Ak186UM82ETe5brpXZVnLkF+s/QyGt0fkf3dgvkeu5Sxn+dt6nL72/+HBbmJuGEbOzsTMUX3k9d/+l9Ho0BQ4fsQuLgqnTwOX/f6qcn2NBOcsPjxwDGev7IyJQzrhqqgueDLleq8lRdEjO6IlivD5343Xpjb8fQf++8tVuLH8ixNluTtx5McGiOszWb7+rhkwFV2d9+lTHD91Fmh6HUZ1vgpR9yehta86pgqUvbMHRWeb4pYxT6CzdiNEXzjPverq38WX8q+JOkjtfwcs+zJUWdf/YptnS6H4JmhY53uUfKWmiYiIiIjIJ/+By6wl+PZ2VVajDZNi92Bqqr9g5BWkTrXD6ux35VnE7pnmKjGa9SlKWlnwrQpHcnL3ABaHz3Iir3Im4H9UXyz6MUSfMRX8Vfc8OzD1cb3/E3UfVw2JhH1y+RYxnutt3pyrhywHpmHo3/cg+s9qvtHR7YFF2PVdcJ3mBnouoXA2+wncf/8ozH7fe4FGOdH90S6qDor/+6FbmFC2ZA8Ooynapnj5UrtwFt7MP4k/3P4U3lr8Knp/X+gqKSrbgLnvfo7SK27B00sz8EyLX3yUilTs4ItT8E/7t2h610ys2rwGbz5+PcqKKi7WEQ7+y46vzzRDj7+vwYIRPfDCCtUx7b/vRuTRjZj/3Ea1puFT5B1wILJVkltrnvAOj2D27Fcwa2Qi/vDd+3juvkF4Rfu18XTwxZGYnfctLLeOxcK3FmPcjZGy5UrZqhx8/u3vcN0j72DVy7fpKytlOZPx7Ftf4my7P2HhqpVIu785StfNxuNzKmiGpDk7Pwv/OR6JW7VrW/5EOIoPqwW+iKfcfHIYFksD7N00x2enwDJ4eeAhPKV+l4/++Du07TtWXv+UB69H3f2rMGvqR9r+3kX259/id9cNxqpV01Gu/+EgfDJ9DtYd0O7PwzOx9M0n0OLI187XSdiDc5GzaRGeuvpq9G8XhTrF/8VGtxfnUuzVrr1p237lS3XKMjDzzXyc/MPtePqtTMztfRr7XC9OzFm6EUW4Bn9Mz8Q/72mAk6fUomAcfAnP/XMbvm2ajPRVm5D95jBcX1aE3WqxL+VfE2cx65E+eOS55c7+czxFJ7VEpOMANof0qU9ERERERBemsFatWpepcTpfxJOA/nkV1oSkJIlw41RkvdoNJ5fdhsHi8cG1TFjCVCx/qS32PJGCp0yPhr4QRE9aisU9TmLB7X/B/6l5NVHYn+fjg9Qm2D6pL5b1fBuvXpOPBx/4WwVPjgpUPKZlzUb3k2+h++DX1LxaIuwWvLjiRbTc8Wc88IKfToaIiIiIiCjYPlyoOrQYeB2u+Po/DFsqK2wEZi94EvdcY4H1mnvw3Hgbmv58AJ+9o5bXMmVbX0LG9rro9Ph4/dHMFwQrrrl9CCZ2/gNKdmTVuLAlLOk5zJv5Z3S5yoqorkMw939icaljL9ZvCEPXqEh8s3dNJcMWURL1f5h4zzWwWq9B3+fG4eamP2P/ZxWXa9VEcROGolNdOxYwbCEiIiIiCghbuJxH1v5zsXhYezQUHe8+LZ4gpBZQcMLuRfq/h+DGxvVwCc7i55KD2LRwNJ5bUZniIaoOdcYsxKaUq/H9vvfxwtC/Ic9Hycp5E/8EMv6WhJYNL0Ud/Irvj+3Ee1OewlxftTUBC8Mf07Pwlxsbo94lwNmfHTiwaSFGP/dv+HyQEhERERERXRAYuBARERERERERhRhLioiIiIiIiIiIQoyBCxERERERERFRiDFwISIiIiIiIiIKMQYuREREREREREQhxsCFiIiIiIiIiCjEGLgQEREREREREYUYAxciIiIiIiIiohBj4EJEREREREREFGIMXIiIiIiIiIiIQoyBCxERERERERFRiDFwISIiIiIiIiIKMQYuREREREREREQhxsCFiIiIiIiIiCjEGLgQEREREREREYUYAxciIiIiIiIiohBj4EJEREREREREFGIMXIiIiIiIiIiIQoyBCxERERERERFRiDFwISIiIiIiIiIKMQYuREREREREREQhxsCFiIiIiIiIiCjEGLgQEREREREREYUYAxciIiIiIiIiohALPHC5cQimz/8H5qthYl81/6ISjyHTX8KQG9WkmfP+PIm+Ynz6EHhb7byS56idn5r0qqJzP2fX1RcT5/u4z3KZn2twEuuKn4mvfYXejUNe0n9HtF8QOe7vF6Xvk77XqWgZERERERER1WgBBS7yi+NjFvxnyF8wRA1fNakpgUIFIcg51DfxJjjWiHszHSvVvBrnk/l4siafn9NKvDRkIuZ/ok/1nVi5gO/GITfDsmOe9jNx7at69UViRwfWiN+Rl1Zqt3ui/C8RERERERFdfAIIXIwvke5f1FfOn49z8h2WiIiIiIiIiKiWCWvVqnWZGvdOlDVcW1DhX+pFC4ReMWrC8THmPamHMaJlzP34CPta3YWOFvdlYptrv1oL9LoLctPCta5jiNKVx26C2ERbYAp7RGuWx/R9aQrXzEPJLa5pt31o9OO/hSfn52tTorzkZpTMU60dtOua3iRXXyau0XUB2GGsI7eJQ8kOCzp2hDb/LeD++4G3xHJ1LvgYOxw3oaOxuTiH3CaYLlYz3YfHXCeprkdsb+xLmy3O4RaH6f68hCa5ppYZ8p6IVkbme6G2v9r7+evXXwhHx5sQ43lebvdY3Mu/QN46MV9b5z/7YtBLnbPnMq/X5bz3nj8jta3B7fWkr2v9j2n/icfx5EuQ9/0r7VpR7rV1HIli2RrtpaMWlDuGxu3cjNedr5+zuq598ucofj4FuNbtGGJeLpoY12V6HbuI14p6LWvEOeU2Mb/+fNwXL/dDX0c7vx0OdLSqZW4/L/PvBBEREREREdVEflu43NjEAkfJQTVVngxboH3ZVqVG87Qv6o+Z6j8sHW/WvqGLZfOwAzch0VQaEtNLfKkWy9aiMOZmvSzI+FKv9jdEfOlV++s78TG02idKRPRlL63Mx/wntf06xJdnbZ7Ht+5PjjtgsUbrE33jYHEArTrG65PXxsBx3AhboH2BVcebV4hWj5n7CIlBK+1Ls2dZivNctC/e81/6C9YU6l+iPc9BfvFvVYh5xv7F9ch+UPJx3GGB9Wp9vb7XavdZO1ZHWRrVF9fGOHDc/I3+k/n4T2EMrjVO7MZO2nkVYodYZ+V05z0Zskb7km66yRbt27u8xx7npZcXqW3mfQzLLaYSMctNuEVes1rWq3yfKXqYo9bRhjW4Sy/76ZuIjg7X68HzsPivAw5LE/1Y8hq0n5G6qBtFauXxWltpvrfOkCMGvURIIY6hLYwxn7siynnm7dCOJUqKnGFLBT9n7ZqtX4llRpDhOsa8HRb0mi9elGJ5+dexTpRBaa9jGYZ4XrcRjqlja+vByz0VrynXvXtLe7Ea8Y24rUbJmhgYthAREREREdV0fgMXt9CinHg0sWhfME3fLj+Z/xEKY+KcXyYdO95SQUU+duzT9tVEDzyEwjXGF8eV+KpQhQ9XW2DRvvw+pjrnlS0S5Bd0EUIU4j+ytUCAVhY4z0UEGvv+o31zl9ein/dX2sFFoOQ6D41nsKF9gfY8Zqv7/4FbSuaplgsVu9oK7HjL1BpiZa72hV0PVlZ+VYgYeSDt2rTz+c8+7fTEPbixCSyFBeW+VLvW18MJx3+M/Yov9J73S+fYkevzy7kIy+Q2ouWExQKV/cgWHG8Z11bufuiutmo/p46P6dtrg35Y7WcrApWYuzB9iOvn7OaT7dinrl+/ho+cAYy4V/t2BPLzNb3mxM/YfO4++P05a9ec63ajXMcQvwMo/Mj5OhaTwYmGVTvHjo+p+y1bwljQxC0l8vxdysd88XpV/lviQEyv899XEREREREREQXGfx8u8gu0K0A5J0R5ivxLvhpECwURQjgc+K9aJTAiyBFfqrUvs9oX6B0rtS/7Fu1aRMsKR/lAIzCypqSCECoIRiCkXRv2bcfKHYWytYcMIkQa5MkZIOn96uiruMpy5L2a97F2dv6JsEWERvo9Fi0zgidbnZh+TjKAUi1n3sL9Mlwo39mtCN70lkZXW8U1aD8jhwhg9NBJtti5IOktX1z3y73FlB7KqFEvZAe8otXL/SKwCfQpTURERERERHS++A9cVEsAvQzGoH3Jn2iUxWjLTN+qxZNhYry0zgiYDHhUeZGZbBlxE+731XLCB9EqxHJtIqwl2/GJ/LJvwS33uwIN0XohxlzeceMQ3BKjt37xzoF9b02UJTSBPLL3vyVAx/tN906U3IjwR37Z1lv2XJtoQYlo2SGu0XIz7m9lhCmeViJ3h7b+xDhYnC1XxBd1B0pUEiXCmgq+tyuiNYV2JaKkSugbB1fxisZilDZpfNwP2eLCSymPQQYEotzHs2mM5pMdoqVRIq6F/jpZ+ZUDre6/GZZ94mdUPYL/OYfSQZRovye3VPja1cNB1zra79gtbj8VjSihEyVWesscUdblsyURERERERERnVcBPKVI+yr4kuqbRZWPzBf9WeTq5SwrX5qHHZa71Px/6P2VuHdgERzRQkL0Q+Isv/iH+lIpvmyuhcNUxqLnHXqLCbm+twBkZQEcMSrQ0Mgv+xZToLFyuuqjQx3vsRjsm+e/jwzZt4gIXfy0NhDBwxqHuUQKWGPqcFWEDTHa+egBjH4tlgpa34jzt2jX4yq9ESGMun5t//dbHQG0cNHLVWJ6qXO6VrS/MHE4YJUtKbTBx/0od13zVbmL6CvFmCeu1dtrQQZLMXD+EMTPyOK7nEiWUolzdQv9glTJn3NolH/teruWlS+Z1xG9+Lp+Ks7yL20QfSZV5VeMiIiIiIiIqp//pxQREREREREREVFQAmrhQkREREREREREgWPgQkREREREREQUYgxciIiIiIiIiIhCjIELEREREREREVGIMXAhIiIiIiIiIgoxBi5ERERERERERCHGwIWIiIiIiIiIKMQYuBARERERERERhRgDFyIiIiIiIiKiEGPgQkREREREREQUYgxciIiIiIiIiIhCjIELEREREREREVGIMXAhIiIiIiIiIgoxBi5ERERERERERCHGwIWIiIiIiIiIKMQYuBARERERERERhRgDFyIiIiIiIiKiEGPgQkREREREREQUYgEGLmOxaOsWbF2TjmQ5nYxZa7RpMW/RWDmHiIjOgaR0rBbvvV6GNbP0d2giqoSxmV5+rzIxLkwt14zN1OcvMs8MsXNxDAqd5Fmr5c9rtdv7r/E5eTVmJalZHsLG6a839+2IiOhCU6kWLsmzRsAWoY0UZiFhQLo+k4iIql/OWPRO6IKEhKmwO8SMUtiniOku6DUmW65CRJVXap8qf58SErKwDzFI2aJ9aXb7TlyK4i/K1HjV6QGLe7AT6mNQ9cnO2aP9tABLbCKc2UpyEuLE52RHgbZcn0VERBenSgQuYzFAT1uQxbCFiIiILkjpGPi8HQ5EwDZgLEQekj5QBDG9EbpscyziW6lRJfTHoGqVnYMCmbjEiZxFCruusfaqARx7csG8hYjo4hZ04JK0KAUx2n8LswZipj5LMppU6oP+16Bxi4xmsWol1XySzd6JiEKvXCmCKpEQ77nGe/SaNab36jWzVJmoxqNUie/TRJqcIpSI/8bEY6z2a6X/jqkWL8bvjPY7tcb0+5Tk5fOQbiwynfPF71g6Fm1NgZ63iJY0+u+u2zEEz1KnRXr4I8tWVuvrrjHKvLWBpUjnWjZyZOISgcbXiWntZxgvPimXYk92tsfnY23I9FKKH6ZK91en661kPKe1fRqfqfUhU3s1ERFRbRBc4BJhg038G4JC5JvSFvGPyWQbVLP2LG1pBGwj0/FFfqFcHhOv/7MwTv0DVJDDP9sQEYVauvM9d4z8QmZ86BfvuUZxQkTJenRJ6ILn7doXhIjOGCm+1Ykvjn+1IUyVUizfJ97uR3iUURBdjHbjW1m6V4GIEqzvon3+6TUGZdrnIe1Xyfl5aJ/8PCSCGBG2iHClEFliXVkCOBYD5DqCPn/ATI8yIvG7ea/2e1yYJX9vE5Zrv+MxKdjiDF10Ba9qy2RrHG1xT6O/PTpXjLKiVuLzbtgYyLdeVU6UPaa3/HknJHRFlniLbtXTZ78u3omwZTNSYgqxXOxnyjbtWDG411twQ0RENU5wgUupHXb5eT4GKc7OcpORJAtVtQ8Vk0XqrreAQUQkrpu5GOIzvfjL0DjRbFZ+9i8A8xYiomqQrr3nym9c4q/xqlShdI/be25h/iwZvuRkF8gvZxGRbZGcHAeLGLdNkn89vVf+yT0CkdfxL+V0sWuLxuKXo/Rb+OxSpTAf6XJZMpJj3T8P6b9KjXHduHg5XmpfDM9MpSJJ6nfT+L1Fer4e0Fibu/oLQQmKRN2K0RpHHI+/uueWUVbUSnvvTWoOqzZqLifSW7mI0ERMGS1hAmQEOCJkEa1bJnfW9qCxRpleA0REVFMFXVKUM0C0YNHEpLhKhaRCZMkE3xhEyZHRzDIG8bOi5D9AhevHanOJiCj0spG9R73npgf/nluY1dX0Hu7lr+1EF5uxelCCkkNB9MXhasXi/DzEX6ULnPF514obB8QiQpUTGaVBshX4810wRf4VspIcdjxven9O6D2W/cMQEdUCleg0Nx0DZJtIkblkYpz2j0yRXuCMnq6CY8xS49k5BbKZZYzNpv0D5F6KREREoWW0XBHvuRbxnqv/6d3JWW40QCzXvhrmz0L2Ifkm7laKMHYWyxLoYjcWmaKcRwQoA9OdZXm+ZUP/VdI+D6V7fB76olhvUWZ7yONpRBWXLDl/n9XvrREAlRbkBByk0rmhlxVFICYmwvV0ItXaBfvWY0xOGK6LlG1TyivbjWLxYdkSCdn4xdhOcC6zYYCzcXk6ZrGiiIioVqhE4KKZOVCvQ9U+VKSsSccXA7rIaaM5umhGGydX1GTn6s0shcJ8t452iYgoxHJyscf4AucsdTAR/T+osiHx+FvZiiV9oN43RERnTJbv4dryONYk0MXJ/FmmVek2TAmihYp4wpDeB5LH5yHxOHfZx4reOa5YpndMnY0x68UHKlenuW7Edka/LWJ/qj+X3nyEUc2Tc0gv6dI4y4myx0L+eFulaD/zzehp9dXCJRtj1etAlg2NjNVnS9prpNdUWaLf6l79tbN1sg2N1VIiIqrZwlq1ah3gx4gqEE8nSonRPiOIJupqHhERVQ/xVBPti5koETLKgsSTU/5qi3CbR0RERERE1adyLVyCkoxZPWPEn1KxiGELEVE1M95zt2nvuQxWiIiIiIjOl2oNXPRe2SfBFlGIrF7sLJeIqDqJVizyPdeivef2HsP3XCIiIiKi8+jclBQREREREREREV1EzkFJERERERERERHRxYWBCxERERERERFRiDFwISIiIiIiIiIKMQYuREREREREREQhxsCFiIiIiIiIiCjEGLgQEREREREREYUYAxciIiIiIiIiohALa9WqdZka96rZlVFqjIiIiIiIiIiIDMeOFKmx8vwGLkREREREREREFByWFBERERERERERhRgDFyIiIiIiIiKiEGPgQkREREREREQUYgxciIiIiIiIiIhCLKBOczvauqoxIiI6F3bYN6ux8rr3SFRjRBSMTRty1RhRaPAzMhHRuVXRZ+SaKODApbZdGBFRbeXvPVcELgcP7ldTRBSI6OiWFQYuDDLJl4peN+L9eveuT9RUaJw5fUaNERHVTtWVH9TGXIKBCxFRDcPAhSj0Aglc+HtFnvy9bhi4EBGVx8DFhX24EBERERERERGFGAMXIiIiIiIiIrqg9e7dC//61zK3QcyrTgxciIiIiIhC7OdGUXC0ux9nrrxRzYEcF/N+Dm+u5hARXXysVisGDhyASZOexdy5c+R/xfRVV12p1qgep0+fxt69ezF8+Ag52O121K9fXy2tHnWt1iueU+M+XRl1NY4c/q+aIiKi6uTvPTe6ZSucOFGqpogoEBERFhw8sE9NlcffK/LG3+tGvF8XHz+qptwdu+1p1D+8Aw2Ktqk5wKWntHXrXILjXccivOA9NdfdL7/8osaIiGqnij7LJiTcgvHjx2H//v346KOP8O6776KoqAgNGzbEo4/+CWfPnpWhiDfB5hLDhg1Fp06dnEO7du3QtGkTWK1XoG3btrjmmlZo1qwpWrdu7bbe9u071B6qji1ciIguAIOnZ2DZEjVMfxhhan6Fuo3H/CUv4JGAViYiomD8ZGmJet/uUVMulx/7DD82jlVT50BSGlblfYg857AAo9WiqknEjFUfIkPsLGwUMpz71ee7jqcNq9K0uURU23mW4wRLhC0pKf3w/PNTsGTJUnz88Sc4frwYO3fuwooV/8bEiU/DZrOhb9971BZVU1xcjE6dOqJBgwZyfOfOnVi37n05Loa8vM3Ytm27HBfEusZ4qNTMwGVcJrauSUeyMb5orJwtx7ducRsWjdMX1VzJmLVmNWbJi6mqUO6LiC4U3SbORRLW48H+qXhAG15zNMVgGaIMRFpFgUreDAzp/wze8PusOqKLkAgk501ANzVJFKxLfnDg1waRasrlt/pW1P3phJoKARGo+As0HNswtdut6CaHwXhFza6aXIzvcytSve7MAftU43i3Ytqe1pgUsqCHiM6X++57wDkES5QRDRqUivT0WTh8+IiaCxSN/EiNASUlJUhLm4Feve5CdHS0mlt5b7+9HKdPn8HGjRvleEXD9u3b5bpiPJRqZuAycyASeo1Ftpp0U5iFhIQuasgCUrZgDRMIIrqIXWNpiENfZcLITfJeSmOIQhe0jjfdiFEjhqFu3bpqji4uLhZPPTkel156qZpDdP6E/fYTysLcX6PC2TqXoc5Pp9XUxSFnfF9Ms1tw+wy2cyG6WInOaTdu/NAtbPHm1KlTMvTo0+duNafqRAsXISIiwi3IEX3GNGmiB+MibKkOtbykKB0DErJQYnsINb6hCxFRNVnwZRGa3zkHT7v9KV60brkDzRGFxMUZmD+xCzDoBSybPgFPzcvAMvGXe/Nf8NX4IxPnqtKkuW77M5cspU2cwL/803l19OhRtGlzLUaOGOoMXfSwZRyOHDnKPjDIJxHU2Tp3UlMuqQMfQlLiHWqq6r6/+hb533rfFcj/ml36/TFc8sN3+O6mR9ScwCXNWOkq08kYpbduebYzLJbOmKTNE+U9Yp1VM9KQYazjQ9joBXL56AyP/an9r3KGIx4lQs59ivkrEWiGkrNuLxB7p2qJ475PWZYkj21uBRPc/omoZmvRogUKCsq/J3rz1VcFcv1QEZ3lCl26JOC++/4ox4X+/fvLPluEBg2qp/PcqgUuyelY4yzvyXSGHuMWiVKfsVhkKvtJnrVarWcqiXHb3lQeZC4j8isd+YUxiDe2reCcjOO4WsSIEh3XfOP44lzXzBrrWqbKm+Q1mM9LHMsofYLret2PYdCPZS6B0o+j1jOXSzn3qTHPX+T5L46vY6rSo1n6tjW/7IqIqmThM3jg9QNoMVQEIkYJUSYm9H8fh1CE3IdSMeSlLXJVNI9G2OJUPPBYGvL0OS6NrsfNWKqXJX0OtL9b7wtGliyF78JrqmRpt+V6NNK3IDovDh85iqnTXkRcbKwMXdq2vVaGLRs2bEJG5mK1Vgj5CSSp9tjz9dfyNWMOXUTY0qNHdxw4GLoHRJz9XTjq/ngS+O03NcfdZY4D+LlhMzUVoLBR6G9zIMsoDUqdDeRMQJ9p2+BQJUNGeY/F1hj5xjpyhh7IyIDDXH4U0w/x+WJ/L8Bu6Ye8x4G5Yjttn7A9qMIPvXRILw8S6/WoYggigpRh2oHUPruvAFIWYHTOE/hAfKY3EpekOxGLvcjNVdNEVKuJ1iT79x+Q46KMyBi8TR86dAjNm18YT3OrfOAiwoaRwKtGeY+o7jGFETEp8cgX86fYYU3ZgpGYI9fTJmEboNbLHotexvZivZ6moKEyfJ2TNr+n1Y4pan6vMaJYSYQSI7SV1bpyZVdAE2HrqZZNhR02DNAWZI9Zj8KYeOc6yUlxQEEusmXwkQJkGfuaioK4SR5BRzbGrC9ETLxxj5IhN8/RzkWEKvH5alvtHhXEYaQIT8T1pFhhn6L2mx8JW4Ta3O8xI2CL1Pc5YKaaRUQXLtkfSyoe0D6YJi6uoN+WQ9vwYrmkRTm5C5kqmMnbcgAnw5uiqzYuS5bsM5wBzYL3dkL7GkF0XplDl8nPPlV9YYvBRyBJtcvatblYtGSZM3QxwpYXp89EQUH5Dm4rq9HebPx6uQU/RWof9jyIPlzORHXCHzb+Tc0JUNmXKHbEICWADmgd9qXu/bSY+3DpMwHODKNwhQpp1qHIoU1+oJblFkGbdJKtYWRg8wxsFgsi26oFwXIUITesDSK1fdgmqQBoUz/EwIKoxDLMzheflfUWNEl3tobDOB8iOuf8dYobbD8uonNc47HPUa/e7By8TTdr1gzHjh2T47Vd5QOX6yIREWHDZKOFRUoMYI1yBiaFWQMhv+dnF6EEhVgvQw4xWSL/a3C2PJls0/YXievU/OCUovgL7T++zkmcg5jv1mqmLSIjImCbrNbdmqK92VsRpS6g1D4H+ilnI6egVNuNWGBuTSMCkxL9upKjYC3MMgUbnuGKMjPfFdgkJyKuZL08RnKUVSRU6jy2YLItAhHiXzLteuA8D83MxbAbT6z0e8xS2Belq3EiumgsfAY5h6LQZlCovgp2QbPwU3B8zU5hqOYxQpflWSurN2wRfASSVPsYocuY0cOrJWzxR/Tr4q1vF/9US5PXgOEiqHCW9lQvEbZsuv1bFdjchqxCtSAoYRjdvzNQ/KWaLnS11JFDX4zP1e7N7E+1z8odMFq15skPTe++RFQD7Nu3Tz5+ORBivYMHD6qp2q1qJUVuHdhqg6+Obn0QYUvP4qlq+yztrbcSROuVmBIUGQf2ek6irxdtPD9eBhqu0hvtzd68bkJvV7jhw0yZvI/VTv4h2Ery9VApYK7AZtwAG0ryXYFIqd24D2oYkK4HMUREfgyebm7RIgISNRoSW7D5gPtf8wff3Y4lRVRjiNBleda/1RRRYETosmBhZrWGLaIlyyWnyz9eVMzz9vSigIkyou4r9GBCzapOiVEWvWWKmAgbifgYOTsIYRidsREplm2YK1MVvaWO1w50y2Zjid2C+IUdYPFspUNEtdoHH2xAcnKSfFpRRerVq4f7779Pe5/OUXNqt8oHLl8UozSmZxUeUZwMkSeUGEnJuHgE/f4tSm4m21BitKbxd07i6UeipikuUTv6bhSXxqBnsBcgWplY47Eo3upqQSJa0MSkmMp5kjGrZwwKTYGKYeYiO6zxmYi32rFIpTWi1U+El45/s3MKAPN8EfIYJUVBHJOILmwL3nPg5sVGp7ZD0PLAfExYIFqkZGL3IVOnuZWU99JSfBbeE0tVp7ltHbtYUkREtV5O7vvV2rLlku+/wS8N9ebzZiJsER3nBi1slN4RrirDQZZ6vHPOOuyBq9Ncr8x9uOQF1xFtzoQNKIzpp47bQfy9MgCmkqG8jUjBClMpUy7G37MCDtszark2mMqkROe6lhgL9rDzFqILiuiX5Z13VmHkyOFo2LChmquXExlE2PL440PlI5p3796t5tZuYa1atfbbTryjrSt22DerKRPR94go21FEKw3RP4pouRKfb/QdIvoaEf25qFDE6K9kQLr79oWF2ps59PU81/G2vlQK+xSPVike68hzykmUwYyeVZi30ftBca5daseUXmOBWatlnzN6Xy+Qndt6Tk+OK5DrOg+twh8jDzHuhQxCZF8xxjHF9CTEFRjLdXKfrg5aUJil3z+3+YV22K1xrn0FfEwiqk18vucq3Xsk4uDB/WrqPBBPO2pTgAeffNP5KGqimi46uiU2bfD9Ba7c75XoKPehMGSKDqbN457L5Mp0ofL3uhHv17t3faKm3J2O6oxvO/8FEV+sQHjBajnvZOsklLR/ENbPl6LRXu9/vT1TTY8mJSIKhrc+XALtt6Wiz7J9+96DXr3uko9+Fk8jEkGM6LNFlBGJli0ibMnMXISzZ8+qLVz8fUb2Zu7cOcjIyND2u0M+mrpt27ZIS5shl02YMF4GO6tXr0GnTh2RmpqK4cO179EhVLXAhYiIQq5mBy5d8NS8IbDaB6lWNES1Q9CBC5GmKoFLZTFwIaLazt9n2ejoaNx7bz/5X6ODXNFniygjqqhlS2UDl+XLl2Pjxg/RoUMH3HBDe2RkvCmXifCntLRULhNBzLBhQ0MeuFStDxciIrrwiRYtqpzIvWSJiIiIiCg4IlyZOXMWRo4cLVvNiP+K6eooI8rPz5dBS5MmkThy5DDWrl0rx8WwdetWeUwxLlq4iNY2ocYWLkRENUzNbuFCVDuxhQtVBlu4EBEFr7ryg8rsNyIiAsOGPSZDl4qIEGjevH9g375KPcrHJwYuREQ1DAMXotBj4EKVwcCFiCh4NSlwOd8YuBAR1TCBBC5EFDwGLhQsBi5ERMFj4OLCwIWIqIbhey7Ruccgk3zxF7gQEdG5c8EGLkREdO4wcCEiIiIiqt0CClyIiIiIiIiIiChwfCw0EREREREREVGIMXAhIiIiIiIiIgoxBi5ERERERERERCHGwIWIiIiIiIiIKMT8dpobHdNajRERERERERERkeFg4V41Vh6fUkREREREREREFGIsKSIiIiIiIiIiCjEGLkREREREREREIcbAhYiIiIiIiIgoxBi4EBERERERERGFWECd5na0dVVjRER0Luywb1Zj5XXvkajGiCgYmzbkqjGi0OBnZCKic6uiz8g1UcCBS227MCKi2srfe64IXA4e3K+miCgQ0dEtKwxcGGSSLxW9bsT79e5dn6ip0Dhz+owaIyKqnaorP6iNuQQDFyKiGoaBC1HoBRK48PeKPPl73TBwISIqj4GLC/twISIiIiIiIiIKMQYuRERERERERHRB6927F/71r2Vug5hXnRi4EBERERGF2M+NouBodz/OXHmjmgM5Lub9HN5czSEiuvhYrVYMHDgAkyY9i7lz58j/iumrrrpSrVE9Tp8+jb1792L48BFysNvtqF+/vlpaPeparVc8p8Z9ujLqahw5/F81RURE1cnfe250y1Y4caJUTRFRICIiLDh4YJ+aKo+/V+SNv9eNeL8uPn5UTbk7dtvTqH94BxoUbVNzgEtPaevWuQTHu45FeMF7aq67X375RY0REdVOFX2WTUi4BePHj8P+/fvx0Ucf4d1330VRUREaNmyIRx/9E86ePStDEW+CzSWGDRuKTp06OYd27dqhadMmsFqvQNu2bXHNNa3QrFlTtG7d2m297dt3qD1UHVu4EBFdAAZPz8CyJWqY/jDC1PwKdRuP+UtewCMBrUxERMH4ydIS9b7do6ZcLj/2GX5sHKumzoGkNKzK+xB5zmEBRqtFVZOIGas+RIbYWdgoZHjut9xxV2JGjXoYmH7+VT4/ee017dqIqodnOU6wRNiSktIPzz8/BUuWLMXHH3+C48eLsXPnLqxY8W9MnPg0bDYb+va9R21RNcXFxejUqSMaNGggx3fu3Il1696X42LIy9uMbdu2y3FBrGuMh0rNDFzGZWLrmnQkG+OLxsrZhnGLtmDrVtPgsfy8S07HGvP5acOaWfJq/EqetbpS27lLxqw1W7BonJokogtat4lzkYT1eLB/Kh7QhtccTTFYhigDkVZRoJI3A0P6P4M3/D6rjugiJALJeRPQTU0SBeuSHxz4tUGkmnL5rb4VdX86oaZCQAQbq9JQ4fd9xzZM7XYruslhMF5Rs6smF+P73IpULzsLG70Aec82xgfOY96K7lkORLZVK1Qnb+GPTw7Yp6pznLYXsZMqEUaVzUZqt74Y7/thVlLSjJVYxVSGarn77nvAOQRLlBENGpSK9PRZOHz4iJoLFI38SI0BJSUlSEubgV697kJ0dLSaW3lvv70cp0+fwcaNG+V4RcP27dvlumI8lGpm4DJzIBJ6jUW2mnTRg4SexVORkNBFDVNhR5QezlQ3L+GPT6V2TDGdY0HcpIC3LbUb16dvF3xwko0xvbpgwEw16Usw10NENdY1loY49FUmjNwk76U0hih0Qet4040YNWIY6tatq+bo4uJi8dST43HppZeqOUTnT9hvP6EszP01Kpytcxnq/HRaTV2AwkZhYQqQ5RHslL0y2Gs4U2PkrMMehwVRzESIqoXonHbjxg/dwhZvTp06JUOPPn3uVnOqTrRwESIiItyCHNFnTJMmejAuwpbqUKtKipJnjUBcwVT0GmOOYrIxZoC3cKYmEQHIVNitPRFcg5Vs5BSUwhp1TuIkIqqlFnxZhOZ3zsHTbn+KF61b7kBzRCFxcQbmT+wCDHoBy6ZPwFPzMrBM/OXe/Bd8Nf7IxLmqNGmu2/7MJUtpEyfwL/90Xh09ehRt2lyLkSOGOkMXPWwZhyNHjrIPDPJJBHW2zp3UlEvqwIeQlHiHmqq676++Rf633ncF8r9ml35/DJf88B2+u+kRNSdwopWEswQmY5TeuuXZzrBYOmOSNk+U9+gtKdKQYazjg2yFoi0fneGxP7V/V2sMj9Ib5z7F/PKlNGGjOiCm8NOKW9HIVijGPl378Hbu5a5ZMFqxiGtQy5ylTZv6IUb7X4o2z7gGea3GPvy1BhJUq6EZ8t6oVi8eJVLyeIJHixpvxxLX8KzNAovtGdf+fN5XogtTixYtUFBQ/j3Rm6++KpDrh4roLFfo0iUB9933Rzku9O/fX/bZIjRoUD2d51YtcHErncmE0RBDlPwsGjcWi9Qy0ULDVSqz2hU6eJTeOFtyeG15kYykOKAgx0+0IrY19mmUJUGcSyZmyXMwju86P/M5ifNcM2usbEnjtg+x35QYICbFtL7e4sY4XsUtUUR4on0gTDIO5P3e+ebvGszlR+K8TPfZ27V6vR79Z2fsz3X/iKhGW/gMHnj9AFoMFYGIUUKUiQn938chFCH3oVQMeWmLXBXNoxG2OBUPPJaGPH2OS6PrcTOW6mVJnwPt79b7gpElS+G78JoqWdptuR6N9C2IzovDR45i6rQXERcbK0OXtm2vlWHLhg2bkJG5WK0VQn4CSao99nz9tXzNmEMXEbb06NEdBw6G7gERZ38Xjro/ngR++03NcXeZ4wB+bthMTQVI+2Lf3+ZAllGmkzobyJmAPtO2waFKhowWJBZbY+Qb68gZeiBjDgGkmH6Izxf7ewF2Sz/kPQ7MleU12wDbgyoY0EuH9NIgsV6PCvsrSYyywFH8pZpyD0xcoUgH/fzksfYidrjrnMznLrZ9HH9Xx74NWejnCjpEqBL/qVzWPasQMbdr+xDlPd1XoFD7n7hPfcbnygBkk1pPDNP2tMZwLxcQNvpB2LAXuUZpkHbPIuW9GYxXZLDVGnuM8iPtGEjxEjb5OFbO+L6YZnfAYX9B358MW55B7B4xLdbVr40lR3QhE61J9u8/IMdFGZExeJs+dOgQmje/MJ7mVvnARQQGI4FXjbKZLO19xxSSxKTEI1/Mn2KHNWULRmKOXE+bhG2AWi97LHoZ24v1elb0Bb8tIiNKUOTMW0whgjkUic9X5TjasQriMNKZOsQgTp5Db4zRjrtoqzo/eewCxI10HTvC1lO7MLFMlCvZMECkIaLMSXszR2GW2ocINUao9cQgbkAgwYnGz71zGYsBNnPI5HkNor2mcXxf5Uc+rrXc9ehhS4r2dq/vT79/k1lyRFQ7yP5YUvGA9kExcXEF/bYc2oYXyyUtysldyFTBTN6WAzgZ3hRdtXFZsmSf4QxoFry3E9rXCKLzyhy6TH72qeoLWww+AkmqXdauzcWiJcucoYsRtrw4fSYKCsp3cFtZjfZm49fLLfgpMk7NcRF9uJyJ6oQ/bPybmhOgsi9R7IhBSgAtNBz2pe4tTMx9uPSZAGd3I4UrVEizDkUObfIDtSy3CNqkk6vVxjOwWSwV9sWSq+3IEtlGTUGGDTJ8sKs9JkbBolqgyH3KFjqNtU/6Ote5h6FNpNEqRKy7EeJvhRZnzU8hslSgVDb7UxSa9mEmAiARLBmhj2xp4jw/C2yT9PmbxMdq873R7tlidRPD2jQG7H939dNSNhtLtO80sYnuP4mKj2US1gaR2Ia5rh3ilSXbtB3e6fdnS3Su+OsUN9h+XETnuMZjn6Nevdk5eJtu1qwZjh07Jsdru8oHLtdFIiLChslG6CHeAa2uvlQKswZCdiGSXYQS7Q1xvSoDyi4qkf81OFtUTLZp+4vEdWp+ebtRXGqFq7omHQNkMJCl7V2XHGUVSY+zhcZkWwQinP8iuM5BWxFW8UZvnLvHsUvtc2QAUXFJjwiAImCbrPaxNUXbo/n8vCsRiZGfexdhm+TcJ7L0METncQ2FWaZ+WrIxZn0hYuI9AhI/1+qSjCir9g/XgHQ1re1xzHoUxsQHFiIRUc2w8BnkHIpCm0Gh+irYBc3CT8HxNTuFoZrHCF2WZ62s3rBF8BFIUu1jhC5jRg+vlrDFH9Gvi7e+XfxTLU1eA4aLL/TnqARFttq4/VsV2NwG8fe6ipR9+S0cMR0q7nzWrRNfMfjuyLcwy7ye3molWHrLEtN+jJY/5k5zQ9SZsO9jEV3c9u3bJx+/HAix3sGDB9VU7Va1kiLZOkK1nBCD145ufRNhi6sDXFdw4l02ikoiXCU5Prg6nFWDKUBw49aprRhUQBSUQmS57cMcjnjSW6sUf6EmK7h35mvw2/FtIEJyrURUUw2ebm7RIgISNRoSW7D5gPtf8wff3Y4lRVRjiNBleda/1RRRYETosmBhZrWGLaIlyyWnyz9eVMzz9vSigIkyIlE24y/UCBHZasNRpLf8CBuJ+Bg52zft/F6zW3y3xBGtZyyd8ZDfky/Dl8UOvVRIzakM2eLGWR5VOSJEgm2Yq4RIlncBe5z1R7qAjyVaK6GzqbQpDKP7d9Z2uM7VwoboAvPBBxuQnJwkn1ZUkXr16uH+++/T3qdz1JzarfKByxfFKI0JthNYM9GiQrX4EMbFw9/798wBWSix+X5qj2g9E2F7yH+LDNHqJkKVClWaaHETg54B3QC9/MdqtJyp8r3TiGuISTHdi2TM6hmDwnyPgCngaxWBVoxbaVPyrJ6IKcxnOENUwy14z4GbFxud2g5BywPzMWGBaJGSid2HTJ3mVlLeS0vxWXhPLFWd5rZ17GJJERHVejm571dry5ZLvv8GvzTUm8+bibBFdJwbNNk5q16qkrepH5ClWmSIp+toX96NTnO9MvfhYuqkNhA5Ezag0CiT2dRB/L3RL9lnyZ7WpmN+iGdj9+olOqKflWnbYElxLfPVWidn/P9DliPIcy97FfmFesmS6BNFPB1pmgiAnPuo4D75kjMB92Q5nOVH+v0v/yjoio6Vs24v4Ow0Nxfj71kBh7lcCisq1XqHqLYQ/bK8884qjBw5HA0bNlRz9XIigwhbHn98qHxE8+7du9Xc2i2sVavWftuJd7R1xQ77ZjVlYnS8qoiWGeIJQqLlSny+0TrD6ENEtaow+lkRLU/M2xcWam/m0NfzXMcYl/TwwhzOFGa5WoKITm9FKZFBX+ZxDoLoR0WU16hJ2eJEO4bYXvQ3YzwJyX3aOHYp7FNc/ag4z0W0JBEtVTz3rTGfo+Tj3nke38X/NRj70Bao/mVUixsf11r+esR2k+C8fcb1qEkiOjd8vucq3Xsk4uDB/WrqPBBPO2pTgAeffNP5KGqimi46uiU2bfD9Zabc75XoKPehMGSKDqbN457L5Mp0ofL3uhHv17t3faKm3J2O6oxvO/8FEV+sQHjBajnvZOsklLR/ENbPl6LRXu9/vT1TTY8mpWri7AQ4NCVJRDWFtz5cAu23paLPsn373oNeve6Sj34WTyMSQYzos0WUEYmWLSJsycxchLNnz6otXPx9RvZm7tw5yMjI0Pa7Qz6aum3btkhLmyGXTZgwXgY7q1evQadOHZGamorhw7Xv0SFUtcCFaiiPwIWIapWaHbh0wVPzhsBqH6Ra0RDVDkEHLkSaqgQulcXApXZxPpmIfbUQOfn7LBsdHY177+0n/2t0kCv6bBFlRBW1bKls4LJ8+XJs3PghOnTogBtuaI+MjDflMhH+lJaWymUiiBk2bGjIA5eq9eFCNVNyIuJQAH9P0CYiCoho0aLKidxLloiIiC5S4lHReeLpRhbYFzNsIQqGCFdmzpyFkSNHy1Yz4r9iujrKiPLz82XQ0qRJJI4cOYy1a9fKcTFs3bpVHlOMixYuorVNqLGFywXFVeJUroSJiGqNmt3Chah2YgsXqgy2cCEiCl515QeV2W9ERASGDXtMhi4VESHQvHn/wL59AXRUFQQGLkRENQwDF6LQY+BClcHAhYgoeDUpcDnfGLgQEdUwgQQuRBQ8Bi4ULAYuRETBY+DiwsCFiKiG4Xsu0bnHIJN88Re4EBHRuXPBBi5ERHTuMHAhIiIiIqrdAgpciIiIiIiIiIgocHwsNBERERERERFRiDFwISIiIiIiIiIKMQYuREREREREREQhxsCFiIiIiIiIiCjE/HaaGx3TWo0REREREREREZHhYOFeNVYen1JERERERERERBRiLCkiIiIiIiIiIgoxBi5ERERERERERCHGwIWIiIiIiIiIKMQYuBARERERERERhVhAneZ2tHVVY0REdC7ssG9WY+V175GoxogoGJs25KoxotDgZ2QionOros/INVHAgUttuzAiotrK33uuCFwOHtyvpogoENHRLSsMXBhkki8VvW7E+/XuXZ+oqdA4c/qMGiMiqp2qKz+ojbkEAxciohqGgQtR6AUSuPD3ijz5e90wcCEiKo+Biwv7cCEiIiIiIiIiCjEGLkRERERERER0Qevduxf+9a9lboOYV50YuBARERERhdjPjaLgaHc/zlx5o5oDOS7m/RzeXM0hIrr4WK1WDBw4AJMmPYu5c+fI/4rpq666Uq1RPU6fPo29e/di+PARcrDb7ahfv75aWj3qWq1XPKfGfboy6mocOfxfNUVERNXJ33tudMtWOHGiVE0RUSAiIiw4eGCfmiqPv1fkjb/XjXi/Lj5+VE25O3bb06h/eAcaFG1Tc4BLT2nr1rkEx7uORXjBe2quu19++UWNERHVThV9lk1IuAXjx4/D/v378dFHH+Hdd99FUVERGjZsiEcf/RPOnj0rQxFvgs0lhg0bik6dOjmHdu3aoWnTJrBar0Dbtm1xzTWt0KxZU7Ru3dptve3bd6g9VB1buBARXQAGT8/AsiVqmP4wwtT8CnUbj/lLXsAjAa1MRETB+MnSEvW+3aOmXC4/9hl+bByrps6BpDSsyvsQec5hAUarRVWTiBmrPkSG2FnYKGSY9hs2ekHIjyf3mTFKTZmI61uVpp2NmTi3QI4r1luJGV4fUhaG0Rnq+ohI8izHCZYIW1JS+uH556dgyZKl+PjjT3D8eDF27tyFFSv+jYkTn4bNZkPfvveoLaqmuLgYnTp1RIMGDeT4zp07sW7d+3JcDHl5m7Ft23Y5Loh1jfFQqZmBy7hMbF2TjmRjfNFYORvanFlrtmDrVn1YM0uuUUVin6vhbVfjFm3BonFqwqCdT0DHdTtvD8npWGNcHxFRFXWbOBdJWI8H+6fiAW14zdEUg2WIMhBpFQUqeTMwpP8zeMPvs+qILkIikJw3Ad3UJFGwLvnBgV8bRKopl9/qW1H3pxNqKgS8Bg4eHNswtdut6CaHwXhFza6aXIzvcytSPXemnc87KUCWcbxp3yJKhhYMMIhqu/vue8A5BEuUEQ0alIr09Fk4fPiImgsUjfxIjQElJSVIS5uBXr3uQnR0tJpbeW+/vRynT5/Bxo0b5XhFw/bt2+W6YjyUambgMnMgEnqNRbaaNIxbNAlxBVORkNBFDuu1f1pkaMEAg4guYtdYGuLQV5kwcpO8l9IYotAFreNNN2LUiGGoW7eumqOLi4vFU0+Ox6WXXqrmEJ0/Yb/9hLIw99eocLbOZajz02k1deEJa9MYlsJPXaFOzgSMD03CQ0S1mOicduPGD93CFm9OnTolQ48+fe5Wc6pOtHARIiIi3IIc0WdMkyZ6MC7ClupQi0qKkhFlLUVBjiuGmTmmfChDRHSxWfBlEZrfOQdPu/0pXrRuuQPNEYXExRmYP7ELMOgFLJs+AU/Ny8Ay8Zd781/w1fgjE+eq0qS5bvszlyylTZzAv/zTeXX06FG0aXMtRo4Y6gxd9LBlHI4cOco+MMgnEdTZOndSUy6pAx9CUuIdaqrqvr/6Fvnfet8VyP+aXfr9MVzyw3f47qZH1JzAJc1Y6SrVEeU1onXLs51hsXTGJG2eaD0i1lk1Iw0Zxjo+GCU6otWJ2/7U/lc562z00iG34zrnly/HKZv9KQpj+pm2F0Trlo1IiQFiUrR9yBY5vvarkSVKxrLyxzBKlgJuLeO2P/O1eTBdf96ql7V/QU18nFOg95voYteiRQsUFJR/T/Tmq68K5PqhIjrLFbp0ScB99/1Rjgv9+/eXfbYIDRpUT+e5VQtcRMsSVd6zdWsmjOobvRRnLBapZaIsJ3nWarWeqXzHbXtT+Y7Xcpxs5Gg/H9tk13EksY/JNkRE2DDZ2IfY3rlf93Ih13loQ7ljqJKlIFrLuO3PdA88iXtirLcoSc1UvJ+TuH+ZmCWXeS95IiKSFj6DB14/gBZDRSBilBBlYkL/93EIRch9KBVDXtoiV0XzaIQtTsUDj6UhT5/j0uh63IylelnS50D7u/W+YGTJUvguvKZKlnZbrkcjfQui8+LwkaOYOu1FxMXGytClbdtrZdiyYcMmZGQuVmuFkJ9AkmqPPV9/LV8z5tBFhC09enTHgYOhe0DE2d+Fo+6PJ4HfflNz3F3mOICfGzZTUwHSvvD3tzlcpTqps2XrkT7TtsGhSoaM8h6LrTHyjXXkDD2Q0YMEU/lRTD/E54v9vQC7pR/yHgfmyjKgbdqH7gdVHyh66ZBejiTW6+GjzxOlbDZStfX2xD4jj6eHImV4JfU2ZBUChVnafvpM0Pbqa7+JmPFOP0CsJ5f1xfhcMV8xlSw5y5nM1yeHZ2CzqGUiKNlk3p9+buXCGrHes53hMNZ7DYiNMS3b1EG/p2KYthexw133sdz9JqJyRGuS/fsPyHFRRmQM3qYPHTqE5s0vjKe5VT5wEUHHSOBVVd6TkAWkmAKMmJR45Iv5U+ywpmzBSMyR62mTsA1Q62WPRS9je7Fez4qDjuwxvfXjiGDCCEXEPrRtS0vtmKLtZ8BMbZ4oSTL2m1XiOt64TEyOK5DryWUD0vX5irNkyVTOFKOduzMMEYOI5hURlLjtT5ybl7BGrJdi1c9PrJcfaUOEaZlxb8SQhRRTvzExiJPLemMMm/IQUUVkfyypeED7UJq4uIJ+Ww5tw4vlkhbl5C5kqmAmb8sBnAxviq7auCxZss9wBjQL3tsJ7WsE0XllDl0mP/tU9YUtBh+BJNUua9fmYtGSZc7QxQhbXpw+EwUF5Tu4raxGe7Px6+UW/BQZp+a4iD5czkR1wh82/k3NCVDZlyh2xCDFX38tGod9qXs/LeY+XGTYoRSuUKHFOhQ5tMkP1LLcImiTTq5OcEWQYUFkW7XAJxWmdF+hfTj23RLF636T7kQstmGxtzIkSw+serYxPvDsh8atjxoxvAC7cQGJUbA4r1PIxYQPChET79EaxXO9nCegraYTy7TP5SlGoCNbFTWGcRvK3W+iC4C/TnGD7cdFdI5rPPY56tWbnYO36WbNmuHYsWNyvLarfOByXaSzVYkziLBGOcOGwqyBENkHsotQgkKsV4lBdlGJ/K/B2fJDtlKJxHVqvk8qTJlSEIfJPluimDrXNZ3XuPgYFK73XoYUN3ILehZPRS+PZKMwS4UpxiCieUW7BbC/atrfzMWwIw5JHiflud7MRXYYD568LjICEbZJzkBHP13nXXTeNyKigCx8BjmHotBmUKi+CnZBs/BTcHzNTmGo5jFCl+VZK6s3bBF8BJJU+xihy5jRw6slbPFH9OvirW8X/1SI8RowXHzpP0flKyIU2XT7tyrQ0FupBKxsNgZpG5QLNzS+9iv7gHEUuUKhciyI8pc4VYI8rhr3qlyoE6rOh4kuDvv27ZOPXw6EWO/gwYNqqnarWklRYZZ7GOGlo9uKiLBFhBz69lkI5v07e8wcr+GGHrZMQuR6dU6i9YuaL/qAKf5CTngQ7U1KEeE/rq8EcVw16oNnqOMZ+hARVWTwdHOLFhGQqNGQ2ILNB9z/mj/47nYsKaIaQ4Quy7P+raaIAiNClwULM6s1bBEtWS45Xf7xomKet6cXBUyUEXVfgcKYDiF6vHPFEqMsgBGAhI1EvKuxt1ciSDG3aJHbe+Frv0YfMF5bxTg2oI8o55nk61HOXojWOm77S0Ta7TEozHcv/9GPayqXSnoZ2mo6sQ9LZzx0Lm440QXqgw82IDk5ST6tqCL16tXD/fffp71P56g5tVvlA5cvilEa07MKfYvoQURJkQoXxsWj4vfvZMxaZG7R0haRRl2OGzHfFawkJ8Wp8h3VB8xIb61iSlHwam9ZzuPzUc5eaLfAfX/jHoINBTD166tRxx3g2u+4Aa6Soi+KSxHjp5SKiKgiC95z4ObFRqe2Q9DywHxMWCBapGRi9yFTp7mVlPfSUnwW3hNLVae5bR27WFJERLVeTu771dqy5ZLvv8EvDfXm82YibBEd5wbN3Gmr7JNEtbDIWYc9cHWa65VbHydBhBWanAkbZACiH7eDaIBdobJXlqL4duNYH+LZ2L2YKvs2KcPs/EJnp7llvvYr+oCZtg0WsZ6385X91ojQpYLOb83K7e8ZxO55wVRipMjWOA7YtP3K9R4H9vg8J21gB7lEQRH9srzzziqMHDkcDRs2VHP1ciKDCFsef3yofETz7t271dzaLaxVq9Z+24l3tHXFDvtmNWUiOqc19WlSatdLckTLlfh81Z+K7PxV9OeiSozENvH5ev8p5u0LC7U3Xejrea7jbX2NaBmiH0Nv1WKL0OctilqNyWJCU6rtF9ZivKpa34hzc+5CtNAZsFvbdgTwqt5Pir68EFnaecDtOhTtHNZELXa2QnHbn/Yvhdiu3HWazk8otNthjdMO6e2cUAr7FHEuHveNiC4aPt9zle49EnHw4H41dR6Ipx21KcCDT77pfBQ1UU0XHd0Smzb4LlIo93slOsp9KAyZooNp87jnMrkyXaj8vW7E+/XuXZ+oKXenozrj285/QcQXKxBesFrOO9k6CSXtH4T186VotNf7X2/PVNOjSYmIguGtD5dA+22p6LNs3773oFevu+Sjn8XTiEQQI/psEWVEomWLCFsyMxfh7NmzagsXf5+RvZk7dw4yMjK0/e6Qj6Zu27Yt0tJmyGUTJoyXwc7q1WvQqVNHpKamYvjwEXJZqFQtcCEiopCr2YFLFzw1bwis9kGqFQ1R7RB04EKkqUrgUlkMXIiotvP3WTY6Ohr33ttP/tfoIFf02SLKiCpq2VLZwGX58uXYuPFDdOjQATfc0B4ZGW/KZSL8KS0tlctEEDNs2NCQBy5V68OFiIgufKJFiyonci9ZIiIiIiIKjghXZs6chZEjR8tWM+K/Yro6yojy8/Nl0NKkSSSOHDmMtWvXynExbN26VR5TjIsWLqK1TaixhQsRUQ1Ts1u4ENVObOFClcEWLkREwauu/KAy+42IiMCwYY/J0KUiIgSaN+8f2LcvmEf5+MfAhYiohmHgQhR6DFyoMhi4EBEFryYFLucbAxciohomkMCFiILHwIWCxcCFiCh4DFxcGLgQEdUwfM8lOvcYZJIv/gIXIiI6dy7YwIWIiM4dBi5ERERERLVbQIELEREREREREREFjo+FJiIiIiIiIiIKMQYuREREREREREQhxsCFiIiIiIiIiCjEGLgQEREREREREYWY305zo2NaqzEiIiIiIiIiIjIcLNyrxsrjU4qIiIiIiIiIiEKMJUVERERERERERCHGwIWIiIiIiIiIKMQYuBARERERERERhRgDFyIiIiIiIiKiEAuo09yOtq5qjIiIzoUd9s1qrLzuPRLVGBEFY9OGXDVGFBr8jExEdG5V9Bm5Jgo4cKltF0ZEVFv5e88VgcvBg/vVFBEFIjq6ZYWBC4NM8qWi1414v9696xM1FRpnTp9RY0REtVN15Qe1MZdg4EJEVMMwcCEKvUACF/5ekSd/rxsGLkRE5TFwcWEfLkREREREREREIcbAhYiIiIiIiIguaL1798K//rXMbRDzqhMDFyIiIiKiEPu5URQc7e7HmStvVHMgx8W8n8ObqzlERBcfq9WKgQMHYNKkZzF37hz5XzF91VVXqjWqx+nTp7F3714MHz5CDna7HfXr11dLq0ddq/WK59S4T1dGXY0jh/+rpoiIqDr5e8+NbtkKJ06UqikiCkREhAUHD+xTU+Xx94q88fe6Ee/XxcePqil3x257GvUP70CDom1qDnDpKW3dOpfgeNexCC94T81198svv6gxIqLaqaLPsgkJt2D8+HHYv38/PvroI7z77rsoKipCw4YN8eijf8LZs2dlKOJNsLnEsGFD0alTJ+fQrl07NG3aBFbrFWjbti2uuaYVmjVritatW7utt337DrWHqmMLFyKiC8Dg6RlYtkQN0x9GmJpfI3Qbj/nzJqCbmtQNRNqSF/CIjxMV1zN/Yhc1RURU+/xkaYl63+5RUy6XH/sMPzaOVVPVJQyjMz7Eqhni6Vv6eF6ea9DnV4+kGStDcCzz+RNRTeFZjhMsEbakpPTD889PwZIlS/Hxx5/g+PFi7Ny5CytW/BsTJz4Nm82Gvn3vUVtUTXFxMTp16ogGDRrI8Z07d2LduvfluBjy8jZj27btclwQ6xrjoXKOApexWLQ1E+Oc41uw1TwsGiuXBCJ51upKbxsS4zKxdU06ktVkpSWnY43znlRArme6Xm1YMyvwo49b5L7tIr8H9CYZs9ZUdlsiqm7dJs5FEtbjwf6peEAbXnM0xeCgE5eKA5BzbcGTqRjy0hY1RXQeeA0KiQJ3yQ8O/NogUk25/Fbfiro/nVBT1aUMr6Teij7jXU9YKsy6Fd26aUP3FXDYhqE6swyH/QX9WN1ewJ7YZ5AxWi0IWPnz9yopDatWpYGxDNG5cd99DziHYIkyokGDUpGePguHDx9Rc4GikR+pMaCkpARpaTPQq9ddiI6OVnMr7+23l+P06TPYuHGjHK9o2L59u1xXjIfSeWrhUoishC5IUEMWUoIKMUrtU9W2U2G3ppzbIGDmQCT0GotsMS7CkMqGL9lj0SthIGaqyQqV2jHFeb+moiBuUlBBU2GWsW0WkLIaQeQ1SjbG9OqCAf5OVoRR5zoAIyJcY2mIQ19lah9PdXkvpeENvw/8J6q9Ot50I0aNGIa6deuqObq4uFg89eR4XHrppWoO0fkT9ttPKAtzf40KZ+tchjo/nVZT50HZq8gvtCCyrZquVrlYt8cBSxQjEaKLneicduPGD93CFm9OnTolQ48+fe5Wc6pOtHARIiIi3IIc0WdMkyZ6MC7ClupQI0qKZg7ogqwSGwYEHZxkI6egFNaoKrc3qUVE+CGCpp6VCE7StX9gIxB5nZokogvCgi+L0PzOOXja/Kd48dd5txYrXfDUvAykiaYvg15wlR/Jv+CL1i13oDmikLjYVcojWs6UL1NSLWGc+xDH0Pft2l+wxPZz8fREfZ/iHEVJkTxXIi+OHj2KNm2uxcgRQ52hix62jMORI0fZBwb5JII6W+dOasoldeBDSEq8Q01V3fdX3yL/W++7Avlfs0u/P4ZLfvgO3930iJoTqETMWLXS1DLFPK3GZyyQZTwZo/WSHK8tS8JGIj6mEPmvqGnRSsRZArQA+ibG9qOQYSxza0kijmdsow0Zo9T8inieozHP2348zj/MdB556prFeT/bGRZLZ0xy7s+jfIqtX4hqjBYtWqCgoPx7ojdffVUg1w8V0Vmu0KVLAu67749yXOjfv7/ss0Vo0KB6Os+tfODi2brDPK3GZ8lylgDKZjQz8wsRE2+0jtBLWJylMD5bTSQjKQ4oyJHtTTTmciVXSw5RhrRm1ljTPt3Pya3sxnxNosWG53yjFYe4xsk2RETYMFlbbrSyqXBfi7R7Is5BzPe4f+6lUv7umQiatA+XScbW7mVaAZUcefsZiXmm/bhaDomfh6lljNt6altxfSkxQEyKNs9YN9CfIxFVycJn8MDrB9BiqBGAaPPyZuA/h6LQZpAKLbrdgpbYhVULEvDUzeH4/HW9/OiBx9KQh0xM6P8+DqEIuQ/ppTwibBmIpfo62pCDnnjZGYBEIbFNgSxheu3zcCQufhBhi8V68/EZrkefSgUlDdHeou9zwgI2z6GKHT5yFFOnvYi42FgZurRte60MWzZs2ISMzMVqrRBS5UWPOEPIue4BJ9Uae77+Wr5mzKGLCFt69OiOAwdD94CIs78LR90fTwK//abmuLvMcQA/N2ympkLFAlvkp7KUJ9UIU0xiUlQIsakD8rsNhlxFhBaPA3Nl+c+t6C4aQ5vCk5gUsa5YdhuyHJ0xXCYdIiR5BrF7jLIhbRn6ee9vJWwU+tu0+55rlAaZzzHA/YiwRZ6zfo7dpu1F7PA0JOZMQJ9p2+BwbMNUuT8RtmxEClao/d2KaXtaY1JAYRARVTfRmmT//gNyXJQRGYO36UOHDqF58wvjaW7V18IlwobIfFHGEmDZjJP4kj4JcQVG2ZBecmQOESJsk9SX+BHAq70xRuYtInSIR75RejOlAHEjXYFGhK2ntq6+bIrdihT15V8EJCnaEYxjTSmIw2S5TDuPnlbYp6j9GWVEBlESNMWOUlXuI8ptfO9LiYnTz8FjXyJsmRxX4CobEv/YmcOaConrTgGcZUN6yZHXMqvkdPQUf9EwfiDmn5EIUSbHocC4Xl/lR2K9kdplmM9VXKMotcoqFPVL2nzxM/H/cySiEMqbgSEiHNE+0yYu1kMX2fLl2oGyZUq3Li2AA1uRhy04dqIh2g81t34pT5QpNWo/RH25zECS9m9eeNMEtbQIuRPflCVMecdOaP8qbsOLeWK+2Lf4b2Wcwufv6fskCoQ5dJn87FPVF7YYGl2Pm1UI+drnQPu7a1jn1BSQtWtzsWjJMmfoYoQtL06fiYKC8h3cVlajvdn49XILforUPvt5EH24nInqhD9s/JuaEyoO2BfPVuPl6X24vAC7IwbxquVIWJvGzhYiIozZJP54ZolytgopzFLBjOhTZck2IPZOJIa1QSS2Ya6zfxXTMjXHYntGhTv9tM+ofeHqisV0jgHsR0qMggUxSFHnmCdbtTRG+YqoOxFlKURWquse5EzYgMKYDqrVDhEFw1+nuMH24yI6xzUe+xz16s3Owdt0s2bNcOzYMTle21Vf4FJqx6LgkhaUFu/W/r+t9uZrx6t6iiLNXGQH4hKdAYTRh0tWYYSrlUdyFKzizdhoTSFbn0TCqJ4ptc9RwQyQPWa99uYbj3HaHqOs2hvzgHR9gca1LBtFJRGwTfbX2sRQ0b6UwvXOczC7LhKwv2oKYWYu1u5AHJwNWHwoKdK2ENddmGXqXyUbY9abWwuJv04Y90QEKqYAzPwzkifhukei/Ejeds+T0NYzWvXIfYp/mK1RXsIh/z9HIqoGC59BjtGyZeEafBYeh8FhXdC1xQl8NF3vhFZ0SPtA/6/QZnHFJUCH1g1ytnARQ6U7sc37BicaRaA1v51SiBmhy/KsldUbtggndyFT/Q7kbTmAk+FN0VVOUW1jhC5jRg+vlrDFH9Gvi7e+Xc6NXIx/bRsst5tKbQpdLULk0GeCtlbVuDrN9d7aJmiqFYvrPI0giIhqi3379snHLwdCrHfw4EE1VbvViD5cRFgxq2eMHiAEYeaALJTYHnIFGm6dy4oh2NY17kTfMgkJ+YgXwULALU7OhbEYYAOKv1CTfrg6zTVaA1WRbMVi7FMbPFv/ENE5NXi6ubVKFzQLV6PYgs0HwtHmyQS0PFEA90odUUYkSoCitQ+uapbJ145TaG4bX4UntKh+WeQOClFyMgo3P+l6zPPg6Xeg+SHPcyIKnghdlmf9W00RBUaELgsWZlZr2CJaslxyuvzjRcU8b08v8m8dihwWxCaqqCTpTsRa9NGg5DyBD1R5UNmX38IR08PnE4ti4k19qvTvDOxZh9yyL1EMo7zIY5maE5BA95NbBIelMx7y20xF3J8Yt5KopLQeiCn8lOEMUQ3wwQcbkJycJJ9WVJF69erh/vvv096nc9Sc2q3ygUt2EUoiXK0wkpPiEKGPBkkvPbGVGK00dmtvvjaMNJWejBPpQkGuly/1ohWGKg+S5+O7490IU8uK5Fk9tTfffMyUrVi0N2ZT2Y9rmSEdA8TTkPy2OAlkX959of1bbDOVP2HcQ9odKICzaxo3egmR1WiNIq47xvykJj28Ksx3tbQJiDyJEaYSIj3UcfWPo2jrlcYE0mFvMD9HIqqKBe85cLNorSLLf4ag5YH5zn5QxF/iw9tH44CzXMfUwa1cdyn+JsuBMrH7kKvT3LyXhiPnxPV4XJUUVa3Pii148bH3ccJcohS+C689yRIiIjp/cnLfr9aWLZd8/w1+aag3nzcTYYvoODd4quTGKNd5vDEcDrUoKMZ+hmFG2QTck+WAbZIq19EGcx8qheig5ut9o+iPac7F+HvEo6XVebgtC0aA+ymbjdRp22Ax+qARgxGq5KzDHhid5mrXlfoC7JZ+zvWejd2LqaYSIyI6f0S/LO+8swojRw5Hw4YN1Vy9nMggwpbHHx8qH9G8e7eofqn9wlq1au33825HW1fssG9WUy6y7xGbHrOUFhYC1mK8Klo7GP18OFs+GP2riBYnemAQI+frRIlQL7emFx7riBYVqlRHHHMk5pjWd/VhMuAL0Q+JzRX8qO3kNpElQEyMvky0hHGemwp8jI2cy9znO89RdA4bn6/Ox7WOaEUyYKavfWncttN43CPZ/4vrgpFltM6RfauYrkmjH0tNCB7rmO+n2G98vpdHOpf7GWmMjm8V13HEdZn6y/FYz3U84+dWCvsUsa7vnyMR+ebrPdfQvUciDh7cr6b8EJ19PhSGTNk5LtHFKzq6JTZt8P2FsNzvlfl3x/P3iL9XFw1/rxvxfr171ydqyt3pqM74tvNfEPHFCoQXrJbzTrZOQkn7B2H9fCka7fX+19sz1fRo0uDoHdDG54eoJCho5/v4ROStD5dA+22p6LNs3773oFevu+Sjn8XTiEQQI/psEWVEomWLCFsyMxfh7NmzagsXf5+RvZk7dw4yMjK0/e6Qj6Zu27Yt0tJmyGUTJoyXwc7q1WvQqVNHpKamYvhw7XtvCFUpcKktyoc0FByPwIWIqlUoAxfxeOVbHPMr3/8K0QUi6MCFSFOVwKWyGLhonE8mYl8tRLWRv8+y0dHRuPfefvK/Rge5os8WUUZUUcuWygYuy5cvx8aNH6JDhw644Yb2yMh4Uy4T4U9paalcJoKYYcOGhjxwqSF9uFCNlpyIOJ8lTkRUI4m/wIvSHazHXxi2EBFRrSAeFf2hfLqRxb6UYQvRBUqEKzNnzsLIkaNlqxnxXzFdHWVE+fn5Mmhp0iQSR44cxtq1a+W4GLZu3SqPKcZFCxfR2ibU2MKFKuAqCSpXxkRE1SaULVyISMcWLlQZF28LFyKiyquu/KAy+42IiMCwYY/J0KUiIgSaN+8f2LevUM0JjYsicCEiqk0YuBCFHgMXqgwGLkREwatJgcv5xsCFiKiGCSRwIaLgMXChYDFwISIKHgMXFwYuREQ1DN9zic49Bpnki7/AhYiIzp0LNnAhIqJzh4ELEREREVHtFlDgQkREREREREREgeNjoYmIiIiIiIiIQoyBCxERERERERFRiDFwISIiIiIiIiIKMQYuREREREREREQh5rfT3OiY1mqMiIiIiIiIiIgMBwv3qrHy+JQiIiIiIiIiIqIQY0kREREREREREVGIMXAhIiIiIiIiIgoxBi5ERERERERERCHGwIWIiIiIiIiIKMQC6jS3o62rGiMionNhh32zGiuve49ENUZEwdi0IVeNEYUGPyMTEZ1bFX1GrokCDlxq24UREdVW/t5zReBy8OB+NUVEgYiObllh4MIgk3yp6HUj3q937/pETYXGmdNn1BgRUe1UXflBbcwlGLgQEdUwDFyIQi+QwIW/V+TJ3+uGgQsRUXkMXFzYhwsRERERERERUYgxcCEiIiIiIiKiC1rv3r3wr38tcxvEvOrEwIWIiIiIKMR+bhQFR7v7cebKG9UcyHEx7+fw5moOEdHFx2q1YuDAAZg06VnMnTtH/ldMX3XVlWqN6nH69Gns3bsXw4ePkIPdbkf9+vXV0upR12q94jk17tOVUVfjyOH/qikiIqpO/t5zo1u2wokTpWqKiAIREWHBwQP71FR5/L0ib/y9bsT7dfHxo2rK3bHbnkb9wzvQoGibmgNcekpbt84lON51LMIL3lNz3f3yyy9qjIiodqros2xCwi0YP34c9u/fj48++gjvvvsuioqK0LBhQzz66J9w9uxZGYp4E2wuMWzYUHTq1Mk5tGvXDk2bNoHVegXatm2La65phWbNmqJ169Zu623fvkPtoerYwoWI6AIweHoGli1Rw/SHEabmV6jbeMxf8gIeCWhlIiIKxk+Wlqj37R415XL5sc/wY+NYNVXNwkYhI28BRqtJp6Q0rFqVhnP/bK5EzFj1IfLyXENGuZPzQl6HWH8lZtTiB4qFjV6AvIxRaoqo9vEsxwmWCFtSUvrh+eenYMmSpfj4409w/Hgxdu7chRUr/o2JE5+GzWZD3773qC2qpri4GJ06dUSDBg3k+M6dO7Fu3ftyXAx5eZuxbdt2OS6IdY3xULkwApdxmdi6dYtrWJOOZLXIp8psU6MlY9aa1ZhV7iK8zx+3aAsWjVMTHpJnrcbWRWPluGs9sR/f2wQlOR1rav39Jqo5uk2ciySsx4P9U/GANrzmaIrBMkQZiLSKApW8GRjS/xm84fdZdUQXIRFIzpuAbmqSKFiX/ODArw0i1ZTLb/WtqPvTCTUVAhWFJ2WvIr8wBvEeoUbSna2BPevg+/lL1ckB+9Rb0a2bNkzbBkuKl0DIQ1JaD1jsL2jb9MX483PSRKS5774HnEOwRBnRoEGpSE+fhcOHj6i5QNHIj9QYUFJSgrS0GejV6y5ER0eruZX39tvLcfr0GWzcuFGOVzRs375drivGQ+nCaeFSmIWEhC5yyCqxYWT55KE80zYJvcYiW82+6IjwSQUsQvaY3kgYkK6mDNkY06sLBsxUk0RUY1xjaYhDX2XCyE3yXkpjiEIXtI433YhRI4ahbt26ao4uLi4WTz05HpdeeqmaQ3T+hP32E8rC3F+jwtk6l6HOT6fVVHUrw+z8QsTEm1tVJOLOWGBPbg1ILnLWYY/Dgqha3GqFiAIjOqfduPFDt7DFm1OnTsnQo0+fu9WcqhMtXISIiAi3IEf0GdOkiR6Mi7ClOlyQJUUztX9YIiLbqikiogvbgi+L0PzOOXja7U/xonXLHWiOKCQuzsD8iV2AQS9g2fQJeGpeBpaJv9yb/4Kvxh+ZOFeVJs1125+5ZClt4gT+5Z/Oq6NHj6JNm2sxcsRQZ+iihy3jcOTIUfaBQT6JoM7WuZOackkd+BCSEu9QU1X3/dW3yP/W+65A/tfs0u+P4ZIfvsN3Nz2i5gQuacZKVzmOKE0RrVue7QyLpTMmqfIcsc6qGWl6CY62TtnsT1EY08HViiTpTsRiL/S8xb3Exyjv0Utf0vRlovWMs6RHDKqsx23eh9oxTamJOC/TMp9lQ27noo5rbKda7YjredZmgcX2jD5PteiZkSHWE61jPMqUnCU7Yr52rqONcxHnHYbRcjsxmFvWmOcb16K2V5clz83Zkkisbyxz39a1TvmfhZlxrQGVVBFdAFq0aIGCgvLvid589VWBXD9URGe5QpcuCbjvvj/KcaF///6yzxahQYPq6Ty3koFL+fISUYayRrUqkSUpRqmOs+XEWCzamolZcple4iLKVYz1vG6rre86hH5M5zJTiwxP4+JjUJhvtNBw385fSYwsoZmVjjXauvKc3EqPTKU5qlWI8xrE+YhSGbWucT2Sab7zmtxalXjcT7G+scxtW/P5l7+fLuqaAy2tSokBYlKc+zH/LF3EPtVx3O6JGLzNdz8n8896UZKaKYnrcC0rf1wi8mvhM3jg9QNoMVQEIkYJUSYm9H8fh1CE3IdSMeSlLXJVNI9G2OJUPPBYGvL0OS6NrsfNWKqXJX0OtL9b7wtGliyF78JrqmRpt+V6NNK3IDovDh85iqnTXkRcbKwMXdq2vVaGLRs2bEJG5mK1Vgj5CSSp9tjz9dfyNWMOXUTY0qNHdxw4GLoHRJz9XTjq/ngS+O03NcfdZY4D+LlhMzUVoLBR6G9zIEuU4oghdTaQMwF9pm2Dw7ENU7V5qa/oq1psjZFvrONRVuQqJxKBwjBgrtpf9xWAubwnRltPLOszAWHOkh6xrirrKZuNVDmtb+uwPahvK0Og1thjlA3J/bqCC+3sYJukwonHtUNo+xe7EwHEpvhP1TFuxbQ9rTFc2yhnfF9MszvgEMdX68LSGZH5Yr3BeEWbM76POla3F2C39HA/1u3aMbRl3bMc2nE3Il5udxuytHtyu1xRBCbGfH0fe2KHaftYhyKHBfrfcMMwKt4CB1ojUW4yEvExDhTl6tumYIXaVj/vSaZwxe1nYdDu0TspkD9L42dGdKETrUn27z8gx0UZkTF4mz506BCaN78wnuZWycAlG2PWi+aJrsAgKQ4oyMmWX9ZHYo6rvEd7C3KFBDGIk8t6YwzS0dNqxxS1Xq8xekGPLGdR86bYregpv4CLL/uTEFcw1blM7Nfty7kMDPQv7fH5RumL2G4E8Kq+TUJClvaGbwpxTNuYA5wY7Vpe1daX5zRzoPOYCVklsA1wrSe2F8dKSJgKu1Xb10h9u4QpdsD2kH4cEZgY8+U+tFMQx/qiGKXWKD0QSU7U7ksprOp+JoubWbxb33ZyHAqmqG3lxuYgw3Q/TfVQ4xapexVImZS4vqxCVV7lvh+fTPdkir0UpfY5+nY+7pV4TaSYftb5kTZEyCVCOgYY22jXV2LcNyIKjuyPJRUPaJ9EExdX0G/LoW14sVzSopzchUwVzORtOYCT4U3RVRuXJUv2Gc6AZsF7O6F9jSA6r8yhy+Rnn6q+sMXgI5Ck2mXt2lwsWrLMGboYYcuL02eioKB8B7eV1WhvNn693IKfIrXPdB5EHy5nojrhDxv/puYEqOxLFDtikGJqQeGLw74Uru/x5rIiUzlRWBtEWkzhx6Z+2idLU3lP4QZnfym5RQ7ZwsSzNYazxY1p27A2jQH73119rZTNxhLto3GsTCoE1YdL9xUotKgAQ5MYZdE+2vbT96cNslVLZBt9oSfHNiw2BRWuljHPwKZdk6uhu3asuXpIU/bltzKY0rcrw5fFDjGiuRPy0CnqPjj3YbpvImCx7MUH2ktE7jsxCpbCT7V7LLYtRJYpTMmZsMGtRZH7z0Jj6YFVzzbGBzIsIqq5/HWKG2w/LqJzXOOxz1Gv3uwcvE03a9YMx44dk+O1XeVLimbma28m8SpUSERcyXr5pfu6yAhE2CY5gwzReMIaZSQEhVhvfKPPLkJJhA2TTUGHztXiYbJN25d8V2uLSNjxqikNmLlIe+eOS9QDC0H1xyICAFcQpG0XEQHbZBWqbE3R/jGwwnU6pj5cTH2WFK43BxWqtYjYXr8Yt2PqwU42ikpM24lrE/8VrotEhLhOdU3OfWTnogBxSNJ2JgKWkvXrUaL2rW0iwys5YoQZUjrkZYuNJNP9VOJGbkHP4qnOAKtaJadjZOR607G83yt5Ga+67qn42ZkfvOlq1eTx8yGi4C18BjmHotBmUKi+CnZBs/BTcHzNTmGo5jFCl+VZK6s3bBF8BJJU+xihy5jRw6slbPFH9OvirW8X/1RLjteA4SIY8ChRqYizrEiU8DhcQYr4LOlsMSMH753Slr0yWFt2G/LjRSCht1aRpT6RG9R2L8Bu5BeBKpuNQaLVyUOu65CtWMznY24V4oNsGXP7t7KFj95yRS0IiqkjXzWIlifO+5YYJVsFvbJuLyzxo2QrIUe+/3Pzjf3W0MVn37598vHLgRDrHTx4UE3VblXowyVdb544Dhg3wIYSZwmPyCGMFgv64P3Lv2rZkB8vv2zrrVVE2NITxUaLjkq8Y2aPmQO7taepFYj2D4npXAJuxSHpLWsi16ttp7gHBQEzBztikC1PspFToIcn10WWIH+mdj9LRAAzFvHWAoi8JXii3UipR/81IgyKQOR1ajJktJ/V5EisdwZVvu5VMqKscsQrEbZMjlyv7s1U2Ct1g4kuboOnm1u0iIBEjYbEFmw+4P7X/MF3t2NJEdUYInRZnvVvNUUUGBG6LFiYWa1hi2jJcsnp8o8XFfO8Pb0oYKKMSLQOMffL4o8qK7r9cVNQoFrM6GU1gSjDK6m3YppqrdIm0gJH8Zf6IhHkWPRR0ZIENlGSo0/rpVDeO+kte2Up7JZ+suWM3opGlSUFQbaMcRTppUay1EfODoJeOmQOfpzkfbMgvn9jFIvzF538Wnrg8VgH8mXzFLFtDFJM4Zd4olKMbP3ig2MD+kzbi9hJ5jIrogvfBx9sQHJyknxaUUXq1auH+++/T3ufzlFzarcqdZorWipY4zMRb7VjkXp6zRfFpYjpGcQjf0UZiijBEa1VkqNgRQmKVNgg+mLR7UYx3J88JEIeFOQ6W024iHKnEthGinPQtiuNUWVJlSFayJSi+At9SrREcZXCBEiUDsWYAyCXbJG4RD6EeORD3L6Z+SWIG9kTVuO6tG1hG2HadizkZftMY0pR8GpvWW5lLpEq9zMZl4mUmELkV/qJQyJcEcHYQHneOl/3Sg+WzKVY4mdn3EfRIqpUlE8JoqVU0DeYiBa858DNi41ObYeg5YH5mLBAtEjJxO5Dpk5zKynvpaX4LLwnlqpOc9s6drGkiIhqvZzc96u1Zcsl33+DXxrqzefNRNgiOs4NmrmT2k39gCxVkiJCALg6zfVOL4+xWIygQMjF+HtE3yvPqFIabfBRruQsHdKGZ2P3Yu74XLyyZJv2AU9t+3hjOIwWLjkTcI/sL0XtU56rr8c552LCB4WISVmAUa8MxjS7BSnqOGIIpENZvYRHlSJt6iD+1hokESSJvl9c5UyuDnXFfXMgxvKt6tg3F+u0l4zFYQQq5bcV92eqv5Y5su8dEbp4dDZMdAET/bK8884qjBw5HA0bNlRz9XIigwhbHn98qHxE8+7d6jtiLRfWqlVrv+3EO9q6Yod9s5oy01s1iP5CzK1YRAepoqJEVwr7FNGqRLReiUd+gvqSLvsnMb54G+u4b1tYqL0BI1+V+4jtRcmJIlqNGK0rRGet8cZ6gvm82rpvV2rHFNHCpNw2OnF8Vx8w2p5ECwybOkvtfGAtxqtetnffzuNaxbquG6KdgnG/XK1CXNuJIMPUCsdjW9F6yOsx5L5EfzXm+yha9+jLvf9M1KTz3urzc5L0fnjEObquy7V/sdy4JwZxXouifNwrdZ3GJoV2O6yinxyxzPw6KC3U/o20olhdA9HFyvd7rq57j0QcPLhfTZ0H4mlHbQrw4JNvah81iWqH6OiW2LTB6zc+qdzvlego96EwZIoOps3jnsvkynSh8ve6Ee/Xu3d9oqbcnY7qjG87/wURX6xAeMFqOe9k6ySUtH8Q1s+XotFe73+9PVNNjyYlIgqGtz5cAu23paLPsn373oNeve6Sj34WTyMSQYzos0WUEYmWLSJsycxchLNnz6otXPx9RvZm7tw5yMjI0Pa7Qz6aum3btkhLmyGXTZgwXgY7q1evQadOHZGamorhw7XvvCFUxcCFiIhCrWYHLl3w1LwhsNoHqVY0RLVD0IELkaYqgUtlMXAhotrO32fZ6Oho3HtvP/lfo4Nc0WeLKCOqqGVLZQOX5cuXY+PGD9GhQwfccEN7ZGS8KZeJ8Ke0tFQuE0HMsGFDQx64VKmkiIiILgKiRYsqJ3IvWSIiIiIiCo4IV2bOnIWRI0fLVjPiv2K6OsqI8vPzZdDSpEkkjhw5jLVr18pxMWzdulUeU4yLFi6itU2osYULEVENU7NbuBDVTmzhQpXBFi5ERMGrrvygMvuNiIjAsGGPydClIiIEmjfvH9i3r1KPOvOJgQsRUQ3DwIUo9Bi4UGUwcCEiCl5NClzONwYuREQ1TCCBCxEFj4ELBYuBCxFR8Bi4uDBwISKqYfieS3TuMcgkX/wFLkREdO5csIELERGdOwxciIiIiIhqt4ACFyIiIiIiIiIiChwfC01EREREREREFGIMXIiIiIiIiIiIQoyBCxERERERERFRiDFwISIiIiIiIiIKMb+d5kbHtFZjRERERERERERkOFi4V42Vx6cUERERERERERGFGEuKiIiIiIiIiIhCjIELEREREREREVGIMXAhIiIiIiIiIgoxBi5ERERERERERCEWUKe5HW1d1RgREZ0LO+yb1Vh53XskqjEiCsamDblqjCg0+BmZiOjcqugzck0UcOBS2y6MiKi28veeKwKXgwf3qykiCkR0dMsKAxcGmeRLRa8b8X69e9cnaio0zpw+o8aIiGqn6soPamMuwcCFiKiGYeBCFHqBBC78vSJP/l43DFyIiMpj4OLCPlyIiIiIiIiIiEKMgQsRERERERERXdB69+6Ff/1rmdsg5lUnBi5ERERERCH2c6MoONrdjzNX3qjmQI6LeT+HN1dziIguPlarFQMHDsCkSc9i7tw58r9i+qqrrlRrVI/Tp09j7969GD58hBzsdjvq16+vllaPulbrFc+pcZ+ujLoaRw7/V00REVF18veeG92yFU6cKFVTRBSIiAgLDh7Yp6bK4+8VeePvdSPer4uPH1VT7o7d9jTqH96BBkXb1Bzg0lPaunUuwfGuYxFe8J6a6+6XX35RY0REtVNFn2UTEm7B+PHjsH//fnz00Ud49913UVRUhIYNG+LRR/+Es2fPylDEm2BziWHDhqJTp07OoV27dmjatAms1ivQtm1bXHNNKzRr1hStW7d2W2/79h1qD1XHFi5ERBeAwdMzsGyJGqY/jDA1v2YYiDTj3Kr1HLvgqXnm48zF093UIj+6TZyL+RO7qCkioqr7ydIS9b7do6ZcLj/2GX5sHKumqiZpxkqsmnF+n7AVNnoB8jJGqSnvAjvPMIzO+LDi9ZLSsCpvAUarSZ/CRiEj70PkOYcAtvFCXtuqNPAZZkQ6z3KcYImwJSWlH55/fgqWLFmKjz/+BMePF2Pnzl1YseLfmDjxadhsNvTte4/aomqKi4vRqVNHNGjQQI7v3LkT69a9L8fFkJe3Gdu2bZfjgljXGA+VEAYuyZi1ZjVmJavJKkqetRpbt24xDYHuO9DzGItFfvYpz2HRWDXlW+XPVRDnYd42E+PUkqAkp2NNZbclolpNhAVJWI8H+6fiAW14zdEUg4NOM0Qo8gIeqbakpgi5D+nnJ4Yc9MTSeRPgNw8Z9EKA4YwIW4ag5YH5zmM80N8Oy9AMpAV/M4i0X6zxmB/Ia5TIh0t+cODXBpFqyuW3+lbU/emEmjoHREhRK0KDMrySeiv6jPf9VCjkTECfboPxipqsWCGyut2KbtrQPQtIqcQ9KHtlMLr1mYAKzkiTiBmrVuI8515E58R99z3gHIIlyogGDUpFevosHD58RM3VPiGO/EiNASUlJUhLm4Feve5CdHS0mlt5b7+9HKdPn8HGjRvleEXD9u3b5bpiPJTOeQsXEU6sCTCNKLVPRUJCF32YUoC4yVuwKGSJQjoGJPTGmGw16UX2mN5IGJCupipWtXPV/kEwthX/IKxJR8B5jSF7LHolDMRMNenLuEWhvIdEVBNcY2mIQ19lah9VdXkvpeENvw/8P78WPJmKnBPXo0+IwpBuEx/EDSfW4y8vbVFzhExMeH0nwm3j+aX5AtPxphsxasQw1K1bV83RxcXF4qknx+PSSy9Vc4jOn7DffkJZmPtrVDhb5zLU+em0mqJzoWz2pyi0NEZbNU1E557onHbjxg/dwhZvTp06JUOPPn3uVnOqTrRwESIiItyCHNFnTJMmejAuwpbqUHtKikSgMMUOa89KhBHnWlXOdWY+CiMicZ2aJCLyZ8GXRWh+5xz38hnx13m3Fit6uY1s7SFajRhlN/Iv+KJ1yx1ojigkLs5wltaIljPO9ZytTFRLGOc+xDFMpTxBtAiQ533tQLlft2MZ5y2OkRgFNO+JpabyIHP5lHGunqGTU943ONEoAq3lQfQWC484j+Wl5Egc0+0axPUGXppE58bRo0fRps21GDliqDN00cOWcThy5Cj7wCCfRFBn69xJTbmkDnwISYl3qKmq+/7qW+R/631XIP9rdun3x3DJD9/hu5seUXOC4FYqswB3qtmCKNspV0IjWrc82xkWS2dM0uZnyJl66Y6xrrmER5bQOPdharWhWsmMdh6jfIuOcuU38lzLr6eXF43CjFXqOM5t9PPSz1EQLUeMc1HzPVrreL1mP/Tjp+n3UZVC+dqPZ7mU23pyvjjHZ2CzWGCb5NqfXvpk7M98TUQXrxYtWqCgoPx7ojdffVUg1w8V0Vmu0KVLAu67749yXOjfv7/ss0Vo0KB6Os+tWuAyLtNVCrPI/G4qynpMZTKqLEe0bplsi0CEbZKzdEa0uHCu569lR3YuChCHJGMl8/G9bqvKi8aJcht9PVfrGlHKo5+DJEty1L7UfPfWON6vyaeKzjXAkiP9+Ol6yZHpHrr243H+pnvgtp7aVtzrlBggJkWbZ6zrdt1s/UJUKy18Bg+8fgAthprCirwZ+M+hKLQZJCY03W5BS+zCqgUJeOrmcHz+uiq7eSwNeaIlSP/3cUiV/Qx5aYsMQAZiqbM8R5QAvexsjRKFxDYFsoTptc/Dkbj4QYQtFuvNx2eoXKuVvJeGO48l9nnzk13068otAg6Jcqnh+FueHra0/WqQWnc+9rd4EE9364Jm4afg+Npbs55ClJwMR7OuarLR9bhZXddrnwPt7/YoV1q4RruGaHQzApZB16L5oW14UTs21RyHjxzF1GkvIi42VoYubdteK8OWDRs2ISNzsVorhAIJ66hW2PP11/I1Yw5dRNjSo0d3HDgYugdEnP1dOOr+eBL47Tc1x91ljgP4uWEzNRUo7cv9O/1gsb8gy2S6df8UkTaLWgbkjO+rz9eGaXYLbhdJhyjBmbYNDsc2TNXmp74iQo2NiM/X1+vW7QXsiR0mQxERLmxKgbMMp9u0vYidZAoxLJ1xO/6u9g/YHnLvt6XslaWwozUS1VeCsFEdEFO4Ad4qhCy2HsBc/fh2dMZD5QIJcZ7PIHaPulZtSPWoIxLhx7Oxe+V1ieUVlQ0lpfXQzuVTZymSxdYY+WK71NkB70es97i6/m7dbkMW+iFjdC7G99GuweGAfaq+Pz3kao09Ylqs232FtkOWHBGJ1iT79x+Q46KMyBi8TR86dAjNm18YT3OrfOAivqinWGGfokph8iNhi1DLkI0xvdT8hKmwW3vKgEGU6Eyxl6ryG738ZeYAY70uyCqxYUCgX/hFgBGf79x2SkEcRnpNMSJg6wm8KtabIv918NLPyVgsmhyHAuNaypXmiLBlEuIKXGVDWUgJuDRKnqv4B0xtq5ccmcISk+RZPbV/EPKdx4+wRSJfbDMgXYYok+MKMMXYj4/yI7HeSMxxO1cRpIh7nVWoff3I0ub3Gots8TN0u26xw2D6nyGiGiNvBoaIEEL7YJu4WA9d3FqQdGkBHNiKPGzBsRMN0X6oCmZ8EC1GGrUfor5cZiBJ+zcvvGmCWlqE3IlvytYkecdOaP8qGoGE2Lf4b+BOOvapVimujnUfb68d29LKPQiRRLACNL9zoTqvIbihUUNYrtkqr8lyja8LOoFjm9XoyV3IVGVHeVsO4GR4UxhZjG4LNmufBVp00VvODG4T5b3lDJ135tBl8rNPVV/YYvAX1lGtsHZtLhYtWeYMXYyw5cXpM1FQUL6D28pqtDcbv15uwU+RcWqOi+jD5UxUJ/xh49/UnACFtUEktmGukWCUzcYSu0MfF0ytX561WWCJbKMWmN2JKIv445vR+kJvnRHZVvu3Q1tQmGXqHyXnCXxQGIN4IwxxuI6ds24vHJYoj1AiF+u0WxgrE5cwjIqPQWH+bH2RB4f97yqIEds4YInySCPCRiI+phAf+OzPJQxtIgH7XFf/Kp6Bj3aVSDHuhwhURBiiOOxL1XUGsh9BrKfdU9sz6r5tlH/ELHfemrA2jbUdGtenkT8n474Q1R7+OsUNth8X0Tmu8djnqFdvdg7epps1a4Zjx47J8dqu8oHLdeLdaY6rD5SZi2E3P03R2aJjEmwREYj0VSNjamEh3risUf6+7ZegSDtmcpRV/GvhbJkhW86Ify3KKYX91bGQpylanZRaUe4Q4+IRU7i+gv5c2mr/wNnxqmmFmYu0d864xHJhhzvXuRZmmUKc7LFYL/4BcyYu2j8IxnWIQMXUb0ypfbFzO3nLjWsRxD03t6JRros0WhH5ua+eP0OkQ16W5w6JqPZY+AxyjJYtorVGeBwGh3VB1xYn8NF0PWgQ/ac80P8rtFmcUWEJ0KF1RksSfRAtX0KnC566OQonvtmqjYuwxQaH0epGtGrx6ZSrdY4aJiwow9eOU85wyY1s2VOKvUEkJnkv2XGiRYIstWobLloFMW6pqYzQZXnWyuoNWwS/YR3VFkboMmb08GoJW/wR/bp469vFr8QouNqzeBBhy6YeKFatKrqLv7D5pFpjqBYdYvBsPVJZORM2wBF7JxJFYGLZhsWV3a+4Vse32K0mK8fVaa7/jm8DU5jlft8q7OCXiNzs27dPPn45EGK9gwcPqqnardKBiww8fBFhS89iZ0sMn+/5soVFJNar9UTrlwqNewg2FOMLNenWUa0YAuzg1pO4ltLiqr2ll+NxrhUzdZorWp6ouVUhW7GY7k2vinoHJqJabfB0c2sVvRWITrTWCEebJxPQ8kQB3HMDUUYkSoBM5TMmMsCoUmezol8XX2UX+hOFRCe3T4iT6tYU4aZWKKJViXeqdY6XlgUiJDnUvCf+YX60sygDGdoOJ+wzEFxFUCZ2n9Duy8RrES5bBVFNJkKX5Vn/VlNEgRGhy4KFmdUatoiWLJecLv94UTHP29OL/MpZhz3m8puwUehvlBTJMMaBIvn9X29d4t06FDks5cqBhNwiB2JSTCVESS/j9phC5AcTmpS9inxHaySmdYBlz7rKhxzqWof7rMMpw5farbUNd5X+hI1+UPvsvRe5QR000P2I9bT7c7v3kiWzsi+/1Xaol2lJ8ucE7AnuxIguOB98sAHJyUnyaUUVqVevHu6//z7tfTpHzandKh24ZOcUuJfniIBBlRTJMKakSAUHY+HzPf+6SESUGqFEMpLinDVJ5cmyHKuzhUd2UQkivJYHBU+/lhEVlNLsRrH21msuWRo3QHvnLMj1Ho54OdeYFPf+VnqKf8Dc65b8+kL8gzDSVEIkQ50C5HicxBfFpYgJpMNeuUPzdY+FvCzPHRJRjbbgPQduFq1VVJmNeDSyaPUhiL/Eh7ePxoH39BIgPewwr7tU9o0iQ4ZDrk5zRZ8q4ilCj6syn6r3WaHv23yODzypzkn1N2MsbwtTC5eFX8kgxeg0d8GT8/FZuJg29mWETXqAtL+Fqwxq2dAWOPC63gImWAu+PIH27eFsFUREF56c3PertWXLJd9/g18a6s3nzUTYIjrODV4uxr+2DRajHGhTBxQbJUWq/EcvodmIeJj+2qnCC73TXPHo5Rdgt/RTpTFi0EMW8Qhk0feLUYaTJ/shCfQRzIYyzM53wKZ9nvRdDhQI7VrvWQGHs4SnfMezOeP/H7Ic+nWJ5bL/mUq0ZAl0P57ruToO1kupnJ3m5kzAPVnaPRDTYr1N/bQd9vXalw3RxUT0y/LOO6swcuRwNGzYUM3Vy4kMImx5/PGh8hHNu3eHuEHEeRLWqlVrv59EO9q6YofdKIB3kX2KGClLoR12axzwqnjUsuiQNgV6zlKIQu0fAOR3wQARMMhWLTZEyFYdixG1RpQcifVKtfUAa/Ec2RrDbd+SWN+9bxXPdUSrjgEzRX8rI9R5mMfFGuZpcY7xyDf2KUMSIxnSj/WF6gtFbx1iviZNYZazRU3w51oK+xTjnDzOw0Rs4zq+zuj4Vmc6jrivI7VLUy1k3NczHc+4zlI7poh13a7buIdqgojOC1/vuYbuPRJx8OB+NeWHaOXxUBgyZee4FDDxtCLRMbARClGtFx3dEps2+P7GU+73yvy74/l7xN+ri4a/1414v9696xM15e50VGd82/kviPhiBcILVst5J1snoaT9g7B+vhSN9nr/6+2Zano06bkiO9+N/1TvQLaWu5CuhShY3vpwCbTfloo+y/btew969boL4tHP4mlEIogRfbaIMiLRskWELZmZi3D27Fm1hYu/z8jezJ07BxkZGdp+d8hHU7dt2xZpaTPksgkTxstgZ/XqNejUqSNSU1MxfPgIuSxUqhS4UA3iEbgQUe0VysBFPNXnFsf8EPe/cqHTS56s9kGVah1DNVPQgQuRpiqBS2XV7sBFf0xy5Aeh6xfm/HE90an2XwvRueXvs2x0dDTuvbef/K/RQa7os0WUEVXUsqWygcvy5cuxceOH6NChA264oT0yMt6Uy0T4U1paKpeJIGbYsKEhD1yq9lhoqjGSk+J8lzgR0cVH/AV+SQaSsB5/YdgSONGyxaMsi4iI/BOtQcRTj8SjnGt7QCEeAS2fRFSVjn+JyCcRrsycOQsjR46WrWbEf8V0dZQR5efny6ClSZNIHDlyGGvXrpXjYti6das8phgXLVxEa5tQYwuX2s5ZElS+jImIaqdQtnAhIh1buFBlsIULEVHwqis/qMx+IyIiMGzYYzJ0qYgIgebN+wf27avoKW/BY+BCRFTDMHAhCj0GLlQZDFyIiIJXkwKX842BCxFRDRNI4EJEwWPgQsFi4EJEFDwGLi4MXIiIahi+5xKdewwyyRd/gQsREZ07F2zgQkRE5w4DFyIiIiKi2i2gwIWIiIiIiIiIiALHx0ITEREREREREYUYAxciIiIiIiIiohBj4EJEREREREREFGIMXIiIiIiIiIiIQsxvp7nRMa3VGBERERERERERGQ4W7lVj5fEpRUREREREREREIcaSIiIiIiIiIiKiEGPgQkREREREREQUYgxciIiIiIiIiIhCjIELEREREREREVGIBdRpbkdbVzVGRETnwg77ZjVWXvceiWqMiIKxaUOuGiMKDX5GJiI6tyr6jFwTBRy41LYLIyKqrfy954rA5eDB/WqKiAIRHd2ywsCFQSb5UtHrRrxf7971iZoKjTOnz6gxIqLaqbryg9qYSzBwISKqYRi4EIVeIIELf6/Ik7/XDQMXIqLyGLi4sA8XIiIiIiIiIqIQY+BCRERERERERBe03r174V//WuY2iHnViYELEREREVGI/dwoCo529+PMlTeqOZDjYt7P4c3VHCKii4/VasXAgQMwadKzmDt3jvyvmL7qqivVGtXj9OnT2Lt3L4YPHyEHu92O+vXrq6XVo67VesVzatynK6OuxpHD/1VTRERUnfy950a3bIUTJ0rVFBEFIiLCgoMH9qmp8vh7Rd74e92I9+vi40fVlLtjtz2N+od3oEHRNjUHuPSUtm6dS3C861iEF7yn5rr75Zdf1BgRUe1U0WfZhIRbMH78OOzfvx8fffQR3n33XRQVFaFhw4Z49NE/4ezZszIU8SbYXGLYsKHo1KmTc2jXrh2aNm0Cq/UKtG3bFtdc0wrNmjVF69at3dbbvn2H2kPVsYULEdEFYPD0DCxboobpDyNMza8ZBiLNOLdqPccueGqe+Thz8XQ3tciPbhPnYv7ELmqKiKjqfrK0RL1v96gpl8uPfYYfG8eqqapJmrESq2ac3ydshY1egLyMUWrKO3GeeXkfugY/65vJ/a9KQ/VcZSJmrFoJ/7dQrGc6f23IGK3NDhuFjLxAtjcLw+gML/sKVqWOTVQ1nuU4wRJhS0pKPzz//BQsWbIUH3/8CY4fL8bOnbuwYsW/MXHi07DZbOjb9x61RdUUFxejU6eOaNCggRzfuXMn1q17X46LIS9vM7Zt2y7HBbGuMR4qIQxckjFrzWrMSlaTVZQ8azW2bt3iGhaNVUv8k9sGsX5wArvOcYtM5y6HTIxTyyo2FovctlPHGpeJrWvStaNXjrgna9RJi3Mzxs8bcT1u17kFiwK7QRrPexTovfWQnI41ld2WqAYRYUES1uPB/ql4QBteczTF4KDTDBGKvIBHqi2pKULuQ/r5iSEHPbF03gT4zUMGvRBgOCPCliFoeWC+8xgP9LfDMjQDacHfDCLtF2s85gfyGiXy4ZIfHPi1QaSacvmtvhV1fzqhps6BpDSsqrbAInAO+wvo1u1WfUidreZ64XG+Za8MRrc+E+D7WVHnigP2qer8tSH1FW1W2WykduuL8ZU4ucIsta/uK4CUSgQnAR47kECMKFD33feAcwiWKCMaNCgV6emzcPjwETVX+4Q48iM1BpSUlCAtbQZ69boL0dHRam7lvf32cpw+fQYbN26U4xUN27dvl+uK8VA65y1czF/8/Sm1T0VCQhd9GJCu5nohvjibwojsMb0rXv8cKcxS5y6GLO291AhP/CpElrFdQm+MydZmzRyIhF5jIUarauaALugld3qeFWa57o+8QcEEQaZ7JDatTBiVPRa9EgZippr0RQRUgYdBROfeNZaGOPRVJoxn/Oe9lIY3/D7w//xa8GQqck5cjz4hCkO6TXwQN5xYj7+8tEXNETIx4fWdCLeN55fmC0zHm27EqBHDULduXTVHFxcXi6eeHI9LL71UzSE6f8J++wllYe6vUeFsnctQ56fTaoouemWvIr/Qgsi2aproAiU6p9248UO3sMWbU6dOydCjT5+71ZyqEy1chIiICLcgR/QZ06SJHoyLsKU6sKToXBGBSVYJbAOqq+VNbZeOAQlZKLE9FHyLk5n5KIyIxHVqkuhis+DLIjS/c457+Yz467xbixW93Ea29hCtRoyyG/kXfNG65Q40RxQSF2c4S2tEyxnnes5WJqoljHMf4himUp4gWgTI8752oNyv27GM8xbHSIwCmvfEUlN5kLl8yjhXz9DJKe8bnGgUgdbyIHqLhUecx/JSciSO6XYN4noDL02ic+Po0aNo0+ZajBwx1Bm66GHLOBw5cpR9YJBPIqizde6kplxSBz6EpMQ71FTVfX/1LfK/9b4rkP81u/T7Y7jkh+/w3U2PqDlBkGUkRinKAtypZgvuZTsLIKtURGuRZzvDYumMSc7SFfeSFnNJkmwN4dyHqdWFanUy2nmM8i0yypX+BFDy4nY8sa2X8zW30NBLqEY5y3vEuZv34SzNcbtPFVxjhvkOasTxTdv5LfWRxzHda/M9EtdjPo9AWpmofcyQPx/Tfo19aIP7Nap1BLf19PniWjelxAAx/bR5xs/CozyKrV/oHGnRogUKCsq/J3rz1VcFcv1QEZ3lCl26JOC++/4ox4X+/fvLPluEBg2qp/PcqgUu5rKQReZ3U1F2Yyr5UOU9onXLZFsEImyTnGUgbqU3gbRSMB9TrC9at0y2ISLChsnaPNESwdyKRh8f6zwfOd+0D1fLBfcyFbeWFkFep08iGIiJdwYK5mv327JDnIPpPpqvyXzfxDLn+fgol3G22JAlNca6+uBtvlvrDs/7r82q6JjB/XzTkV8Yg3hjB+ZjBdo6SN6ndP3eGMfztR+PllFu16HutTh/+e9Uiml/Fb1WiM6Hhc/ggdcPoMVQU1iRNwP/ORSFNoPEhKbbLWiJXVi1IAFP3RyOz19XZTePpSFPtATp/z4OqbKfIS9tkQHIQCx1lueIEqCXna1RopDYpkCWML32eTgSFz+IsMVivfn4DJVrtZL30nDnscQ+b36yi35duUXAIVEuNRx/y9PDlrZfDVLrzsf+Fg/i6W5d0Cz8FBxfe2vWU4iSk+Fo1lVNNroeN6vreu1zoP3dHuVKC9do1xCNbkbAMuhaND+0DS9qx6aa4/CRo5g67UXExcbK0KVt22tl2LJhwyZkZC5Wa4VQIGEd1Qp7vv5avmbMoYsIW3r06I4DB0P3gIizvwtH3R9PAr/9pua4u8xxAD83bKamAqV9UX6nHyxGaU73TxFps6hlQM74vs5yl2l2C24X365zJqDPtG1wOLZhqiyDEWHLRsTnq3KWbi9gT+ww+UVc/3IOZKl9dJu2F7GTTF/oLZ1xO/6u9g/YHnL/ol72ylLY0RqJ6qNy2KgOiCnc4Cx5sdiecX7J1wOQRKTdbnGV6YiyoXLnq29rZrH1AOZq63dfAYe2z03xn8rtu2cVIuZ2FfjIchu1X7neg87w4p0U1zG75zeG8xaKwOLZ1thjnE+5Uh8LbJOMoMJHkOS8R7chy9EZkzZ1QL7aV2FMD+/bJL2M22MKkW9cq7aPSPnzGYxX/J6TItZ7XLstYh1xXaL1d8YoWY4l7gsKV2jzRfmRCFueQeweo7xLO0/0cwukiKqLaE2yf/8BOS7KiIzB2/ShQ4fQvPmF8TS3ygcu4stqihX2KaqsIz8Stgi1DNkY00vNT5gKu7Wn/JIrSn2m2EtVqZBeyiHKW4yykqwSGwaYvq3rwYz5S20yZvU0HVOU2IiykCl2lJbaMUWbN8BLfUiErSfwqthGtKDQ9hmfr28v3ph7Gl+iRQsLtV9zS4tKXGcgxBf5+HzXtgVxI0zbxiDF+YXee2jiuibtuHDdN1lOpa5jit2KnhWdkCypUecg34yz9Ptnnq/dW6txj+S90P4hNpapEidfx5RhhfY27lxWEIfJgfatI0IS87GmFCBusvd7kTyrp/YPer6rNCgmTr834vwC3I8IW0ZijvNcs7QzF0GTeH3qt0btT4YtYodqf/JnN8k9lCI6H/JmYIgIIbQPtomL9dDFrQVJlxbAga3IwxYcO9EQ7YeqYMYH0WKkUfsh6stlBpK0f/PCmyaopUXInfimbE2Sd+yE9q+iEUiIfYv/Bu6kY59qleLqWPfx9tqxLa3cgxBJBCtA8zsXqvMaghsaNYTlmq3ymizX+LqgEzi2WY2e3IVMVXaUt+UAToY3hZHF6LZgs/ZZoEUXveXM4DZR3lvO0HlnDl0mP/tU9YUtBn9hHdUKa9fmYtGSZc7QxQhbXpw+EwUF5Tu4raxGe7Px6+UW/BSpfSbxIPpwORPVCX/Y+Dc1J0BhbRCJbZhrJBhls7HE7tDHBVNrimdtFlgi26gFZnci6v+3dzfQUZTnHsD/qXov1QNJto1w29BAKN8aSSssAqH1UpIUe9RjvMrnjXh7tUD4DBQs4rlVqVC+RKBa7jkNafjwtECVCiRBBIlSF61RRDAggVwiorHZBMTW2pI7zzvv7M5udrMf2cUk/H/n7GFmdnZ2ZrIJmX+e95lk+UOSFRwshDPZHM6SbTxRvc24yNdrouyneEn+EGYlLm7ve5ftOQF3cqq3mkUpxx7jFPZRiUsCZmamo7rS26vF3sPldrWdPah1S4hhC3XC4Hb9ygxxmo6hzu2Ga5P5Hk3HPoHtbHgrfg7cZfxmnYxUY7cS+n8dsF5vUCGRfpH/c+b5tY5H2Hu4BOmd4jlHTThW5zb2dYt5PtW+yoSX52ugAhXbeTe2sUnPhN4nk6xnVQXJNlVVS7Ovj8H/M2Ts55ObDxkbHN18XbrihWqKG2kfF2mOa932OfWpoZ5HoPlu3brh3Llzarq9iz5wGZhi/ABYY/YXESs2wWW/m6KnqmARnElJSAk23sNWTSE/Gxyp3oDA3sPF7DlSitr6JDiDXHgH0+DZz6Ooa2iAa6Pu7/JuHey77K1wyDN+MDugdiVWx2lpqMO7yEWqQ1dNBHytvYdL4B4j3mMqRVlVg+28easvVDVRWANCjdeMqsOjtr43nsoUVT1kDtfJzTF+aXBtCrA/gd5TjtE4Dts2S2fv9anwCawBde8arzZOUPU227GXzsFee/WLLZR6pG+Vz76jeq/n6xV6O6aBKVbllblN/8+iR24qHFYwpZRi9t5qpGeGGSQRxduGhSizKlukWiOxLyYnDMeIHo14bakZNEj/lLHj30P/TcUtDgE6s8eqJDEfUvkSO8Px0NBUNH500JiWsMUJt1V1I1UtQV3wVufox7yiJrzvvuAJl3yoyp4GnIggMalY4kJjj2FqqNWARKkKYtzSVlmhy9Ztz8U3bBEhwzpqL6zQZfasgriELaFIX5dAvV1Cyk6Ft57Fj4QtB25FnVW5IX8tCsq3+as8AlWSRKNs3j645eI9YQYyk73BQWDGxX6+8f4j30KmBAX24UitJGHLwyn79PEt9oQqEiq1FZ6muVE23W1GVbFY2zQebaLRMJHXyZMn1e2XwyHr1dTU6Ln2LerARS5kg5IQQi7gdWgQ9Ge+hC2PpGCvXk+qX0IxK2IqkSkXxiGHqIRPwpZHUvbqkOMxT6gSk+PUVCVGfa2qCpFgwVM1ox+BqnMiI8HHKNRZ2w21Q4oMizJe85S3Ia+ELaPqrLBrG6ytSChRX2utZYnmPYMwPg+j0uvR7C0CsoVSMWom7NPk2Hi0icbCRGGYvNRerWJWgZikWiMR/ecPQ8/GKvjmBjKMSIYA2YbP2KgAo1XNZqWvS7BhF+YdhaTJ7U9lp7K6ItFWhSJVJYHp6pwAlQUVS1w4030Ufm2/tbMMA5lyIxpdyxHZiKASHG00zsuCfkhUVUHUlknosnXbH/QcUXgkdCnaUBLXsEUqWa6+2Pz2orIs0N2LQirbg+MYgglWOUjCTIy3xsOoMMaNWnWFbVaXBKarSvyGA4nyWjfS8+w9QfyGuoRDGsC6eyN72SAkH98T3gW/Gv6z2Gc4UuskoH+KcTbqjpmzOaPRR58mqcyBNbzIkDBrnGdIkVTIwGkOr1LU+QWOl395sUW4+6Sqe4INWbKTShvjM1Tg3SBmjR9ibDDMrxVRK7z00j7k5uaouxW1pFOnTrj33nuMn9Nlekn7FnXgUlpWJYM3vdUKhRM8Q21USOEJFuYg6M/8gSlIUhUfIhc5fT1jdUKQ4T8ylKYvcmKUuEiY0FB31JzJzYa1KzE5ToMKdJz1uuJDV+pMjHFVhFRfwBtYFLa0Q1rhxkVI2avvhKSY1TeeYKUwE9ZWVlRWG/8R+1UXBX1POcZ05NmGEDUb+mOnwjcn6nU1Smltve97qTDG+E8/wlAq3O28W9dgG17WgtJa1Kebw41MMsxNSmZtFTZEl1nRC24MlWoVPcxGbo0sVR9C/hKfmJGG0y+YQ4DMsMO+7hbVG0WFDGe8TXOlp4rcRWiaHubT+p4V5rbt+zh2vt4n3W/Gen4AbBUuG95TQYrVNLdo/nq8nSjz1rassMkMkE718A6DenZKD5x+2qyAiVTRsUZkZMBTFUREHU9Z+YtxrWy5+tOP8EVns3zeTsIWaZwbuXLMXXcIydZQlAODUGeVbujhP3lqSMl+ZHr+XGbQQY3ZhFaqShbDlSxNVPV2dINV6fchvV/MbRgP/6EuYWnC6ko3nE7j4sqvbMPew8WsZrE3b5W+InrojM/+mq+NjB4mY73ftK/DbQ3nKZuHdbZjPJD5iaf6RZ67Y5ux71aflgN3AdtiVH0SrXD3yX8942H1ZWla/RaqPU1zjc/QHWbvG3O9/cjDdj3Eiyi+pC/L88/vwIwZBejcubNeag4nskjYMm3aFHWL5qNH9bV5O5fQq1fvkL+J3uwcgTdc1gB4LzNE0OlDtQsuh/TOkIt3qXqQYTnqCVQb/wGgUldw6AvrJFWhsAmpu2Q4jazXYKwHOOrWqMoCn20L6dEyphw5nvVl0WO6CkGqNMzlUqWwMdXsx2Ftx5o215uu91FmjX2ZYcxKhYRnv2TDxj7DgTq9XjTHaTVb9VD7b6/E8O6zSc6HhA2yzUxU+g8lkmoa6T0zcaXfMZn7Z83b37faOKHpaP4aWUf6x0w0LlAO+uykPqe1E7zLjW2ow9L743Mu9DENDPKezY7Rfg7keHxPEFyP2oMfv/fyeT7IORK282QJuh3719+Y9f2a2daz9tXaf/tnxeD9HBLFRrCfuZaRt2ajpuaUngtBqjwmJKBENcelsMndiqQxsBUKUbuXltYTB/YFv6ho9n1l/97x/z7i99UVI9TnRn5eHz3ypp7zdTF1CD4Z8iCS3t2OxKqdatn53jmozxgHx+Et6HIi8F9vP4vTrUkvF9V8VxrZ5nv7t1AcqGFk0pQ30lCMKDyBeriE27elpd9l77zzDowZ80PIrZ/lbkQSxEjPFhlGJJUtEraUlGzEpUuX9Cu8Qv2OHMjatWtQXFxsbPcNdWvqAQMGYNmy5eq5efPmqmBn585dGDz4ZuTn56OgYLp6LlZaFbgQtWt+gQtRWxHLwEXu6nOLe32M+690dOaQJ4frvqiqY6htijhwITK0JnCJVvsOXMy74KS8FLu+MBQYgy1qy0L9LpuWloa7775L/Ws1yJWeLTKMqKXKlmgDl61bt2L//pcxaNAg3HRTBoqLf6uek/CnoaFBPSdBzNSpU2IeuLTuttBE7ZhqAlxVzrCFOib5C/zmYuRgLx5k2BI+qWzxG5ZFREShSQBgDg1azLAlnuQW0BVyJ6Jkzx2aiNobCVdWrFiFGTNmqaoZ+Vfm4zGMqLKyUgUt11+fgrNnP8Du3bvVtDwOHjyo3lOmpcJFqm1ijRUudOXxDGeyhnERtS2xrHAhIhMrXCgarHAhIopcvPKDaLablJSEqVN/okKXlkgI9Mwzv8bJk624CUwADFyIiNoYBi5EscfAhaLBwIWIKHJtKXD5sjFwISJqY8IJXIgocgxcKFIMXIiIIsfAxYuBCxFRG8OfuUSXH4NMCiZU4EJERJdPhw1ciIjo8mHgQkRERETUvoUVuBARERERERERUfh4W2giIiIiIiIiohhj4EJEREREREREFGMMXIiIiIiIiIiIYoyBCxERERERERFRjIVsmpuW3ltPERERERERERGRpab6hJ5qjncpIiIiIiIiIiKKMQ4pIiIiIiIiIiKKMQYuREREREREREQxxsCFiIiIiIiIiCjGGLgQEREREREREcVYWE1zb3aO0FNERHQ5vOF6RU81N/LWbD1FRJE4sK9cTxHFBn9HJiK6vFr6HbktCjtwaW8HRkTUXoX6mSuBS03NKT1HROFIS+vZYuDCIJOCaelzIz+vjx55U8/FxmcXP9NTRETtU7zyg/aYSzBwISJqYxi4EMVeOIELv6/IX6jPDQMXIqLmGLh4sYcLEREREREREVGMMXAhIiIiIiIiog7tttvG4He/e9bnIcviiYELEREREVGM/b1LKtw33ovPvvEdvQRqWpb9PbG7XkJEdOVxOByYNGkiFi16GGvXrlH/yvw3v/kNvUZ8XLx4ESdOnEBBwXT1cLlcuPbaa/Wz8XGVw/G1/9HTQX0j9Vs4+8H/6TkiIoqnUD9z03r2QmNjg54jonAkJSWj5vRJPdccv68okFCfG/l5Xffxh3rO17nv/wzXfvAGrqs9pJcA11ww1v3K1fh4xBwkVr2gl/r64osv9BQRUfvU0u+yw4bdgrlzC3Hq1Cm89tpr+OMf/4ja2lp07twZP/7xf+HSpUsqFAkk0lxi6tQpGDx4sOdx4403omvX6+FwfA0DBgzAt7/dC926dUXv3r191nv99Tf0FlqPFS5ERB3A5KXFeHazfiz9TyTo5W3KfYu9+7h5LX6WpZe3QI5r2WQ5muF46JnwXhPaJCwL8/1by+frctm+NnKurPMWWrN93LwY99tfKl+3Z+Yh/NMV2fsTdVSfJ/dEp0+O6zmvr557G3/7eh891zo5y5/DjuVyh60EzCp+WU9HKhvLd0T7WiK6kvgPx4mUhC15eXfh5z9/FJs3b8Gf//wmPv64Du+8cwTbt/8BCxb8DE6nE3feeYd+RevU1dVh8OCbcd1116npd955B3v2vKim5VFR8QoOHXpdTQtZ15qOlRgGLrlYtWsnVuXq2VbKXbUTBw+WoFDP+ygsCf4cEdEVJmvBWuRgL8aNz8dY47HO3RWRX+tKCOF3oR1D6qJ+aAPW6X0cO34LmoZPumzBkDe4ESWYN74Av6jQs3Fhhg63uNfr45XHeryNrhih14ifV/HET/IxryjkTQg9zuy5z7uf5cbl1yZbILVhIcb+ZBlaOl3yGVy/YLiei/z926SsuVgfUdBE5Ovqv7rxj+tS9JzXP6914KrPG/VcrDThyfzv4fa5we+oZAYrz6FZrpIzGn3c1XA7x2GWXhQr3kCIiDqCe+4Z63lESoYR3XdfPlauXIUPPjirlwK1M17TU0B9fT2WLVuOMWN+iLS0NL00er///VZcvPgZ9u/fr6Zberz++utqXZmOpcte4SJByq4wU5mGBgcym6UquVg1ymE8p2eJiK5w307ujDPvlRi/bpsqlizDb9rSta5x4XpL4hGs87loNy7Kl3j3uaPJWjAOPU+vxwNLXtVLhHHM81sOLtoECVjKG5HxozZaKWW4+bvfwczpU3HVVVfpJaa+ffvgoflzcc011+glRF+ehH9+jqYE38+ouPSVf8FXPr+o5758OaN7w115Pyqr05EZ68SFiEiT5rT797/sE7YEcuHCBRV63H77j/SS1pMKF5GUlOQT5EjPmOuvN4NxCVvioW0PKaqvh2PUSvjEM7nZ6FtfhSo9S0R0pSs6Vovuo9f4DpGRv877VKzYhnnYh/aov+BLdcsP0B2pyN5U7KlUkKoFz3qeoTC6EsazDXkPc9ve7fnKGt4DOH2whaDB9nqf92qJ7If1GvvwIN9tyfFKdUtOdxjnaIPteG3nRp0r39eY/I/V/znrNf7Dk4ZjhBzyq/awpbnwzq/9PVt+zUPqOdkXOQf2fWppX4PY8B7OdO9rVkrJvti+JvYhSPJZkX2altEZXTIeMJZZnwfb+wQ9v3q9++Z5nvdWyXj3uXDODL3M68MPP0T//v0wY/oUT+hihi2FOHv2Q/bAoKAkqHMOGaznvPInTUBO9g/0XOt9+q1b1L+d/tL8N9ZrPj2Hq//6F/zlu/frJRFImIniipdRoR5FGK0XW0OKij2BiTlMyFxPlsv8QjiTk+FcZCwrnulZb3QfNyqfbMLqymqkZ1rLDTnLsMP2XmrTgZYZEmYV6WXGY8cyY6tmdcvDzmQkOxfqdc19tNZj5QvRlaVHjx6oqgrvKv6996rU+rEizXLF8OHDcM89/6Gmxfjx41XPFnHddfFpntu6wEUN7XnVfGy0/9CU4UV6uXpujrl01U484kxCknORZ0hQ4Ubberv8wpW6SlShL3JsCwsnOlFfWYuUJL3AEHgbeohT4Urssp7T+0FE1KFIRcLTp9Fjilyg6iChYjn+dCYV/e/TF7dZt6AnjmBH0TA8NDQRh5/Ww0dU1YkMsXkRZ1CL8gn5qipDLqInYYtnmEkZRuGXngvlVGT3r1JDmNYdTkT2pnFI2CTryZCZG3C7LSAQUoHT+NFBPedPLrofUNUg9vf6tefCOxC5GO+HY8a+qtfIsU8wg57JS323JcNaiuYb2zyjh834D42RMGBKD5y2zodxHuATXnmPdWx5Lbo756r3yVrgROJh6338hyelw9GlEede0bP2wEMHUuGeX9/3bPk1PdVz/vsi59e4iPQMGWrdUCrZB/vwNfmsVCwpMD4HF3BenY+FvtVVIc9vZ2QMBUrkuaffATLG6CBMPpPma1asPKzWtPvg7Id47PEn0LdPHxW6DBjQT4Ut+/YdQHHJJr1WDMlxGF+7+43jN4OjMIMranOOv/+++szYQxcJW269dSRO18TuBhGX/jURV/3tPPDPf+olvv7FfRp/79xNz4UrG8ufvwvJrsXIyvoeska+hRRnsn7OToKNhehzXK9nPPKfLMfc2xfD5XbD9ZixLH+1ueascXC638KTxnTT6rdQnT5IhyjGNsYPgXub+fqsrMnGOoGWmWHLgcy39LLv4fHjvVGwPBtlc+/E4y433Gp/jXVzfol/Tz6Ex/R6LQ9/IqKORqpJTp06raZlGJH1CDR/5swZdO/eMe7mFn3gkrsSu/IccD06HMOGGY/KFDg9IUgpZo/Ry4c9BpdjlOrtUjr7NjzqakCD6zFj+SSsMNZcMdFabzi21Tsx0WcI0VHM3lsP50QrKJmDTIcLG+WFNsG3kQTnKOApz37kYSMbvxBRR1SxHA/IBarqv2GGLqrypZ/ZJ8VbZfIqzjUaF7lTdDAThIQkZsWCGRRIhUhi12H62VqUL/itGg5Uca7R+F/xEJ5QF/GybfnX1/vuC7bX+kuHA0dQYht6U/SCceHdY5gKGQLK6opEXY2j9m/KjejSJQm9EyZhQPdavLa05coSH72Mi5XDW2whRAl2GNf3PYZbgY/3WFXVh3of87jl/NirT7yqUX8+Ed08zVqs8EBCLVO459f+nqFeE/C4PUFbFIO3zjfghM/LzMqdwy/ofQtHyPN7AYc36RCs4k84ZTtvEu7IcRbOyTAX+LGHLo88/FD8whZLlxswVAde64xjaMtDrii43bvLsXHzs57QxQpbnli6AlVVzRvcRqvLiVL846vJ+Dylr17iJT1cPksdjH/b/wu9JEwJ/ZGCQ1hrBRVNq7HZ5Tan7RJmIDO9Gi+FDDQSMDMzHdWVZviCpqdsw4qacKzOjfQ8e8+XQMuM/3NSje/z9Ls8lSuqqiWlv37WprwW7uQhWOSpriGitixUU9xI+7hIc1zrts+pTw31PALNd+vWDefOnVPT7V30gcvAFMC1BrNL9fyKTXDZ+6p4ql8WwZmUhJSBerk/CW50BUpeOuBI9alxMbZbier0TFUNk7tqFBxV5bDe0iPoNhrgemqOXr8Us/dKqSSrXIioA9uwEGVWZcuGXXg7UYaFyIVyo+eCXCo+xo5/D/0lsAgwBMji00jVePj2IwmfCidaClCicf6IrQGvPBbiNyO6IrFZSBAnUlVkvO/RfhvQvNrBDLW8oUJg0ZzfiF/TKxldGj+Cp9gmTFLB073Z6/wrd+JHwpZpyYdUJc2KlcEvGq3QZeu25+IbtgjjM2cFgxWvnsb5xMvRAJniwQpdZs8qiEvYEor0dQnU2yWk7FQEqmdpRtZzf4KjejYoFcwY39l51jCf/er3aGtYkVSoZGX9CiiQ58zhQ4GWCbOKxap8MR66gsZH02rkG8+NrByk3o9DioiuLCdPnlS3Xw6HrFdTU6Pn2reoA5fcVIeeCkDCllF1eNSqOqnWy/1JUPJICvbq9aT6pbmV2OhyYNSqOcjpW4+9noRHC2sbREQd1+Sl9mqV4eiWqCeNC/9XTiei//xh6NlYBd8iB6m6kCFAacYvx3qRjVSlWENZomPr4yHBD27ANJ/eLJOwTM1Xo954bpJtCNHkH93Ycs+Xio/Q2KX50CVVIeG3rZBOuoGMcbbAZBJuzwjdf8Ui4ZVUO6hwxdbrpGj+i2gMWgET3fmN6muierGMsg09Mkmg4e2X4kuFHRmN3iobjxIcPZOK7CURVHZEeX6lmue8+6T5/gP6qWXBSOiyddsf9BxReCR0KdpQEtewRSpZrr7Y/PaisizQ3YtCKtuD4xiCCZ7GKTMxPtCQIr2eDOtpScLMQUiv3u4blIzcjur0W20VLDIU6fvG7/L2hrq+y8pr3UiO4A5HTU9ORtbjh4A+o1WvFyK6Mrz00j7k5uaouxW1pFOnTrj33nuMn9Nlekn7FnXgUlpWBTgneG/NXDjBM6RIhTH1tbqyZI5KzwMamIKkhjq8q2ZykdPX1pjFxnyvPDjrK9UwJB8tbiMJfT0NYOTuRlI2uVLPExF1DEUvuDHUGl6z2exhYt2SV/4Sn5iRhtOeYSAShNjXtYZ76Itp3TRX+nKUNd6AaXr4Sut6Vpi3CZaeI1s82+uHY+qCXp4zwwlzebHqEfJgi5UbJZj39DtIlCa41vZU0NF8W1bgYTYWtprm2shQLLkjj+p/Iw/pdzI9ZJ8Ta7iLPKb1qPEZEmUy++LAvo+ybddyFSRFc36j+5r4n6vAr1HnRm9Xjmedfy8WrWj+eryd6P06WqGNfM6gzrvfULUoz68aVqa/joUjzTsLEMVaWfmLca1sufrTj/BFZ7N83k7CFmmcG7lyzF13CMlWRcqBQagLNKRI1rtjO9yqWa25rtlMtxx7jMO1mub6DCeyqGFFyeiTnW1rcLsfediO/CftTW+tZWaA8rgrGXn6vbzvJ9nPCeMNddNce8Pdh3vj+Np5xh4R0ZVC+rI8//wOzJhRgM6dO+ul5nAii4Qt06ZNUbdoPno0ZJ1eu5DQq1fvAL9S+brZOQJvuJrXEFtNcJVqF1yOvsBTt2F26RxsPJgHM2epRnW1MVU5HBMlLVEVKU4kGcu3DduE1F0y5EjWazDWAxx1azBmdqna9gyY06Jw406kbpRty5xsPxOVqg+MNMcNtA0Yy6cjpR5ITzf3UXrHWNsjImqrgv3MtYy8NRs1Naf0XAjS7HNCAkr8m8USXWHS0nriwL7gl3fNvq/s3zv+30f8vrpihPrcyM/ro0fe1HO+LqYOwSdDHkTSu9uRWLVTLTvfOwf1GePgOLwFXU4E/uvtZ3G6NSkRUSQC9XAJt29LS7/L3nnnHRgz5oeQWz/L3YgkiJGeLTKMSCpbJGwpKdmIS5cu6Vd4hfodOZC1a9eguLjY2O4b6tbUAwYMwLJly9Vz8+bNVcHOzp27MHjwzcjPz0dBwXT1XKy0KnBp2ySIMU6WCoD0IiKidiCWgYvcwvcW9/qo+68QdRQRBy5EhtYELtFi4EJE7V2o32XT0tJw9913qX+tBrnSs0WGEbVU2RJt4LJ161bs3/8yBg0ahJtuykBx8W/VcxL+NDQ0qOckiJk6dUrMA5fW3RaaiIjapsH/jSdWr8B33M+HGJ5DRERERHT5SLiyYsUqzJgxS1XNyL8yH49hRJWVlSpouf76FJw9+wF2796tpuVx8OBB9Z4yLRUuUm0TawxciIg6otf/Fw/NLMT0Jdv9Gp8SEREREV0Ztm3bjmuv/aqqdGnpccMNA1UlTKx14CFFRETtUyyHFBGRiUOKKBocUkREFLl45QftMZdg4EJE1MaEE7gQUeQYuFCkGLgQEUWOgYsXAxciojaGP3OJLj8GmRRMqMCFiIgunw4buBAR0eXDwIWIiIiIqH0LK3AhIiIiIiIiIqLw8S5FREREREREREQxxsCFiIiIiIiIiCjGGLgQEREREREREcUYAxciIiIiIiIiohgL2TQ3Lb23niIiIiIiIiIiIktN9Qk91RzvUkREREREREREFGMcUkREREREREREFGMMXIiIiIiIiIiIYoyBCxERERERERFRjDFwISIiIiIiIiKKMQYuREREREREREQxxsCFiIiIiIiIiCjGGLgQEREREREREcUYAxciIiIiIiIiopgC/h/V0D35VmnOPgAAAABJRU5ErkJggg==;" vertex="1" parent="1">
          <mxGeometry x="298" y="580" width="374" height="138.74" as="geometry" />
        </mxCell>
        <mxCell id="r6c1n6n9SwDsCSJcZzll-7" value="Passamos a informação para o Forms" style="text;html=1;align=center;verticalAlign=middle;whiteSpace=wrap;rounded=0;" vertex="1" parent="1">
          <mxGeometry x="192" y="530" width="132" height="30" as="geometry" />
        </mxCell>
        <mxCell id="r6c1n6n9SwDsCSJcZzll-9" value="Escutamos os Triggers do Forms que nos leva para algum Trigger Workflow" style="text;html=1;align=center;verticalAlign=middle;whiteSpace=wrap;rounded=0;" vertex="1" parent="1">
          <mxGeometry x="152" y="770" width="212" height="30" as="geometry" />
        </mxCell>
        <mxCell id="r6c1n6n9SwDsCSJcZzll-12" value="" style="shape=image;verticalLabelPosition=bottom;labelBackgroundColor=default;verticalAlign=top;aspect=fixed;imageAspect=0;image=data:image/png,iVBORw0KGgoAAAANSUhEUgAAAVgAAABpCAYAAAB/PTv8AAAAAXNSR0IArs4c6QAAAARnQU1BAACxjwv8YQUAAAAJcEhZcwAADsMAAA7DAcdvqGQAAA/xSURBVHhe7d0LcBXVGQfwAxGHRygkRJgAAiFlxE6ZQrBjUcYHKFWwdiq0TkWrIK0PbNX6BKs8fBQVams7o0VQp2htq1gcq23xhY6WOg7QmRKQUUh4hGABSUZAENDmf7JfPNns2d17757cvfD/zezcu7tnd885u/vds+fmnnSorBzyhSJKqT59eqvhw7+h31dXr1PbttXp90SFoKP3SpRKH330P3Xw4EF1+PARVVe33VtKVBgYYCn11q9/X23YsEF98QUftqiwtOki2Djkdv169mfP6FciIgq3ZfNm711r1gA7bPvD+pWIiOzKyk6wBlh2ERAROcIAS0TkCAMsEZEjifbBDj3pJDV9+rWqe/fu3pJmy5a9oJa98II3R0R09Gi3Ptiqqiq1cuW/1RVTpurp+htuVPv371dvrFjhpSAiStbUKVeom35+ozeXLokF2B49eqjRo09XL738srdEqQnjx6u3335HNTY2ekuIiJI1ZMgQNXToUG8uXRILsP5gGhRwiYiS9sgjj6p59z/gzSXj/PPOUxdf/APVsWNuITKRANverdd//uPvraZx48Z5a5Lx+OJF6sfTpnlzycMnLvKNVxOO6y8bprlzZnspmtm2JzoWbdm6VW3cuNGby02fPn3UlClX6OCKIHv55T/Sy7KVSIDNR+t1wa8eUt8+73z13HNLU9v/kqmpV07TZbrupz/T83jF/F2zWgdYIkpe586d1aWTL1FnnnGGeuutt/QX83h/9VVX6ZiWjZwDrK312rVrV/WbXz+knnzi8ZZp3LhzvRTJWfHmm/r1WGrNffDBBzrw4pXoWIfH+E6dOnlz2UEcmzlzhho2bJha+vzz6vEnntR//bRo8WI1cOAAdecv7lDl5eVe6vhyDrBBXQF/fOaZVn9JUF9fr5ctX/6KlyI5Z515pqqrq9PBBl0F5qOzOS+P1Xj0xysm/6N3FNmfTGY3guxfJsmDuQxdANmQ4yK/sm95BX+Z4q7zl8dcJmnB7Lpw2XVClI0bb7g+43vZb/IlP1T9+/VTCxc+pl588W+6NVtcXKxj2/wFC/T7aVdO9VLHl1OAjdMVgMA7Y+YdiQdXdAvghh816lv60ToupEfrD10Mp556akuwiYJ0OKZ0TeDxfdKkiTogwe9++7DurjAf8QHzsqxf0wmU9NnYunWb3pcJ+UI+JF9II6LWoTySv3fffbfVRSrHkoAq6R5blN2HBJErxcXd9RNzLh79/UJ1512z1L9WrtRx7Zabb1J3NLVoMR7xunXr1azZs9WD8xd4qePLKcB+98ILW3UF3HfvPapf377eWrcQNDAhaMUNkvCnP/9Fv9bU1OjXiooK/RpFWsrLly/X82gxY37ggAEtQVOCD9bJ47u0BBGAcyXdISZ/vsw0UetAWqb4sOnfv79eBpJ285Ytuo6RhiiNHpw/P+fvKT7//HN9r6AbYOaMGToulJSU6PeVlZV6XOIDBw54qePLKcD+YcmSlq4AtFDXrq1WddtbD4q8u+pydbjbCd5cshA4UCmXXTrZW5IuaP0hcEnrL21Qd5I3TEFPAqhjrEMLF0GWXQSUNvgxUxJ/rYSGGlqtPXp8RT3wwIPq7nvu1cvRmq2qGqHfZyrnPlgwuwrwHs1qsb98uNp80WL1SUVziylpaJEiiKEV6W+Vjj79NP2aBLTozEd8nAzMY7kcV4IP1mE68cT+OohBLl0DYaSFKfuXlilksg75DcsjWggIsigT0dHmlFNOUbfecrM6dOiQmjP3bvX+hg363sV1v3v3bnXd9Olq7NgxXur4Egmw8kUX3H7brW36Q44cX6zqx8xSjUO/4y1JjrRi0Z+Ix3IEAemfzQX6LuXxGV/yYN/okpB945Ef89IdgPeyjXQHLHnqaR3EsCzJYG9C+c0ymwEwap38iZvkWT4oTPjQwHpM+CDjn4xR2uBRvqyszJvLTmlpidrS1OiYPWeu/lJeoGWMlmx1dXVTmlJvaXw5D/aCFusv77tXzZt3v7rmmqv1uAPmF1pbJzykDvT5uip77zFV8t/m/k9yBy1RBEt8qSb9wCJsHVGhmjt3jirr1UtdO/06b0n7cjrYC1qva9euDQyucHzDFjVg2dUMrg6Z/aIzbr9Nt+glgIatIzoaNDY0JNIH60JOLVgZnrCoqEj/6sHF37lSNDy+m8wv1MLWEVHuwlqw/J9cREQ54P/kIiLKAwZYIiJHGGCJiBxp0wc7YOBAa38CERG1FhYz2YIlInKEAZaIyBEGWCIiRxhgiYgcYYAlInKEAZaIyBEGWCIiRxhgiYgccf5Dg7I+mf+rWyIil3Z99OWg2rniDw2IiPKAAZaIyBEGWCIiRxhgiYgcYYAlInKEAZaIyBEGWCIiRxhgiYgcYYAlInKEAZaIyJG8BdhzzxmrfjJtWpvpmyNH6tdepb28lF/CMtu6pMU5Vq75ibt9WLq4+5A0cdPnS5rz5mfm1ZZvV+XJZr9In+b6TXPespW3APvKq6+phYsW6QmWPv9X/f69Vav0fJDdH+/WafDqgnmC4xzLnybTCyTOMSDsOHH3ITJNn2bZ3pBH440swsqWtnOfxHlI+7lkFwERkSNFpaW9ZnvvtR49e6rGxkZvLnddi7t77+xGVlWp9evfV59++mnL/I4dO9SkiRP1+44dOqjt9c2j3+ATq7Z2s077/UkT1ejTTtdpkOeP9+zRaQS6Ic4ZM1avLy0tUZs21XhrVJttcSz42sknt6SVY10wYbz67OBnLfv/amWlGjt2jFq3bn1LmssmT9brZHvs17aNySwP3qOsF0yYYC23/zhmPrEPW5kxL3Vspg+qQ7QIcBwsw7Rq9Wq9j2zrO6xc5rGwvLy8vNW1IOKcr7DjY17WgbldtuXCvOTVfG8yl/vr1X+soHzEObZAOcF/bUjZcR7Nc++ve5yfTNdhkuvDf6yweg3KK9LZ7vugegjaR1z79+313uUuLGYe572mzogRw/XjDALTmLPPbtN1gOUNDQ3q2eeWekvaQjeEwMnAhYHHI5z42ppa9eyqL7f9cONGnQZdFf5HqDVr/qMqKgbpNID3WGZCXs3tkb+obYL0LOkZWm7/cfxsZQ5iq8OJF32vVTnQL76nKV229Q22cuFYr7/xhq4nHCdIUD6DzlfY8Rv2NKiFrzZ3R5nb2erAlEmdhjHLin1gfk9TvrCvoGsSMjm27dowy24Kq/uodf7rQ86nHCuqXm15td33QfUQdS+kQWq7CF5/fYV+xQkGVKgJF2bFoArrTQk4STgBmAT2U9KzpE3gCoM84FiiZ9MnluTLJpttYPXq5iBsK3eUoDLbBNWhHA83EfaBixzBMdv6FkHlwrSnYU/LMts5iXNsCDv+pqbgFSTXcsUl9SplRUCoqa1RJU11i3W2azKJYweVPazuo9aB//oQcqy458zPdt8nUQ/5ULB9sLhA8QkGqHScABNODE4+0mDCBZOLNWvW6IsFE1oacWSzTS4yLXNYHco+MKH10N71bYo6NmR7/HyWK0o+jx1F8oTJbF2KOOcsrjTXQ5SC/5ILn64IZCVNLUQTWgZyInCC0EIAnHgsz/STFZ/Mg5oe8zHZWlp+5ja2FlSSbGWOYtYh6gds9ZNpfYfBsZBObr6oc2I7NmRbdpFkuYJIvUpZsS+08NBSs12TSR07SFjdR62DqHMlws5ZXC7rwbWCDbA4+fhkxDRixAh9Ik3yiIH1Y8ac1XKCAP1C2Ea2lwsJj2x49EGHup9cWOhXsvFvj22QHpNsnwRbPsPKHMRWh+jTMusHx8mlvsOgnw+tE2xnYzu2WQ+ZHN/czlW5gqBepaw4PuZF0DWZzbHDrmG/sLoPWxd0ffhF1SvEzWtYPWRS3nzg/+RyDCe+pqn1KhcJURqhZYhAJY/1prB1hYr/k+sogAsz7pdbRPlUVTXc2kIOW0fh2IJ1BH92g76iNP8JCR3b5BoVZgs1bN3RoL1asAywRHTMYRcBEVGBY4AlInKEAdaAPwPBF1OY5H17kT9rQd8XRWvv8xMX/mokDfmy1U8+ru1jGQNsAHwphU79sC+nkr5I8TeH+NvDsN/Ep0U+btBCCQr4q5E0f6kZ59qm5DDApgh+v02FCx8A7fGTaCocqRiuMC0wFJoMAYcWk21Iv6Ch8nBz2YZwk+HesNwcgk0gDWB/st6/P3O4N6Q3h4UzBeUD+bcNnZhpvs28Stn99WMOSwdRZcmkfuSYSGsb2s5WJhP2KefXPx9UnrB6knPx9jvvtMp7VL1gWyyXMuB95eDBgXWBrgf/cH0i6Dh4H2fIT7y31X+ceixU7TVcIQOsAReRf3zPfn37qi5dOutHd1xguHjxivX4G9e11dV6W1yImMdNJjcKLlSkO3DwgN4ey08bNarNhWru78NNzT9KwP7QZfDKa6/pm2HC+PNbbgqkRUvpxZde0mlNQfmoqa3VwyXKTTlyZHPZUJZM8+0vO4K1v378osqSSf1IfWMeozgteerpNtvZymTC9uZ4qjIfdL4hrJ6CzkWcevGXAd1ECIrYl79MOHd4jwmBVuoPwVWObx4nrH7MsuO9rf7j1GOhaq8Ayy6CCHGGXcMnPeDnhGgR4EYxh3DLdAhCWS/p0V+G31xj0AthG4IO/PnAflAGIb8uSyLfUfUTpyzZDtEYNLRdVJmiBJUnap9B5yLucH3+Msi+/HVh/rZfYB1+DBD0O3+IGvJT2IaShGzrkZoxwEaQLwUAFxoudBukkyloCLf2EpQPjGiEmx2Tv58wKH1cmdRPe8q2TGHlyWSfSdYLgh0CnBy7PX+2KsfElM9rulAxwMaEVoJt2DXcTBDVWolL9ic3JW4wtIakhWETlg9z6ERp8SSZb1v9ZFuWbMUtE4KUtKKDgp9ZnlzqKey6ics2XB/yheVJXXemsDLjA0NauBSOATYCbj5cUJhsQ+UB+qqihnDLBPaHVgv2heNgPg5bPuSG8Q+3mE2+zbLb6seUbVlMmQxLF6dM+Pc9kif0TwtbeTKtpzj1Epd8GGFf/uH60Hdq5ivowyJb2Vwb1BrHIiCiYw7HIiAiKnAMsEREjjDAEhE5wgBLROQIAywRkSMMsEREjjDAEhE5wgBLROQIAywRkSMMsEREjjj/qSwR0dGMP5UlIsoDBlgiIkcYYImIHGGAJSJyhAGWiMgRBlgiIkcYYImIHGGAJSJyhAGWiMgRBlgiIkcYYImIHGGAJSJyhAGWiMiRwNG0iIgoPttoWm0CLBERJYNdBEREjjDAEhE5wgBLROQI+2Aplbp06azKyspUaWkv1a1bN9WxYwe1b98+1dDQoHbu3Kn27t3npSRKLwZYSpUOHTqo3r17q8GDB+n5nTt3qU8+2avfFxd300G3U6fjVG3tZlVfv0MdOXJEryNKIwZYSg0E10GDBqq+fcvV9u31atu2berQocPe2mZFRUWqvLxcDRhwotq1a5fatKlGHT7cOg1ROij1fxaCTtwLNBNzAAAAAElFTkSuQmCC;" vertex="1" parent="1">
          <mxGeometry x="95" y="810" width="344" height="105" as="geometry" />
        </mxCell>
      </root>
    </mxGraphModel>
  </diagram>
  <diagram id="iKcoL18JiaYU5pwwtwMg" name="Atualizar Projeto Trigger">
    <mxGraphModel dx="1434" dy="836" grid="1" gridSize="10" guides="1" tooltips="1" connect="1" arrows="1" fold="1" page="1" pageScale="1" pageWidth="827" pageHeight="1169" math="0" shadow="0">
      <root>
        <mxCell id="0" />
        <mxCell id="1" parent="0" />
        <mxCell id="YZWv83kM--IAAxiXQcso-1" value="" style="ellipse;whiteSpace=wrap;html=1;aspect=fixed;fillColor=#dae8fc;strokeColor=#6c8ebf;" vertex="1" parent="1">
          <mxGeometry x="372" y="40" width="80" height="80" as="geometry" />
        </mxCell>
        <mxCell id="IMXcvbeATwQ4Vume3GfC-22" style="edgeStyle=orthogonalEdgeStyle;rounded=0;orthogonalLoop=1;jettySize=auto;html=1;" edge="1" parent="1" source="YZWv83kM--IAAxiXQcso-3" target="IMXcvbeATwQ4Vume3GfC-20">
          <mxGeometry relative="1" as="geometry" />
        </mxCell>
        <mxCell id="YZWv83kM--IAAxiXQcso-3" value="Botão de atualizar projeto é pressionado" style="text;html=1;align=center;verticalAlign=middle;whiteSpace=wrap;rounded=0;" vertex="1" parent="1">
          <mxGeometry x="324" y="120" width="180" height="45" as="geometry" />
        </mxCell>
        <mxCell id="YZWv83kM--IAAxiXQcso-4" value="" style="verticalLabelPosition=bottom;verticalAlign=top;html=1;shape=mxgraph.basic.flash;fillColor=#d5e8d4;strokeColor=#82b366;" vertex="1" parent="1">
          <mxGeometry x="397" y="50" width="30" height="60" as="geometry" />
        </mxCell>
        <mxCell id="YZWv83kM--IAAxiXQcso-5" value="" style="shape=image;verticalLabelPosition=bottom;labelBackgroundColor=default;verticalAlign=top;aspect=fixed;imageAspect=0;image=data:image/png,iVBORw0KGgoAAAANSUhEUgAAAMkAAABvCAYAAABGg+T2AAAAAXNSR0IArs4c6QAAAARnQU1BAACxjwv8YQUAAAAJcEhZcwAADsMAAA7DAcdvqGQAAAtXSURBVHhe7d17TFRXHgfwLzDDDDCODAyPkElDoDWWdpV2u5R1rYRU1phCTC1NffxRyabRTWPLH274oxLTaNPY0my3ZrM2zUbNxq3J2jWNGGOwaTBtw7ptpW6XGhON2cy68nBEnjPMAPs7915gwMEDjE/4fpLbua+ZO9L7veece+eemzAqQETTSrReiWgaDAmRBkNCpMGQEGkwJEQaDAmRBkNCpMGQEGkwJEQaDAmRBkNCpMGQEGkwJEQaDAmRBkNCpHHX7ydZ+rbfGiO6fy7s8lljs8eShEiDISHSYEiINBgSIg2GhEiDISHSYEiINBgSIg2GhEiDISHSYEiINBgSIg2GhEiDISHSYEgeKmmofTED9Ssc1jTdCwzJjNlRtiwVlUUOzP3OhHglo0K+Q9Vjyda0qMjGD7t8OPuq25pBdxpDMlOrPPhIjuINL8uRfJk1L0plVTZO1HhQaU3T/MGQzFDtY3Y4usO4NJKEJ55IteZOyMqwoTDbhixr+p5p6sDyt/0oOdRjzaA7jSGZETdKsxPQ1dGLMx2AN0+qXdYSkw0+p/pTJiBbVclkKMszlxQtUdNOFJmTFhtKi2T+Ers1HSXPic3Pe9DwYjq2xVo+VYbDqIKNbW/8s63vET1MrCPU+1amy3Y8qH361iqkLz9lvGrpy5e2UJWs96TNXLjA8B73mSiXev8qG86duoqdOTk4XZyI5mP/w9bzaqEHJ3alodBYccKlVj9e+BzY87oP1d4wjr7djp3WMmARDtYtRmlfP5b+8YY5K8+FhnVuVGZPPm71XLmJ9Yd6Yf4VzW1lybwSmWcozcLZNQ50Wtsb/2ynsXSSS9/LOl+noq7KjU2P2OCI2lSoqx9vyHdptqZrXs1DXW4YB75PwEsrkuUwAXRdDGDlpwPmCg8Z3uN+l9UWSFUrGEZzC+D/V1h22OgqVx/eOxZAU0BGg0M4IOM7ZHjvn+bSGQvaUJA6jMamTqyWA8vSfQE0do3Cne9CfbG1zowMYv9x8zsYw/E+tA3J7IEQjh6X10ACCmSPP/ftDaxX25HwfnhlBA5vGt5cO6WkcCZjU4kNl8/Kuvs6saP54QxIvBgSLbOqFeoI4YCavNyPn7qjq1wSnvMDuDmixkfRIeONMjRfNRbOXKAb6z9ox45vQmapERjAjnND6JFAFj42m1O+EbS0md+h8fwQsn6WiqLkYTRL+Izvj35s3XcNW072o82YDkuogsY2C+XfNFkCOqX02KDWDYTQMtt/0zzBkOiUO/F48ih+ujLWMA7h8NUI4LKjalZH+BnKU/V/L478NgdfPecwqjnu1KhTvrPgK89AbX6iVJN6sLXVmjlG2iQ1azNx8DWpPv4mxWh7OJxJ5rJxEbR+EbTGFy6GRMOoaskRtXiVz6jXquFgkaqWqCpXmrnSHeFE/Wt5uPCaBzWPys7aE8apC6okmaOMxfhI2hKO7kG89Wm/NVOxoWZjLn54PQt1T9rhHpKS53ur9LrFKIKqGrnAMSS3tRir8hKAjv6JOr4x9KClT6pcuSmottaMV/VGDzbnAa1ftmP579ux4XAAu9vnek7FhrqXXSiyRdB08vp4Y1zxrclE7RIbOn8MYPX717D+0HXs/GJYykeaDkNyO2ucKJK/UNvlG1Ydf2zoQeO1YaPKVaGpcl3qU42VBCwuMKcNS+zwTalBFWdI6RGU0uNM2Joj5vh/p7QqE5tyE+A/343tF62ZlorcJCkZw2g5NjBRemQkyDyaDkNyG3X5dmAkjHMxzlQdvRQxGtVjVS7/gBz1nXasWSXvyXOOX5No6pYwyZH92fJ0bFbXK1Zm4vRLKcgyGvoTeqWZo95fVq6uTcirWk/GY/3YxC1th2lPaBZ4UL9MXfgMyndMnHSdpCJfSpAhVTrZ8NSLaShS11SeTseRmtTpP48YkmllpOPZbHkNDOFArHp5SxBt0qYdq3Lt/3oAlyKJKC7PkXaFF+9XLDJW838+IEEZhdvnQr36WUt5Mrq+vY7j3cbicXu/7JPPS0Tpqiyc3pWDj8vs8J/tVZuJMoBzHbKT57pwZOOtV/2Vzb9KQaFqMqU7jR9DNkQN75SloPFUH5pl24XLPPj7rlwcfCEViy53o5Ftj2nxYuIdpX4EaceiyDBa2yY3htWV9wLnKLr8g2iZdodUV8uT4cWt759gbiO5ZwhNV1TxMzfm9xnB5fMSdmvefBbPxUSGhBYEXnEnuosYEiINhoRIgyEh0mBIiDQYEiINhoRIgyEh0mBIiDQYEiINhoRIgyEh0mBIiDT4K+A5sX7SPrWvtmAYjRej7iy8I1Kx780MVLgjaDx8DTsuW7NpVvgr4HsuBduqJt/QZAwbc3ChLgcNzzwYPR1ueyUHJ15hR9rxYkjiEQxhr9HBm9nJ29YvBuG32VG5JhN1GdY6cRvA9j/I5++efSni89pR6J3aTRDNFkNyx4TR/NV1bGmLSG3Mjmd/Yc02+upNQakKjYxXP+/BnvLoe8pV1c2NetUnb8nUPoNNsfsTVtS98Ko/31j9BqchS3V1mjh2n7v1Hcbpt0smtknmxOpvF1KS7B3rGdGyTqpcxfbxvoDNvnrtaPumH87iRShWt6b3BbHjgy40LlmMI1Uyz2W80xSJoOlUF7Z/O3Frbqz+hH3PZOLgmhT4pGYXklUd6rWjH2/86Qaarf6BJ1e0RtBy6iq2tMjoDLc7n7BN8gCpdqk/6Qg6281pUyKeKnGhINCHnZ9cw5bPbqJRBW2d7KhO1TdWu3EwWf1ZL1qHbKiQ6tqe6C6Ipirw4GMJSFbPIHZ/4sfyd/xY/2UIoew01L8sxcfFHrx1TD5LdSIRGLT6CruB/Ub3QnFsd4FiSOIy8aiFymVu7KnJRf2jSQh1DeKAOmJHcUjp8bs/d+Po1QharoThW5eKUilV/BduYPtZ84yY/8eb2PCPIYSkuvbr58zeVmKp/qUTharjuRPXcdjqn7ftTCf+6h+F7xEXKgMhNJ0fgdHRysiI1VeY2QFFPNtdqBiSeDiTUTN+dsuNal8iOq/04q1PJx5hMMb/n5uT5lUb548jaJUSYJIzgzgne7c7PVmqc7E4UKYa4z0R/Ns1FlBzcEBqzsmJeNRaM5a5b3fhYkjiEfWoha1S7Vm6+ypWH5KqVIwug0Ijk+v6XmeC/Pc2fe06E/G4NTpZMhapBrnLgdoXPHgnatiker8fks80V4xp7ttduBiSuMz9UQtdQXW+ZEr3p4YEtZ8CA8NoMmdMMYRelQIJ6Hvv/hfLpw4fdGK/uWJMc9/uwsWQ3CeqbaJOwz7+c1UsTPAZj3qQnVnaFbHPC4bQ3DUMpNpRsWIGFy0TEyZ1YTr37S5cDMl94j95E03dsnMWZeDIWqtf3hWZOKgelxAJ4/jJ6MclTHZUlrWqLlHLvdi30rzGYTzXcHMWGsY78B5Cl3owlbQx1LMOfflO4zpJPNtdqBiS+yaI7X/pRmMHUFxi9ctbkQKfauf8rR17p+0KVQR6sOFYL1r6klDxvFfe68PpVz3Y9kgSvJ6x/uFD+PC7ELokBJUv5cpyL+qfUyVPHNtdoHgx8UGQ50SlNxGhafr3jf1wUpN6Sm6xWxrj0/24Ul3x9yUZz3y8Zblmu/MJ+wKe54yQuIew/90OfGjNo9nhFfd5qqzYhcqSDDyVLhN9EUy5Pkn3CEPywHKhpiIdDWtTUYgImr/rYUjuE1a3aEFgdYvoLmJIiDQYEiINhoRIgyEh0mBIiDQYEiINhoRIgyEh0mBIiDQYEiINhoRI467/wJHoYceShEiDISHSYEiINBgSIg2GhEiDISHSYEiINBgSIg2GhEiDISHSYEiINBgSIg2GhEiDISHSYEiINBgSIg2GhEiDISHSYEiINBgSotsC/g/e0/sWyrvocwAAAABJRU5ErkJggg==;" vertex="1" parent="1">
          <mxGeometry x="530" y="10" width="201" height="111" as="geometry" />
        </mxCell>
        <mxCell id="IMXcvbeATwQ4Vume3GfC-1" value="" style="shape=table;startSize=0;container=1;collapsible=0;childLayout=tableLayout;" vertex="1" parent="1">
          <mxGeometry x="520" y="230" width="300" height="120" as="geometry" />
        </mxCell>
        <mxCell id="IMXcvbeATwQ4Vume3GfC-2" value="" style="shape=tableRow;horizontal=0;startSize=0;swimlaneHead=0;swimlaneBody=0;strokeColor=inherit;top=0;left=0;bottom=0;right=0;collapsible=0;dropTarget=0;fillColor=none;points=[[0,0.5],[1,0.5]];portConstraint=eastwest;" vertex="1" parent="IMXcvbeATwQ4Vume3GfC-1">
          <mxGeometry width="300" height="40" as="geometry" />
        </mxCell>
        <mxCell id="IMXcvbeATwQ4Vume3GfC-3" value="Key" style="shape=partialRectangle;html=1;whiteSpace=wrap;connectable=0;strokeColor=#82b366;overflow=hidden;fillColor=#d5e8d4;top=0;left=0;bottom=0;right=0;pointerEvents=1;" vertex="1" parent="IMXcvbeATwQ4Vume3GfC-2">
          <mxGeometry width="150" height="40" as="geometry">
            <mxRectangle width="150" height="40" as="alternateBounds" />
          </mxGeometry>
        </mxCell>
        <mxCell id="IMXcvbeATwQ4Vume3GfC-4" value="Value" style="shape=partialRectangle;html=1;whiteSpace=wrap;connectable=0;strokeColor=#82b366;overflow=hidden;fillColor=#d5e8d4;top=0;left=0;bottom=0;right=0;pointerEvents=1;" vertex="1" parent="IMXcvbeATwQ4Vume3GfC-2">
          <mxGeometry x="150" width="150" height="40" as="geometry">
            <mxRectangle width="150" height="40" as="alternateBounds" />
          </mxGeometry>
        </mxCell>
        <mxCell id="IMXcvbeATwQ4Vume3GfC-5" value="" style="shape=tableRow;horizontal=0;startSize=0;swimlaneHead=0;swimlaneBody=0;strokeColor=inherit;top=0;left=0;bottom=0;right=0;collapsible=0;dropTarget=0;fillColor=none;points=[[0,0.5],[1,0.5]];portConstraint=eastwest;" vertex="1" parent="IMXcvbeATwQ4Vume3GfC-1">
          <mxGeometry y="40" width="300" height="40" as="geometry" />
        </mxCell>
        <mxCell id="IMXcvbeATwQ4Vume3GfC-6" value="emailDesenvolvedor" style="shape=partialRectangle;html=1;whiteSpace=wrap;connectable=0;strokeColor=inherit;overflow=hidden;fillColor=none;top=0;left=0;bottom=0;right=0;pointerEvents=1;" vertex="1" parent="IMXcvbeATwQ4Vume3GfC-5">
          <mxGeometry width="150" height="40" as="geometry">
            <mxRectangle width="150" height="40" as="alternateBounds" />
          </mxGeometry>
        </mxCell>
        <mxCell id="IMXcvbeATwQ4Vume3GfC-7" value="mateus.orlandin@gmail.com" style="shape=partialRectangle;html=1;whiteSpace=wrap;connectable=0;strokeColor=inherit;overflow=hidden;fillColor=none;top=0;left=0;bottom=0;right=0;pointerEvents=1;" vertex="1" parent="IMXcvbeATwQ4Vume3GfC-5">
          <mxGeometry x="150" width="150" height="40" as="geometry">
            <mxRectangle width="150" height="40" as="alternateBounds" />
          </mxGeometry>
        </mxCell>
        <mxCell id="IMXcvbeATwQ4Vume3GfC-8" value="" style="shape=tableRow;horizontal=0;startSize=0;swimlaneHead=0;swimlaneBody=0;strokeColor=inherit;top=0;left=0;bottom=0;right=0;collapsible=0;dropTarget=0;fillColor=none;points=[[0,0.5],[1,0.5]];portConstraint=eastwest;" vertex="1" parent="IMXcvbeATwQ4Vume3GfC-1">
          <mxGeometry y="80" width="300" height="40" as="geometry" />
        </mxCell>
        <mxCell id="IMXcvbeATwQ4Vume3GfC-9" value="urlDoRepositorioDoProjeto" style="shape=partialRectangle;html=1;whiteSpace=wrap;connectable=0;strokeColor=inherit;overflow=hidden;fillColor=none;top=0;left=0;bottom=0;right=0;pointerEvents=1;" vertex="1" parent="IMXcvbeATwQ4Vume3GfC-8">
          <mxGeometry width="150" height="40" as="geometry">
            <mxRectangle width="150" height="40" as="alternateBounds" />
          </mxGeometry>
        </mxCell>
        <mxCell id="IMXcvbeATwQ4Vume3GfC-10" value="https://github.com/MateusOrlandinDias/UiPathCommunityForms" style="shape=partialRectangle;html=1;whiteSpace=wrap;connectable=0;strokeColor=inherit;overflow=hidden;fillColor=none;top=0;left=0;bottom=0;right=0;pointerEvents=1;" vertex="1" parent="IMXcvbeATwQ4Vume3GfC-8">
          <mxGeometry x="150" width="150" height="40" as="geometry">
            <mxRectangle width="150" height="40" as="alternateBounds" />
          </mxGeometry>
        </mxCell>
        <mxCell id="IMXcvbeATwQ4Vume3GfC-11" value="InfoProjeto" style="text;html=1;align=center;verticalAlign=middle;whiteSpace=wrap;rounded=0;" vertex="1" parent="1">
          <mxGeometry x="640" y="190" width="60" height="30" as="geometry" />
        </mxCell>
        <mxCell id="IMXcvbeATwQ4Vume3GfC-12" value="" style="shape=table;startSize=0;container=1;collapsible=0;childLayout=tableLayout;" vertex="1" parent="1">
          <mxGeometry x="580" y="410" width="180" height="120" as="geometry" />
        </mxCell>
        <mxCell id="IMXcvbeATwQ4Vume3GfC-13" value="" style="shape=tableRow;horizontal=0;startSize=0;swimlaneHead=0;swimlaneBody=0;strokeColor=inherit;top=0;left=0;bottom=0;right=0;collapsible=0;dropTarget=0;fillColor=none;points=[[0,0.5],[1,0.5]];portConstraint=eastwest;" vertex="1" parent="IMXcvbeATwQ4Vume3GfC-12">
          <mxGeometry width="180" height="40" as="geometry" />
        </mxCell>
        <mxCell id="IMXcvbeATwQ4Vume3GfC-14" value="Nome do Asset" style="shape=partialRectangle;html=1;whiteSpace=wrap;connectable=0;strokeColor=#82b366;overflow=hidden;fillColor=#d5e8d4;top=0;left=0;bottom=0;right=0;pointerEvents=1;" vertex="1" parent="IMXcvbeATwQ4Vume3GfC-13">
          <mxGeometry width="180" height="40" as="geometry">
            <mxRectangle width="180" height="40" as="alternateBounds" />
          </mxGeometry>
        </mxCell>
        <mxCell id="IMXcvbeATwQ4Vume3GfC-15" value="" style="shape=tableRow;horizontal=0;startSize=0;swimlaneHead=0;swimlaneBody=0;strokeColor=inherit;top=0;left=0;bottom=0;right=0;collapsible=0;dropTarget=0;fillColor=none;points=[[0,0.5],[1,0.5]];portConstraint=eastwest;" vertex="1" parent="IMXcvbeATwQ4Vume3GfC-12">
          <mxGeometry y="40" width="180" height="40" as="geometry" />
        </mxCell>
        <mxCell id="IMXcvbeATwQ4Vume3GfC-16" value="EmailHTML" style="shape=partialRectangle;html=1;whiteSpace=wrap;connectable=0;strokeColor=inherit;overflow=hidden;fillColor=none;top=0;left=0;bottom=0;right=0;pointerEvents=1;" vertex="1" parent="IMXcvbeATwQ4Vume3GfC-15">
          <mxGeometry width="180" height="40" as="geometry">
            <mxRectangle width="180" height="40" as="alternateBounds" />
          </mxGeometry>
        </mxCell>
        <mxCell id="IMXcvbeATwQ4Vume3GfC-17" value="" style="shape=tableRow;horizontal=0;startSize=0;swimlaneHead=0;swimlaneBody=0;strokeColor=inherit;top=0;left=0;bottom=0;right=0;collapsible=0;dropTarget=0;fillColor=none;points=[[0,0.5],[1,0.5]];portConstraint=eastwest;" vertex="1" parent="IMXcvbeATwQ4Vume3GfC-12">
          <mxGeometry y="80" width="180" height="40" as="geometry" />
        </mxCell>
        <mxCell id="IMXcvbeATwQ4Vume3GfC-18" value="TestFlag" style="shape=partialRectangle;html=1;whiteSpace=wrap;connectable=0;strokeColor=inherit;overflow=hidden;fillColor=none;top=0;left=0;bottom=0;right=0;pointerEvents=1;" vertex="1" parent="IMXcvbeATwQ4Vume3GfC-17">
          <mxGeometry width="180" height="40" as="geometry">
            <mxRectangle width="180" height="40" as="alternateBounds" />
          </mxGeometry>
        </mxCell>
        <mxCell id="IMXcvbeATwQ4Vume3GfC-19" value="Assets" style="text;html=1;align=center;verticalAlign=middle;whiteSpace=wrap;rounded=0;" vertex="1" parent="1">
          <mxGeometry x="640" y="370" width="60" height="30" as="geometry" />
        </mxCell>
        <mxCell id="IMXcvbeATwQ4Vume3GfC-24" style="edgeStyle=orthogonalEdgeStyle;rounded=0;orthogonalLoop=1;jettySize=auto;html=1;entryX=0.5;entryY=0;entryDx=0;entryDy=0;" edge="1" parent="1" source="IMXcvbeATwQ4Vume3GfC-20" target="IMXcvbeATwQ4Vume3GfC-23">
          <mxGeometry relative="1" as="geometry" />
        </mxCell>
        <mxCell id="IMXcvbeATwQ4Vume3GfC-20" value="Pega as informações do projeto preenchida no Forms e atualiza a tabela &quot;InfoProjeto&quot; e a tabela &quot;Assets&quot;" style="rounded=1;whiteSpace=wrap;html=1;" vertex="1" parent="1">
          <mxGeometry x="346" y="190" width="136" height="100" as="geometry" />
        </mxCell>
        <mxCell id="IMXcvbeATwQ4Vume3GfC-23" value="Pega o dicionário de assets preenchido no Forms e para cada asset, caso ele já esteja criado no orchestrator, atualiza seu valor" style="rounded=1;whiteSpace=wrap;html=1;" vertex="1" parent="1">
          <mxGeometry x="346" y="335" width="136" height="100" as="geometry" />
        </mxCell>
        <mxCell id="jhjNy5CvW-UX2wQeFoBg-1" value="" style="shape=image;verticalLabelPosition=bottom;labelBackgroundColor=default;verticalAlign=top;aspect=fixed;imageAspect=0;image=data:image/png,iVBORw0KGgoAAAANSUhEUgAAAV0AAACTCAYAAAAtHcrHAAAAAXNSR0IArs4c6QAAAARnQU1BAACxjwv8YQUAAAAJcEhZcwAADsMAAA7DAcdvqGQAABTqSURBVHhe7d15kBTl3QfwZxeWcOxyyKsgsOiySwAVhMSKBxuyUQ7DktcjckngrSxlvfXWq8R/SBQSFvMGcliVessj7x8Ua94oLIeVV4yIsMYo7iqH3GJAQcKCeERQkCOwxe4732f6N/NMT89Mz+xM98zs91PVdD99TU8X851fPzM7XVBePrRNudDWFrmavU1ERNEKCgqsqSBXoSsBawZtdOjKOnpERNThBPM1HLJRgRtoJwxdhOtHP95qtYiIyI3+v7spIoQlgAv1vzGwC4GIKDVtba2qtbVNj5GlkqcxK10zcKXSvX/fIj0mIiJnK0f+Qo+vfHx04N+CYJeCMcStdImIKDWXL6PSRZVrDm3OoWtWueY0ERG5g8AND8HuBQyO3QsStDI+8fA2PU7UvXC01w1qy6B71eXCztacSIWqVd3WvFYNPr3fmkNElF+ke6HnL0eowsLCYJeCHhfqcVq7F472HhUzcKE18HDbBt6lDvS91ZpDRJR+t1dVqu9XT7Ra/pAqF8WrWel63qd7qVNX9W6/7zJ4iShjrr66nxo08Gqr5Q+zeyHYaxAc0hq6XVovWFPxIXh3D5ik/llUbM0hIkqfjZv+qv5v3QarlR5jRt+gxt76Ld1d4IZUtpGDw1fGsCA8xlDguk938zX3q5b+16ln7+xhzXH27N8uBYaL6r73lqoul/9pzW2/smuvUT9fON9qBf3XksfVkb8ftVrJqVv2lDUVtHfffvXfT/yP1cqcXy+p1eNHFj6mx+Lhef+h+ve7Kmo+yHNvz/Mlomi9e/VU3xgzSl034uu6/d7f3lc7d+1VX54+o9t20qfbdVF5sA83MHTq1Ckw7hQYu+rTjcjkhLp2VmrcoCIrWKOHzoUF6pqe6e/V+HblrTp0nvnfFarmgQf1gOlEEHAzpt1rtaJtangttD8vAhd279mnrrrqSqsVNmrk9Wr9hk1Wi4gyraioKJAtt+jARdhue2eXnp44vkp1797NWsuZVLcyjSzFKG76WeunZNygzo5Dv+7uSvNkVX9vog7INxvftuYoPZ2LVd+qNX/SY7yRCJk2nx8ROUMXAKrL9kCo/uCeanXN4EFqy9Yd6rXXG9W27bvUq6+9qa68sq+6794pqk/vXtbaTszADedpxj5IO3qmNWIYN7BIzR7xNVXeu30nwgkurVEZbt22w5oTDaGF7gIZAFUutps44fbQJb0b9n1JpSzz0Q0gj4GxuT6W2dtO0JXxzW/gL1qCMI15INticDpu2T/OS7y2DAL7knnxqn+ibDdl8oTA/+G7rVZqUOH2vaKPavjLG+qdnXt01du1a1d14OAHat2fX1HdAtN33P5ta+1owZC1V64efZD2+tad6g+v7lTLXntPD8ff3a5GfvZXa2n7DRo0QI+lqpXQw4CAQdj86N9mhboJEF5YB32jn332D10hO/WTAgLZaV/SjYE+VKyDZeKTTz7Vy4Q8NrZBFwEC1GxLGJp27NytlwlMYx5gW3lsvGmYj51IrHMhISvzpdomykUIxK916WK1UrOp4XVVv+YFdfD9w7rqvev7k3Tl26tXT3X8o4/VqrXrAuG70VrbmVS3Zq9BWkP3UmE3dbalTeFDMvTbyjDiq73q6IY/qLfrf6+HMzteVkNPbU/rh2gg4YW+VwSHuPlb39RjCU8EGD6QcsPs08WlPfaFoJbLfAQ92gMHhL+eYq+4pW/5+PETerzuxZf1WNpOZP8IVAlVmSdvKvYPDd2IdS4+OvGxDnDMI8p16156JRCKL1it1KBb4NSpL3QXwg/urlb9Aq+P4h7d9TReM6dPn1EtLS3W2m4Ekzft3QsnL7SpBxrOhYYNR1rUufMXraWBKrB4iPrz0Hnqxa//WH1cMtSa2z4SRlLxOkEwSnhiiFXZZhPpYjC7FlCRIijleaTC6VzgHGIaj4PgZfcC5bKLFy+p8+fdfYU1nqv799PVLSrdF17coNb+6SU9H1XvkLLBetqdcKmbsT5dcXdFF9W7Z/ArZCe7l6qmwVPVVef+rgaceV81lU5Vn/W4Vi9rL1SkuGx2ulSXKk4qRqyTzCW5CVWsfV9ox+tPTpV0MZhdC/0D/wkQmhDrOUgFLW9CZt9wonOBqwQELx6HqCMrH3Ktuvtf79Q/XLPm+RcDr51PdOWLCvqrr86q7026Q428YYS1tnsZD905r5xVR45/qv6l7xWqVH2uqj94WpW0fKF6XfxcTfngCXVt26eqpKT9fySBPkhcxuOSWy6dBao4CWXMxzoSTPh6VjIfpKE7AY9j7gvtTHxLQip4kGl0TUg3gBmmJhwLglOO0RTrXKCyRRsDQt6rr8cRZUKPHt1Vz5ISq5Wa4uIe6h+fn1Srn1+nvvjytDVX6QoaFW/zsY9USWCdZMX94wgM+OOLEw9v1/MS/XHEltJ71Ie9x1itsPEf1ql/H3+d2rP3XfXhkeZQdYuKd/iwofoE7di5R88jImovfHOhpLhYLat7zprjHfnjiC4/KzP+MCI41tN6aZqUfrlflVw6pXoEKllz6NR2WV261KK6dw+++1QUntQDpjt3Tv9XyIioYzt37rw6f6H9fbqZkNZKN5577pqsBg7ob7Uivb11BytdIsoLiSpdz0KXiKgj8LR7gYiI4mPoEhF5iKFLROShpPp0Bz1xix4TEZGz4/O26DH7dImIsgBDl4jIQwxdIiIPMXSJiDzE0CUi8hBDl4jIQwxdIiIPMXSJiDzE0CUi8hBDl4jIQ76EbnV1tXrrrabQkAjWGT58mNVKH/MYMDz0UGo3eiQicsvz0EV4Lly4QN1221g91NTU6BDOlESBjceXY3nySd5+nIgyy/PQLS+vUMeOHbNaSh04cFCtX7/eahER5TfPQxcBW1pa6ngpj4rUvNx3Em+d1atXheZLFwbU1dWpxx//rZ52w/4YZiWONvYl+5bl5rp4btJmlwURmXzp08WlfGVlZSikBMJRLveXLFnqGFix1kHgNjY2hroKEO4YA9afP/8netoO+zMDU+Zh39ge26I7xOyiaG5uDu0b5syZrdvYBuuCtGfOnKnbRETgS+jC9OkzQoGGsJNQkxDE/MGDB+t5ItY6mI/qOZU+WQlwDAhqeQzp8kD3R1NTk+4WEQ0NDdZUUG1trR7LNrJc2mZgE1HH5lvoAgKtvr5eVVV9x5oTrBBliFWdulmHiCgbeR66ZlUL6GbA5ToCGOL1gcZaB/Px4Vw6+k/lMaSrAcc6dmywCiYiai9fPkgz+1ERuNItgEt99IHKMqcPv2Ktg+4Kc76EJroG8HjJfJAm3R7YD7ZFm4goHXiPNCKiNOI90oiIsghDl4jIQwxdIiIPMXSJiDzE0CUi8hBDl4jIQwxdIiIPef493ZturrSmiIiyyztbG62p1CX6nq4voZuOJ0ZElE7pyib+cQQRURZh6BIReYihS0TkIYYuEWWVgQMHWlPOEi3PdlkTuvKTjDIMHz7cWuIetkl120Tsx5eO3+5N1ZQp1aGfqrQfVzacN/sx+XmuKLdUVFSolSufU1VVVdacSJiP5VgvV2VVpVtTM1ffDQJ3k3jsscXWXPcOHDigt8c4FYmCR44Pg5+3a589e7ZavrzOamXnecuWc0W55dChQ+rpp38f+H9cGxW8aGM+lmO9XJWV3Qt4keKeZ+mqvPIJzknwThvRAcnzRvlgzZq1UcFrBi6Wu1FcXKwHu6KiItWnTx+r5b2c6NNFJWXe9hyhgmkZcLkt0JbQsa9nMm/Xju1leV3d8qTuMpHoWMzjluXmurj0lrZ5GW4/PjFhwnj1xhtvWK34sG02nbdMnSvKP2bwzpv3UNKBCwjq+++fFRG8CNzpM2aqydWTrTney8rQxQsK9zwzqznztud4gS9dKrdIn6sWLMAt0qOrO6wnl7lYX16o9tu1v/SSebv2uXFu1748IgRkXrxjsd+uHV0DaGMbrAvSltu1Y9+yHQYcn8A6ZtuUTefNq3NF+QsBu3HjJjVt2lQ9TiZwYePGjer8hQuh4JXA7d6tm1r3wjprLe9lVejKCxUvKNzzzNTQ8Koey4tUggcBg/ugVVSU67aQ9WSfeNEGb9c+vB23aw/3U+Lx3RyLHLeorQ32uco2slza2OehQ4f1zTDt1RzCC/22dtl43rw6V5S/UKlOmjRRvflmox5LV4NbLS0tavWq+lDwSuCuXLlCnT171lrLe1n5QRqGdJH9YciV27UjkOQcmJUiKj97MAHPG+Ubsw/30UcXRPXxumUGbzYELuREn64JgQQSRKh2UBVK9SNkPXu1iPnpu127u2NJFapKVLZlZWV637j8lsdMlt/nLdPnivKHGbjSpWD28aYavNkQuJBzoQvSH4gqEJfBaDvBfFxyYz0M8kGP/XbtEgTB27Un90Ga22NJBo5Hjg3HifBN5gO0WPw+b5k4V5Rf8P3bWB+amcGb7Pd0EbzZELiQd78yhhd0Oi+zswU+xLL316ZTvp43yj1jxoxRu3btslrREi1PFX9lLAWovHAJnI8yGbj5fN4o9yQK1EwErpfyInTRP4hKDZeu8ok3JcbzRuS9vAhdfEgjn7TLBzaUGM8bkffyqnuBiCjbMXSJiDzEG1MSEVny8saURET5jDemJCLKIgxdIiIPMXSJiDzE0CUi8hBDl4jIQwxdIiIPMXSJiDzE0CUi8hBDl4jIQwxdIiIP+Rq6uL1LMrfGyQfyJ4JE1DH5FrrDhw/Tt/YO3t57mDU3t+AHwN0e+5lbHlCfzlqhun3wFz1Gm4g6Ht9Cd8KECaqxsVEPmM53PbcsU1e8skhdGHqHKtn+jG4TUcfjW+hWVlaqhoYGPWDahAoS3Q4YA6pJTGPALcDNCtOcBvuy6urwnXUxLdtjMG8nbj4GBiHryXzZRtapq6sLdZHg5pGyHh7L1NK3XFe4+KW2U3f+UreJqOPxJXQlFA8cOKgHMIMTmpubQ3enRbAtWbI01E7GnDmz9XbYfuHCBXqetHE7cYHHqKmpCS0zAxldIPZt5Fiwzfz5P9EhK8eMYf369Xq5KDp5OPTTmBijTUQdjy+hK10LAtNz5861WkGogAFhjDvVSog9+eRTeuxWbW2tHsv2sl9pY/8S+AheVKkIZwStWL58uR6b29gdPnxIjR07NiKsiYjsfAldVIsY5FIc0wgsv0mVigHVazJQsWM7cOpeICICz0MXYYTK1Qw4DJjnFFQIs9LS0tAyeyWJ7crLK/R0qkEnXRzpqFJRidfX16shQ8qsOUREYZ6HblXVdyK6FgTmYZkT6Y9FBWn3xz8+G1oWa3s30DdrVt9uvj/c1NQU+iANgS/bYj/JdoMQUceQc/dIQ38qgk4u5YmIskne3SMNH7ihS4GIKBflROia33/FB27Tp8+wlhAR5ZacCF2ErPmhGxFRrsq57gUiolzG0CUi8hBDl4jIQwxdIiIPef493ZtujvxFMSKibPHO1ug/3EpWou/p+hK66XhiRETplK5syrs/jiAiymUMXSIiDzF0iYg8xNAlIvIQQ5eI8trUqfepNWtWRQyY5xffQ7e6erJqbNyshwcf/E9rbtiwYcP0MowzCY/9m9/82mpFwnynY4NUj0+eswzm/lPZZ6rHQZTv1q59Xk2bNiM0oO0n30P30UcfUXPnPqAqK8epGTOmR4XGwYMH9TKMIRPBgv2NHXub+ulPH7HmRMJ8LHd6XPvxJUOetzx3CX23+zTPRXuOg4i842voIjDw27gSFE1Nb6mKCu9vTT5hwnj92PE899wKVVPzI6uVfghgBDsR5TdfQ1fCVqo1hM769S/raZNUdBjD8uXLQlWhzJdBYNrsusA0LuGlbV7O43EbGl61WkrV16+I2A4OHTqsBg8u1dN2WE+eg+xbto/VLWGHcxG8T1zw8cx9gv2YMAbzXJjb2M+L7BfQjnWM2JfMl/2CtDHGsZj7wzTmEVFivncvLF78Cx0ceDH/6lfOfaoCl8+AqlC6ArCtXKZjezNAfvjDWaH56MYAaeNyXuDGl/IGgABpbj6m18MgbwJYjvXcwHpOj5MqBBoqcfOYMAbzXJhwXvD4WA/r4PmbIR7rGLEveRx7lwreFDAfVf+4ccHHB0xjHpHf8AFZog/J0KfrZ7+u790LixcvCr3I8eI1K6hEJBAktBEsZjAi0EGCU6pZaZuBIlDRImycKlSEjtM2dnV1z+hxvMeJBY9vwrZ4Tk899bQ1JzF5PPMNw951E+sYcf5xLjHYmefP7ArBFYDsh4ji8zV07X2pmzdvjqig3JLQxhDrwzC3EFDYDyB4zDcBhJ9UxOkm4Zqp/buBY8Abl5zLePeiW7VqtX5jwpCoP5yIwnwN3SNHjkRUTAjceC90Owkop6o0GU4VLCpLBEtZWZluY3kyx5Ys6Q6ww3PE4ybzHOW8yBsGjh3nOVE1ikpYnqO8CcSCqhf7xGD2hxNRfL6GLkIAVZJ5OZvoMhrrI6DkQx70V6JPUvZhfvjjFvaJqhvMy2vsV44HgYS+3nSSbhEMeB6xQnHmzFkRz1HC1H4uTNKPi/WxDtqJyONjG3T7xHuTQbDjfGDwszonsrP/MYSffwjhhD/tGICqDiGDcIsFH2ahj5gBE4awR5cQ+3MpH/CnHT2EIEXVGKtKxnxWdJHwRsUP0IiSx0qXkoaqH/296LLgGxHlC1a6lLXQDYNvNzBwiZLH0CUi8hBDl4jIQ7wbMBGRxYs+Xc9Dl4gon/GDNCKiLMLQJSLyEEOXiMhDDF0iIg8xdImIPMTQJSLyRIH+l6FLROShuKGL7+gSEVF7hcOUlS4RUYaZBSxDl4goAxC0BVHdBQVuQpd9DEREyYvMTsnfuL+9IE48vM2aIiIiN7ouKte/uWD+/kJhocNvL0SXw0RElCxkqQzhtkOlC/ZfGmttbTWGy7Z2q7UexpEVMlGmjB49Wo93796tx0R+C2ZrOGilyg0PwWrXVegiUFtbJXwjQxfLMQ6sHZjWW1ljosy58cYb9XjPnj16TOS3yIo2GLqR4ZtU6NqDF2EbDl1zEOY0UbqNGjVKj/fu3avHRH6RsAXn4DWr3cD8RKErY7OqlQAOdilEBm5wFLVLorQaOfIGPd637109JvKbGbiBf4MBq8PXClsZxwtdMEM1OEjgBqcDIz2NoNUjBi554Prrr9fj/fv36zGR/xCs1pQOW3OQroZC9f8zitev744T3gAAAABJRU5ErkJggg==;" vertex="1" parent="1">
          <mxGeometry x="50" y="260" width="237.41" height="100" as="geometry" />
        </mxCell>
      </root>
    </mxGraphModel>
  </diagram>
</mxfile>
